{"glyphs":{"0":{"ha":833,"x_min":89,"x_max":769,"o":"m 410 -11 q 171 97 253 -11 q 89 415 89 206 q 131 725 89 596 q 254 922 174 854 q 447 990 335 990 q 688 882 606 990 q 769 564 769 774 q 675 140 769 290 q 410 -11 581 -11 m 413 65 q 613 195 544 65 q 681 579 681 325 q 624 832 681 750 q 447 914 567 914 q 247 784 315 914 q 178 400 178 654 q 235 147 178 229 q 413 65 293 65 z "},"1":{"ha":833,"x_min":160,"x_max":693,"o":"m 656 75 q 683 65 672 75 q 693 38 693 54 q 683 10 693 21 q 654 0 672 0 l 197 0 q 170 10 181 0 q 160 36 160 21 q 170 64 160 53 q 199 75 181 75 l 386 75 l 450 869 l 293 774 q 272 768 283 768 q 244 780 256 768 q 233 808 233 792 q 253 840 233 829 l 474 979 q 506 989 489 989 q 532 978 522 989 q 540 953 542 968 l 471 75 l 656 75 z "},"2":{"ha":833,"x_min":93,"x_max":733,"o":"m 694 75 q 728 40 728 75 q 718 12 728 24 q 688 0 708 0 l 131 0 q 103 10 114 0 q 93 35 93 19 q 111 72 93 54 l 483 450 q 610 608 574 542 q 647 747 647 675 q 599 869 647 824 q 468 915 550 915 q 324 890 390 915 q 197 813 258 864 q 167 800 181 800 q 144 809 153 800 q 136 833 136 818 q 160 878 136 856 q 299 960 217 929 q 467 990 381 990 q 661 925 589 990 q 733 749 733 860 q 689 578 733 660 q 539 390 644 496 l 222 75 l 694 75 z "},"3":{"ha":833,"x_min":71,"x_max":733,"o":"m 550 500 q 673 422 629 479 q 717 281 717 365 q 677 128 717 193 q 563 26 638 63 q 390 -10 489 -10 q 222 19 301 -10 q 86 97 143 49 q 71 131 71 111 q 81 159 71 147 q 107 171 92 171 q 136 160 124 171 q 394 65 249 65 q 567 121 504 65 q 631 278 631 176 q 403 460 631 460 l 325 460 q 301 471 310 460 q 292 499 292 482 q 301 525 292 515 q 326 535 310 535 l 401 535 q 581 594 514 535 q 647 754 647 653 q 597 872 647 828 q 464 915 547 915 q 324 890 389 915 q 197 813 258 864 q 167 800 181 800 q 144 809 153 800 q 136 833 136 818 q 160 878 136 856 q 299 960 217 929 q 468 990 381 990 q 661 926 589 990 q 733 756 733 863 q 684 600 733 669 q 550 500 635 531 z "},"4":{"ha":833,"x_min":63,"x_max":779,"o":"m 742 296 q 769 285 760 296 q 779 258 779 275 q 769 232 779 242 q 740 222 758 222 l 617 222 l 601 33 q 588 4 600 15 q 558 -7 575 -7 q 528 6 540 -7 q 517 38 515 18 l 532 222 l 108 222 q 76 232 89 222 q 63 258 63 242 q 76 292 63 274 l 594 965 q 636 988 613 988 q 665 976 654 988 q 674 946 675 965 l 622 296 l 742 296 m 538 296 l 579 825 l 172 296 l 538 296 z "},"5":{"ha":833,"x_min":108,"x_max":778,"o":"m 276 906 l 246 521 q 344 585 286 563 q 467 608 403 608 q 619 573 553 608 q 721 474 685 538 q 757 326 757 410 q 715 151 757 228 q 596 33 672 75 q 421 -10 519 -10 q 259 19 338 -10 q 125 99 181 49 q 108 135 108 114 q 119 162 108 150 q 144 174 129 174 q 176 161 163 174 q 424 65 290 65 q 603 135 536 65 q 669 322 669 206 q 612 476 669 418 q 460 533 554 533 q 226 421 314 533 q 190 404 213 404 q 163 416 174 404 q 154 450 153 428 l 193 936 q 207 967 194 956 q 239 979 219 979 l 738 979 q 767 969 757 979 q 778 943 778 960 q 767 915 778 925 q 738 906 757 906 l 276 906 z "},"6":{"ha":832,"x_min":93,"x_max":803,"o":"m 786 875 q 803 838 803 857 q 793 810 803 821 q 768 799 783 799 q 733 815 753 799 q 623 889 685 863 q 494 915 561 915 q 280 803 361 915 q 182 483 199 692 l 178 433 q 288 561 215 514 q 451 608 360 608 q 611 572 542 608 q 718 467 681 535 q 756 313 756 400 q 715 146 756 219 q 601 31 674 72 q 438 -11 528 -11 q 183 97 272 -11 q 93 407 93 206 q 142 715 93 583 q 283 919 192 847 q 494 990 374 990 q 656 961 581 990 q 786 875 732 932 m 442 533 q 319 502 374 533 q 233 415 264 471 q 203 289 203 358 q 267 126 203 188 q 438 64 332 64 q 604 133 540 64 q 668 313 668 201 q 606 473 668 413 q 442 533 544 533 z "},"7":{"ha":833,"x_min":149,"x_max":783,"o":"m 744 979 q 773 969 763 979 q 783 942 783 958 q 775 911 783 928 l 253 10 q 215 -14 239 -14 q 188 -3 200 -14 q 176 24 176 7 q 183 46 176 32 l 681 904 l 190 904 q 160 915 171 904 q 149 942 149 925 q 160 969 149 960 q 190 979 171 979 l 744 979 z "},"8":{"ha":833,"x_min":65,"x_max":769,"o":"m 589 499 q 756 263 756 447 q 713 119 756 181 q 592 25 671 58 q 406 -8 513 -8 q 153 58 240 -8 q 65 251 65 125 q 120 410 65 340 q 269 504 175 479 q 161 586 199 531 q 124 719 124 642 q 165 861 124 800 q 281 956 206 922 q 457 990 357 990 q 688 926 606 990 q 769 750 769 861 q 721 593 769 660 q 589 499 672 526 m 211 714 q 270 581 211 629 q 440 533 329 533 q 619 589 557 533 q 682 742 682 644 q 625 870 682 825 q 456 915 568 915 q 274 863 338 915 q 211 714 211 810 m 401 67 q 599 118 529 67 q 668 264 668 169 q 609 412 668 365 q 415 458 550 458 q 153 251 153 458 q 401 67 153 67 z "},"9":{"ha":833,"x_min":56,"x_max":765,"o":"m 421 990 q 676 882 586 990 q 765 572 765 774 q 716 264 765 396 q 576 60 667 132 q 364 -11 485 -11 q 202 18 278 -11 q 72 104 126 47 q 56 142 56 121 q 65 169 56 158 q 90 181 75 181 q 125 164 107 181 q 235 90 174 117 q 364 64 297 64 q 578 176 497 64 q 676 496 660 288 l 681 546 q 571 418 643 465 q 407 371 499 371 q 247 408 317 371 q 140 512 178 444 q 103 667 103 579 q 144 833 103 760 q 258 949 185 907 q 421 990 331 990 m 417 446 q 540 477 485 446 q 625 565 594 508 q 656 690 656 621 q 591 853 656 792 q 421 915 526 915 q 254 847 318 915 q 190 667 190 778 q 252 506 190 567 q 417 446 314 446 z "},"\u0000":{"ha":0,"x_min":0,"x_max":0,"o":""},"\r":{"ha":350,"x_min":0,"x_max":0,"o":""}," ":{"ha":350,"x_min":0,"x_max":0,"o":""},"A":{"ha":1000,"x_min":29,"x_max":928,"o":"m 925 50 q 928 33 928 44 q 915 3 928 15 q 886 -8 903 -8 q 863 0 874 -8 q 847 24 853 8 l 763 261 l 231 261 l 107 18 q 69 -7 96 -7 q 41 4 53 -7 q 29 32 29 15 q 35 54 29 43 l 499 953 q 550 986 515 986 q 581 976 567 986 q 601 947 594 967 l 925 50 m 736 336 l 543 875 l 268 336 l 736 336 z "},"Á":{"ha":1000,"x_min":29,"x_max":928,"o":"m 925 50 q 928 33 928 44 q 915 3 928 15 q 886 -8 903 -8 q 863 0 874 -8 q 847 24 853 8 l 763 261 l 231 261 l 107 18 q 69 -7 96 -7 q 41 4 53 -7 q 29 32 29 15 q 35 54 29 43 l 499 953 q 550 986 515 986 q 581 976 567 986 q 601 947 594 967 l 925 50 m 736 336 l 543 875 l 268 336 l 736 336 m 593 1068 q 567 1056 581 1056 q 551 1062 557 1056 q 544 1078 544 1068 q 551 1097 544 1086 l 665 1256 q 708 1282 686 1282 q 735 1272 724 1282 q 746 1246 746 1261 q 728 1208 746 1226 l 593 1068 z "},"Ă":{"ha":1000,"x_min":29,"x_max":928,"o":"m 925 50 q 928 33 928 44 q 915 3 928 15 q 886 -8 903 -8 q 863 0 874 -8 q 847 24 853 8 l 763 261 l 231 261 l 107 18 q 69 -7 96 -7 q 41 4 53 -7 q 29 32 29 15 q 35 54 29 43 l 499 953 q 550 986 515 986 q 581 976 567 986 q 601 947 594 967 l 925 50 m 736 336 l 543 875 l 268 336 l 736 336 m 560 1081 q 439 1111 490 1081 q 361 1203 388 1142 q 357 1222 357 1214 q 367 1245 357 1236 q 390 1254 378 1254 q 426 1232 414 1254 q 483 1168 450 1188 q 563 1149 515 1149 q 647 1168 610 1149 q 713 1232 683 1188 q 732 1249 721 1243 q 753 1256 743 1256 q 776 1248 767 1256 q 785 1226 785 1240 q 778 1203 785 1214 q 686 1111 743 1142 q 560 1081 629 1081 z "},"Ắ":{"ha":1000,"x_min":29,"x_max":928,"o":"m 925 50 q 928 33 928 44 q 915 3 928 15 q 886 -8 903 -8 q 863 0 874 -8 q 847 24 853 8 l 763 261 l 231 261 l 107 18 q 69 -7 96 -7 q 41 4 53 -7 q 29 32 29 15 q 35 54 29 43 l 499 953 q 550 986 515 986 q 581 976 567 986 q 601 947 594 967 l 925 50 m 736 336 l 543 875 l 268 336 l 736 336 m 596 1206 q 572 1194 585 1194 q 558 1200 564 1194 q 553 1215 553 1206 q 560 1233 553 1225 l 672 1386 q 715 1413 692 1413 q 744 1400 732 1413 q 757 1372 757 1388 q 743 1343 757 1356 l 596 1206 m 557 1056 q 435 1086 488 1056 q 358 1178 383 1117 q 354 1197 354 1189 q 364 1220 354 1211 q 388 1229 374 1229 q 422 1207 410 1229 q 479 1142 446 1163 q 561 1122 513 1122 q 644 1142 608 1122 q 711 1207 679 1163 q 751 1231 726 1231 q 773 1222 764 1231 q 782 1201 782 1214 q 775 1178 782 1189 q 683 1086 740 1117 q 557 1056 626 1056 z "},"Ặ":{"ha":1000,"x_min":29,"x_max":928,"o":"m 925 50 q 928 33 928 44 q 915 3 928 15 q 886 -8 903 -8 q 863 0 874 -8 q 847 24 853 8 l 763 261 l 231 261 l 107 18 q 69 -7 96 -7 q 41 4 53 -7 q 29 32 29 15 q 35 54 29 43 l 499 953 q 550 986 515 986 q 581 976 567 986 q 601 947 594 967 l 925 50 m 736 336 l 543 875 l 268 336 l 736 336 m 458 -254 q 415 -237 432 -254 q 397 -193 397 -221 q 415 -150 397 -167 q 458 -133 432 -133 q 502 -150 485 -133 q 519 -193 519 -167 q 502 -237 519 -221 q 458 -254 485 -254 m 560 1081 q 439 1111 490 1081 q 361 1203 388 1142 q 357 1222 357 1214 q 367 1245 357 1236 q 390 1254 378 1254 q 426 1232 414 1254 q 483 1168 450 1188 q 563 1149 515 1149 q 647 1168 610 1149 q 713 1232 683 1188 q 732 1249 721 1243 q 753 1256 743 1256 q 776 1248 767 1256 q 785 1226 785 1240 q 778 1203 785 1214 q 686 1111 743 1142 q 560 1081 629 1081 z "},"Ằ":{"ha":1000,"x_min":29,"x_max":928,"o":"m 925 50 q 928 33 928 44 q 915 3 928 15 q 886 -8 903 -8 q 863 0 874 -8 q 847 24 853 8 l 763 261 l 231 261 l 107 18 q 69 -7 96 -7 q 41 4 53 -7 q 29 32 29 15 q 35 54 29 43 l 499 953 q 550 986 515 986 q 581 976 567 986 q 601 947 594 967 l 925 50 m 736 336 l 543 875 l 268 336 l 736 336 m 418 1346 q 404 1378 404 1361 q 415 1402 404 1392 q 440 1413 425 1413 q 463 1406 451 1413 q 482 1386 474 1399 l 574 1238 q 579 1221 579 1226 q 572 1203 579 1211 q 554 1196 564 1196 q 529 1210 542 1196 l 418 1346 m 557 1056 q 435 1086 488 1056 q 358 1178 383 1117 q 354 1197 354 1189 q 364 1220 354 1211 q 388 1229 374 1229 q 422 1207 410 1229 q 479 1142 446 1163 q 561 1122 513 1122 q 644 1142 608 1122 q 711 1207 679 1163 q 751 1231 726 1231 q 773 1222 764 1231 q 782 1201 782 1214 q 775 1178 782 1189 q 683 1086 740 1117 q 557 1056 626 1056 z "},"Ẳ":{"ha":1000,"x_min":29,"x_max":928,"o":"m 925 50 q 928 33 928 44 q 915 3 928 15 q 886 -8 903 -8 q 863 0 874 -8 q 847 24 853 8 l 763 261 l 231 261 l 107 18 q 69 -7 96 -7 q 41 4 53 -7 q 29 32 29 15 q 35 54 29 43 l 499 953 q 550 986 515 986 q 581 976 567 986 q 601 947 594 967 l 925 50 m 736 336 l 543 875 l 268 336 l 736 336 m 601 1219 q 591 1202 600 1208 q 571 1196 582 1196 q 550 1204 558 1196 q 542 1228 542 1213 q 557 1263 542 1251 q 600 1288 572 1275 q 629 1303 619 1296 q 639 1319 639 1310 q 582 1344 639 1344 q 508 1335 549 1344 q 497 1333 504 1333 q 478 1341 485 1333 q 471 1360 471 1349 q 477 1378 471 1369 q 494 1390 483 1386 q 589 1407 538 1407 q 683 1385 649 1407 q 717 1328 717 1363 q 699 1284 717 1299 q 649 1256 682 1269 q 615 1239 626 1246 q 601 1219 604 1232 m 557 1056 q 435 1086 488 1056 q 358 1178 383 1117 q 354 1197 354 1189 q 364 1220 354 1211 q 386 1229 374 1229 q 421 1207 408 1229 q 478 1142 444 1163 q 561 1122 513 1122 q 644 1143 607 1122 q 711 1207 681 1164 q 751 1231 726 1231 q 773 1222 764 1231 q 782 1201 782 1214 q 775 1178 782 1189 q 683 1086 740 1117 q 557 1056 626 1056 z "},"Ẵ":{"ha":1000,"x_min":29,"x_max":928,"o":"m 925 50 q 928 33 928 44 q 915 3 928 15 q 886 -8 903 -8 q 863 0 874 -8 q 847 24 853 8 l 763 261 l 231 261 l 107 18 q 69 -7 96 -7 q 41 4 53 -7 q 29 32 29 15 q 35 54 29 43 l 499 953 q 550 986 515 986 q 581 976 567 986 q 601 947 594 967 l 925 50 m 736 336 l 543 875 l 268 336 l 736 336 m 671 1274 q 623 1283 647 1274 q 563 1308 599 1292 q 520 1328 542 1319 q 483 1336 499 1336 q 444 1326 458 1336 q 414 1297 429 1317 q 388 1276 399 1276 q 370 1285 376 1276 q 364 1306 364 1293 q 380 1351 364 1328 q 425 1391 396 1375 q 489 1407 454 1407 q 537 1398 513 1407 q 597 1372 561 1389 q 640 1353 618 1361 q 676 1344 661 1344 q 716 1355 701 1344 q 744 1383 731 1365 q 751 1392 746 1385 q 762 1401 757 1399 q 772 1404 767 1404 q 790 1396 783 1404 q 797 1376 797 1388 q 781 1331 797 1354 q 735 1290 764 1307 q 671 1274 706 1274 m 558 1056 q 437 1086 489 1056 q 360 1178 385 1117 q 356 1197 356 1189 q 365 1220 356 1211 q 388 1229 375 1229 q 422 1207 410 1229 q 480 1142 446 1163 q 563 1122 514 1122 q 645 1143 608 1122 q 713 1207 682 1164 q 753 1231 728 1231 q 774 1222 765 1231 q 783 1201 783 1214 q 776 1178 783 1189 q 685 1086 742 1117 q 558 1056 628 1056 z "},"Â":{"ha":1000,"x_min":29,"x_max":928,"o":"m 925 50 q 928 33 928 44 q 915 3 928 15 q 886 -8 903 -8 q 863 0 874 -8 q 847 24 853 8 l 763 261 l 231 261 l 107 18 q 69 -7 96 -7 q 41 4 53 -7 q 29 32 29 15 q 35 54 29 43 l 499 953 q 550 986 515 986 q 581 976 567 986 q 601 947 594 967 l 925 50 m 736 336 l 543 875 l 268 336 l 736 336 m 458 1069 q 428 1053 446 1053 q 401 1064 413 1053 q 390 1089 390 1075 q 400 1113 390 1103 l 528 1257 q 576 1281 549 1281 q 619 1257 603 1281 l 719 1117 q 729 1090 729 1103 q 719 1066 729 1076 q 693 1056 708 1056 q 657 1079 671 1056 l 572 1213 l 458 1069 z "},"Ấ":{"ha":1000,"x_min":29,"x_max":928,"o":"m 925 50 q 928 33 928 44 q 915 3 928 15 q 886 -8 903 -8 q 863 0 874 -8 q 847 24 853 8 l 763 261 l 231 261 l 107 18 q 69 -7 96 -7 q 41 4 53 -7 q 29 32 29 15 q 35 54 29 43 l 499 953 q 550 986 515 986 q 581 976 567 986 q 601 947 594 967 l 925 50 m 736 336 l 543 875 l 268 336 l 736 336 m 742 1207 q 721 1199 733 1199 q 705 1205 711 1199 q 699 1221 699 1211 q 706 1239 699 1228 l 815 1386 q 857 1410 833 1410 q 885 1399 874 1410 q 897 1374 897 1389 q 876 1333 897 1353 l 742 1207 m 457 1068 q 428 1053 446 1053 q 403 1064 414 1053 q 392 1090 392 1075 q 400 1113 392 1103 l 528 1256 q 576 1279 549 1279 q 619 1256 604 1279 l 719 1117 q 729 1090 729 1103 q 719 1066 729 1076 q 694 1056 708 1056 q 658 1078 671 1056 l 572 1211 l 457 1068 z "},"Ậ":{"ha":1000,"x_min":29,"x_max":928,"o":"m 925 50 q 928 33 928 44 q 915 3 928 15 q 886 -8 903 -8 q 863 0 874 -8 q 847 24 853 8 l 763 261 l 231 261 l 107 18 q 69 -7 96 -7 q 41 4 53 -7 q 29 32 29 15 q 35 54 29 43 l 499 953 q 550 986 515 986 q 581 976 567 986 q 601 947 594 967 l 925 50 m 736 336 l 543 875 l 268 336 l 736 336 m 458 -254 q 415 -237 432 -254 q 397 -193 397 -221 q 415 -150 397 -167 q 458 -133 432 -133 q 502 -150 485 -133 q 519 -193 519 -167 q 502 -237 519 -221 q 458 -254 485 -254 m 458 1069 q 428 1053 446 1053 q 401 1064 413 1053 q 390 1089 390 1075 q 400 1113 390 1103 l 528 1257 q 576 1281 549 1281 q 619 1257 603 1281 l 719 1117 q 729 1090 729 1103 q 719 1066 729 1076 q 693 1056 708 1056 q 657 1079 671 1056 l 572 1213 l 458 1069 z "},"Ầ":{"ha":1000,"x_min":29,"x_max":928,"o":"m 925 50 q 928 33 928 44 q 915 3 928 15 q 886 -8 903 -8 q 863 0 874 -8 q 847 24 853 8 l 763 261 l 231 261 l 107 18 q 69 -7 96 -7 q 41 4 53 -7 q 29 32 29 15 q 35 54 29 43 l 499 953 q 550 986 515 986 q 581 976 567 986 q 601 947 594 967 l 925 50 m 736 336 l 543 875 l 268 336 l 736 336 m 783 1226 q 775 1208 783 1215 q 757 1201 767 1201 q 738 1213 743 1201 l 656 1343 q 647 1371 647 1358 q 659 1400 647 1389 q 688 1411 671 1411 q 731 1376 718 1411 l 782 1232 l 783 1226 m 457 1068 q 428 1053 446 1053 q 403 1064 414 1053 q 392 1090 392 1075 q 400 1113 392 1103 l 528 1256 q 576 1279 549 1279 q 619 1256 604 1279 l 719 1117 q 729 1090 729 1103 q 719 1066 729 1076 q 694 1056 708 1056 q 658 1078 671 1056 l 572 1211 l 457 1068 z "},"Ẩ":{"ha":1000,"x_min":29,"x_max":928,"o":"m 925 50 q 928 33 928 44 q 915 3 928 15 q 886 -8 903 -8 q 863 0 874 -8 q 847 24 853 8 l 763 261 l 231 261 l 107 18 q 69 -7 96 -7 q 41 4 53 -7 q 29 32 29 15 q 35 54 29 43 l 499 953 q 550 986 515 986 q 581 976 567 986 q 601 947 594 967 l 925 50 m 736 336 l 543 875 l 268 336 l 736 336 m 747 1221 q 737 1203 746 1210 q 717 1197 728 1197 q 696 1206 704 1197 q 688 1229 688 1214 q 703 1264 688 1251 q 747 1289 718 1276 q 777 1305 768 1299 q 786 1321 786 1311 q 770 1340 786 1333 q 728 1346 754 1346 q 654 1336 694 1346 q 643 1335 650 1335 q 624 1342 631 1335 q 617 1360 617 1349 q 642 1392 617 1382 q 735 1408 683 1408 q 830 1387 796 1408 q 864 1329 864 1365 q 846 1285 864 1300 q 794 1256 828 1271 q 761 1239 772 1246 q 747 1221 750 1232 m 457 1068 q 428 1053 446 1053 q 403 1064 414 1053 q 392 1090 392 1075 q 400 1113 392 1103 l 528 1256 q 576 1279 549 1279 q 619 1256 604 1279 l 719 1117 q 729 1090 729 1103 q 719 1066 729 1076 q 694 1056 708 1056 q 658 1078 671 1056 l 572 1211 l 457 1068 z "},"Ẫ":{"ha":1000,"x_min":29,"x_max":928,"o":"m 925 50 q 928 33 928 44 q 915 3 928 15 q 886 -8 903 -8 q 863 0 874 -8 q 847 24 853 8 l 763 261 l 231 261 l 107 18 q 69 -7 96 -7 q 41 4 53 -7 q 29 32 29 15 q 35 54 29 43 l 499 953 q 550 986 515 986 q 581 976 567 986 q 601 947 594 967 l 925 50 m 736 336 l 543 875 l 268 336 l 736 336 m 389 1296 q 372 1304 378 1296 q 365 1325 365 1313 q 381 1369 365 1346 q 426 1407 397 1392 q 490 1422 454 1422 q 538 1414 514 1422 q 599 1390 563 1406 q 678 1364 654 1364 q 717 1374 703 1364 q 746 1400 732 1383 q 760 1414 753 1408 q 774 1419 767 1419 q 792 1411 785 1419 q 799 1392 799 1403 q 782 1347 799 1371 q 737 1308 765 1324 q 672 1293 708 1293 q 624 1301 649 1293 q 564 1325 600 1310 q 485 1351 508 1351 q 446 1342 460 1351 q 415 1315 432 1333 q 389 1296 401 1296 m 457 1068 q 428 1053 446 1053 q 403 1064 414 1053 q 392 1090 392 1075 q 400 1113 392 1103 l 528 1256 q 576 1279 549 1279 q 619 1256 604 1279 l 719 1117 q 729 1090 729 1103 q 719 1066 729 1076 q 694 1056 708 1056 q 658 1078 671 1056 l 572 1211 l 457 1068 z "},"Ȁ":{"ha":1000,"x_min":29,"x_max":928,"o":"m 925 50 q 928 33 928 44 q 915 3 928 15 q 886 -8 903 -8 q 863 0 874 -8 q 847 24 853 8 l 763 261 l 231 261 l 107 18 q 69 -7 96 -7 q 41 4 53 -7 q 29 32 29 15 q 35 54 29 43 l 499 953 q 550 986 515 986 q 581 976 567 986 q 601 947 594 967 l 925 50 m 736 336 l 543 875 l 268 336 l 736 336 m 361 1218 q 356 1239 356 1228 q 368 1267 356 1256 q 396 1279 381 1279 q 432 1247 421 1279 l 493 1088 q 494 1079 494 1085 q 488 1063 494 1069 q 472 1056 481 1056 q 453 1068 461 1056 l 361 1218 m 521 1218 q 514 1240 514 1229 q 526 1268 514 1257 q 554 1279 538 1279 q 592 1247 581 1279 l 651 1088 q 653 1078 653 1083 q 647 1062 653 1068 q 632 1056 640 1056 q 613 1068 621 1056 l 521 1218 z "},"Ä":{"ha":1000,"x_min":29,"x_max":928,"o":"m 925 50 q 928 33 928 44 q 915 3 928 15 q 886 -8 903 -8 q 863 0 874 -8 q 847 24 853 8 l 763 261 l 231 261 l 107 18 q 69 -7 96 -7 q 41 4 53 -7 q 29 32 29 15 q 35 54 29 43 l 499 953 q 550 986 515 986 q 581 976 567 986 q 601 947 594 967 l 925 50 m 736 336 l 543 875 l 268 336 l 736 336 m 451 1111 q 410 1127 426 1111 q 393 1168 393 1143 q 410 1209 393 1193 q 451 1225 426 1225 q 494 1209 476 1225 q 511 1168 511 1193 q 494 1127 511 1143 q 451 1111 476 1111 m 682 1111 q 640 1127 657 1111 q 622 1168 622 1143 q 640 1209 622 1193 q 682 1225 657 1225 q 724 1209 707 1225 q 740 1168 740 1193 q 724 1127 740 1143 q 682 1111 707 1111 z "},"Ạ":{"ha":1000,"x_min":29,"x_max":928,"o":"m 925 50 q 928 33 928 44 q 915 3 928 15 q 886 -8 903 -8 q 863 0 874 -8 q 847 24 853 8 l 763 261 l 231 261 l 107 18 q 69 -7 96 -7 q 41 4 53 -7 q 29 32 29 15 q 35 54 29 43 l 499 953 q 550 986 515 986 q 581 976 567 986 q 601 947 594 967 l 925 50 m 736 336 l 543 875 l 268 336 l 736 336 m 458 -254 q 415 -237 432 -254 q 397 -193 397 -221 q 415 -150 397 -167 q 458 -133 432 -133 q 502 -150 485 -133 q 519 -193 519 -167 q 502 -237 519 -221 q 458 -254 485 -254 z "},"À":{"ha":1000,"x_min":29,"x_max":928,"o":"m 925 50 q 928 33 928 44 q 915 3 928 15 q 886 -8 903 -8 q 863 0 874 -8 q 847 24 853 8 l 763 261 l 231 261 l 107 18 q 69 -7 96 -7 q 41 4 53 -7 q 29 32 29 15 q 35 54 29 43 l 499 953 q 550 986 515 986 q 581 976 567 986 q 601 947 594 967 l 925 50 m 736 336 l 543 875 l 268 336 l 736 336 m 407 1217 q 396 1247 396 1232 q 407 1273 396 1263 q 433 1283 418 1283 q 474 1257 458 1283 l 568 1094 q 572 1079 572 1086 q 565 1063 572 1069 q 547 1056 558 1056 q 522 1068 533 1056 l 407 1217 z "},"Ả":{"ha":1000,"x_min":29,"x_max":928,"o":"m 925 50 q 928 33 928 44 q 915 3 928 15 q 886 -8 903 -8 q 863 0 874 -8 q 847 24 853 8 l 763 261 l 231 261 l 107 18 q 69 -7 96 -7 q 41 4 53 -7 q 29 32 29 15 q 35 54 29 43 l 499 953 q 550 986 515 986 q 581 976 567 986 q 601 947 594 967 l 925 50 m 736 336 l 543 875 l 268 336 l 736 336 m 594 1079 q 583 1062 593 1068 q 561 1056 574 1056 q 538 1065 547 1056 q 529 1089 528 1074 q 547 1125 531 1111 q 589 1153 563 1139 q 619 1171 610 1163 q 629 1190 629 1179 q 574 1215 629 1215 q 500 1204 538 1215 q 489 1203 496 1203 q 469 1210 476 1203 q 461 1229 461 1218 q 486 1261 461 1251 q 581 1278 529 1278 q 673 1256 639 1278 q 707 1196 707 1233 q 690 1149 707 1165 q 640 1118 672 1133 q 608 1099 619 1107 q 594 1079 597 1092 z "},"Ȃ":{"ha":1000,"x_min":29,"x_max":928,"o":"m 925 50 q 928 33 928 44 q 915 3 928 15 q 886 -8 903 -8 q 863 0 874 -8 q 847 24 853 8 l 763 261 l 231 261 l 107 18 q 69 -7 96 -7 q 41 4 53 -7 q 29 32 29 15 q 35 54 29 43 l 499 953 q 550 986 515 986 q 581 976 567 986 q 601 947 594 967 l 925 50 m 736 336 l 543 875 l 268 336 l 736 336 m 572 1256 q 694 1225 642 1256 q 771 1133 746 1194 q 775 1114 775 1124 q 765 1090 775 1100 q 742 1081 756 1081 q 706 1104 719 1081 q 649 1167 682 1147 q 569 1188 615 1188 q 487 1167 522 1188 q 419 1104 451 1147 q 379 1081 404 1081 q 356 1088 365 1081 q 347 1110 347 1096 q 354 1133 347 1124 q 446 1224 389 1193 q 572 1256 503 1256 z "},"Ā":{"ha":1000,"x_min":29,"x_max":928,"o":"m 925 50 q 928 33 928 44 q 915 3 928 15 q 886 -8 903 -8 q 863 0 874 -8 q 847 24 853 8 l 763 261 l 231 261 l 107 18 q 69 -7 96 -7 q 41 4 53 -7 q 29 32 29 15 q 35 54 29 43 l 499 953 q 550 986 515 986 q 581 976 567 986 q 601 947 594 967 l 925 50 m 736 336 l 543 875 l 268 336 l 736 336 m 396 1132 q 365 1142 375 1132 q 354 1168 354 1151 q 367 1195 354 1186 q 400 1204 379 1204 l 738 1204 q 779 1168 779 1204 q 767 1142 779 1151 q 733 1132 754 1132 l 396 1132 z "},"Ą":{"ha":1000,"x_min":28,"x_max":982,"o":"m 940 -185 q 960 -179 954 -179 q 976 -186 969 -179 q 982 -204 982 -193 q 976 -225 982 -214 q 958 -242 969 -236 q 860 -265 915 -265 q 753 -228 793 -265 q 713 -132 713 -192 q 744 -25 713 -69 q 839 40 776 19 l 761 261 l 229 261 l 106 18 q 68 -7 94 -7 q 40 4 51 -7 q 28 32 28 15 q 33 54 28 43 l 497 953 q 549 986 514 986 q 579 976 565 986 q 600 947 593 967 l 922 51 q 926 32 926 42 q 915 6 926 17 q 890 -7 904 -6 q 816 -40 844 -8 q 788 -118 788 -71 q 810 -181 788 -160 q 872 -203 832 -203 q 940 -185 904 -203 m 733 336 l 542 875 l 267 336 l 733 336 z "},"Å":{"ha":1000,"x_min":29,"x_max":928,"o":"m 925 50 q 928 33 928 44 q 915 3 928 15 q 886 -8 903 -8 q 863 0 874 -8 q 847 24 853 8 l 763 261 l 231 261 l 107 18 q 69 -7 96 -7 q 41 4 53 -7 q 29 32 29 15 q 35 54 29 43 l 496 950 q 440 998 461 965 q 418 1071 418 1031 q 458 1167 418 1128 q 554 1206 497 1206 q 651 1167 611 1206 q 692 1071 692 1128 q 667 994 692 1028 q 601 946 642 960 l 925 50 m 554 1143 q 506 1122 525 1143 q 486 1071 486 1101 q 506 1021 486 1042 q 554 1000 525 1000 q 603 1021 583 1000 q 624 1071 624 1042 q 604 1122 624 1101 q 554 1143 585 1143 m 736 336 l 543 875 l 268 336 l 736 336 z "},"Ǻ":{"ha":1000,"x_min":29,"x_max":928,"o":"m 925 50 q 928 33 928 44 q 915 3 928 15 q 886 -8 903 -8 q 863 0 874 -8 q 847 24 853 8 l 763 261 l 231 261 l 107 18 q 69 -7 96 -7 q 41 4 53 -7 q 29 32 29 15 q 35 54 29 43 l 496 950 q 440 998 461 965 q 418 1071 418 1031 q 458 1167 418 1128 q 554 1206 497 1206 q 640 1176 603 1206 l 797 1297 q 835 1311 815 1311 q 866 1298 853 1311 q 879 1265 879 1285 q 870 1238 879 1251 q 843 1217 861 1225 l 675 1136 q 692 1071 692 1107 q 667 994 692 1028 q 601 946 642 960 l 925 50 m 554 1143 q 506 1122 525 1143 q 486 1071 486 1101 q 506 1021 486 1042 q 554 1000 525 1000 q 603 1021 583 1000 q 624 1071 624 1042 q 604 1122 624 1101 q 554 1143 585 1143 m 736 336 l 543 875 l 268 336 l 736 336 z "},"Ã":{"ha":1000,"x_min":29,"x_max":928,"o":"m 925 50 q 928 33 928 44 q 915 3 928 15 q 886 -8 903 -8 q 863 0 874 -8 q 847 24 853 8 l 763 261 l 231 261 l 107 18 q 69 -7 96 -7 q 41 4 53 -7 q 29 32 29 15 q 35 54 29 43 l 499 953 q 550 986 515 986 q 581 976 567 986 q 601 947 594 967 l 925 50 m 736 336 l 543 875 l 268 336 l 736 336 m 657 1100 q 550 1136 617 1100 q 508 1156 529 1147 q 471 1164 486 1164 q 430 1153 444 1164 q 400 1124 415 1143 q 374 1104 385 1104 q 356 1113 363 1104 q 350 1133 350 1121 q 367 1180 350 1156 q 412 1221 383 1204 q 476 1238 440 1238 q 583 1201 517 1238 q 626 1182 604 1190 q 663 1174 647 1174 q 703 1184 689 1174 q 733 1214 718 1194 q 745 1228 739 1222 q 758 1235 751 1235 q 776 1226 769 1235 q 783 1206 783 1218 q 767 1158 783 1183 q 721 1117 750 1133 q 657 1100 692 1100 z "},"Æ":{"ha":1374,"x_min":11,"x_max":1356,"o":"m 1317 979 q 1345 969 1335 979 q 1356 942 1356 958 q 1345 915 1356 925 q 1317 904 1335 904 l 732 904 l 782 535 l 1256 535 q 1283 524 1272 535 q 1293 497 1293 514 q 1283 470 1293 481 q 1254 460 1272 460 l 792 460 l 843 75 l 1246 75 q 1274 65 1264 75 q 1285 38 1285 54 q 1274 10 1285 21 q 1244 0 1263 0 l 814 0 q 782 10 794 0 q 768 38 769 19 l 739 261 l 254 261 l 89 15 q 50 -8 74 -8 q 23 2 35 -8 q 11 29 11 13 q 21 57 11 43 l 629 951 q 682 979 649 979 l 1317 979 m 729 336 l 660 865 l 304 336 l 729 336 z "},"Ǽ":{"ha":1374,"x_min":11,"x_max":1356,"o":"m 1317 979 q 1345 969 1335 979 q 1356 942 1356 958 q 1345 915 1356 925 q 1317 904 1335 904 l 732 904 l 782 535 l 1256 535 q 1283 524 1272 535 q 1293 497 1293 514 q 1283 470 1293 481 q 1254 460 1272 460 l 792 460 l 843 75 l 1246 75 q 1274 65 1264 75 q 1285 38 1285 54 q 1274 10 1285 21 q 1244 0 1263 0 l 814 0 q 782 10 794 0 q 768 38 769 19 l 739 261 l 254 261 l 89 15 q 50 -8 74 -8 q 23 2 35 -8 q 11 29 11 13 q 21 57 11 43 l 629 951 q 682 979 649 979 l 1317 979 m 729 336 l 660 865 l 304 336 l 729 336 m 783 1068 q 757 1056 771 1056 q 741 1062 747 1056 q 735 1078 735 1068 q 742 1097 735 1086 l 856 1256 q 899 1282 876 1282 q 925 1272 914 1282 q 936 1246 936 1261 q 918 1208 936 1226 l 783 1068 z "},"B":{"ha":931,"x_min":103,"x_max":850,"o":"m 671 499 q 794 422 753 478 q 836 283 836 367 q 749 74 836 149 q 506 0 663 0 l 151 0 q 116 15 129 0 q 106 51 103 29 l 174 936 q 188 967 175 956 q 221 979 201 979 l 540 979 q 771 917 692 979 q 850 740 850 856 q 804 590 850 653 q 671 499 758 528 m 257 906 l 228 535 l 521 535 q 700 587 636 535 q 764 738 764 639 q 538 906 764 906 l 257 906 m 506 74 q 688 124 625 74 q 750 276 750 175 q 522 460 750 460 l 222 460 l 192 74 l 506 74 z "},"C":{"ha":940,"x_min":100,"x_max":919,"o":"m 507 -11 q 292 44 385 -11 q 150 202 200 99 q 100 447 100 306 q 156 734 100 611 q 317 924 213 857 q 563 990 421 990 q 758 958 669 990 q 906 865 846 926 q 919 833 919 851 q 909 805 919 817 q 883 793 899 793 q 857 804 869 793 q 727 888 797 861 q 560 914 657 914 q 360 858 444 914 q 233 696 276 801 q 189 446 189 590 q 276 165 189 264 q 525 65 364 65 q 673 92 601 65 q 803 171 744 118 q 833 185 818 185 q 856 174 847 185 q 864 149 864 164 q 849 115 864 129 q 507 -11 711 -11 z "},"Ć":{"ha":940,"x_min":100,"x_max":919,"o":"m 507 -11 q 292 44 385 -11 q 150 202 200 99 q 100 447 100 306 q 156 734 100 611 q 317 924 213 857 q 563 990 421 990 q 758 958 669 990 q 906 865 846 926 q 919 833 919 851 q 909 805 919 817 q 883 793 899 793 q 857 804 869 793 q 727 888 797 861 q 560 914 657 914 q 360 858 444 914 q 233 696 276 801 q 189 446 189 590 q 276 165 189 264 q 525 65 364 65 q 673 92 601 65 q 803 171 744 118 q 833 185 818 185 q 856 174 847 185 q 864 149 864 164 q 849 115 864 129 q 507 -11 711 -11 m 626 1068 q 600 1056 614 1056 q 584 1062 590 1056 q 578 1078 578 1068 q 585 1097 578 1086 l 699 1256 q 742 1282 719 1282 q 768 1272 757 1282 q 779 1246 779 1261 q 761 1208 779 1226 l 626 1068 z "},"Č":{"ha":940,"x_min":100,"x_max":919,"o":"m 507 -11 q 292 44 385 -11 q 150 202 200 99 q 100 447 100 306 q 156 734 100 611 q 317 924 213 857 q 563 990 421 990 q 758 958 669 990 q 906 865 846 926 q 919 833 919 851 q 909 805 919 817 q 883 793 899 793 q 857 804 869 793 q 727 888 797 861 q 560 914 657 914 q 360 858 444 914 q 233 696 276 801 q 189 446 189 590 q 276 165 189 264 q 525 65 364 65 q 673 92 601 65 q 803 171 744 118 q 833 185 818 185 q 856 174 847 185 q 864 149 864 164 q 849 115 864 129 q 507 -11 711 -11 m 707 1264 q 738 1281 719 1281 q 764 1269 753 1281 q 775 1244 775 1258 q 765 1221 775 1231 l 638 1076 q 589 1053 617 1053 q 546 1076 563 1053 l 446 1218 q 436 1244 436 1232 q 447 1268 436 1258 q 472 1278 457 1278 q 508 1256 496 1278 l 593 1121 l 707 1264 z "},"Ç":{"ha":940,"x_min":100,"x_max":919,"o":"m 906 865 q 919 833 919 851 q 909 805 919 817 q 883 793 899 793 q 857 804 869 793 q 727 888 797 861 q 560 914 657 914 q 360 858 444 914 q 233 696 276 801 q 189 446 189 590 q 276 165 189 264 q 525 65 364 65 q 673 92 601 65 q 803 171 744 118 q 833 185 818 185 q 856 174 847 185 q 864 149 864 164 q 849 115 864 129 q 526 -11 718 -6 l 515 -61 q 550 -57 532 -57 q 622 -82 594 -57 q 649 -150 649 -107 q 606 -234 649 -203 q 492 -265 564 -265 q 392 -249 436 -265 q 371 -221 371 -242 q 380 -200 371 -208 q 403 -192 389 -192 q 414 -193 410 -192 q 493 -206 456 -206 q 556 -192 535 -206 q 578 -153 578 -178 q 565 -123 578 -133 q 529 -112 553 -112 q 489 -119 508 -112 q 464 -126 469 -126 q 445 -118 453 -126 q 439 -100 438 -110 l 457 -8 q 196 128 292 8 q 100 447 100 249 q 156 734 100 611 q 317 924 213 857 q 563 990 421 990 q 758 958 669 990 q 906 865 846 926 z "},"Ḉ":{"ha":940,"x_min":100,"x_max":919,"o":"m 626 1068 q 600 1056 614 1056 q 584 1062 590 1056 q 578 1078 578 1068 q 585 1097 578 1086 l 699 1256 q 742 1282 719 1282 q 768 1272 757 1282 q 779 1246 779 1261 q 761 1208 779 1226 l 626 1068 m 906 865 q 919 833 919 851 q 909 805 919 817 q 883 793 899 793 q 857 804 869 793 q 727 888 797 861 q 560 914 657 914 q 360 858 444 914 q 233 696 276 801 q 189 446 189 590 q 276 165 189 264 q 525 65 364 65 q 673 92 601 65 q 803 171 744 118 q 833 185 818 185 q 856 174 847 185 q 864 149 864 164 q 849 115 864 129 q 526 -11 718 -6 l 515 -61 q 550 -57 532 -57 q 622 -82 594 -57 q 649 -150 649 -107 q 606 -234 649 -203 q 492 -265 564 -265 q 392 -249 436 -265 q 371 -221 371 -242 q 380 -200 371 -208 q 403 -192 389 -192 q 414 -193 410 -192 q 493 -206 456 -206 q 556 -192 535 -206 q 578 -153 578 -178 q 565 -123 578 -133 q 529 -112 553 -112 q 489 -119 508 -112 q 464 -126 469 -126 q 445 -118 453 -126 q 439 -100 438 -110 l 457 -8 q 196 128 292 8 q 100 447 100 249 q 156 734 100 611 q 317 924 213 857 q 563 990 421 990 q 758 958 669 990 q 906 865 846 926 z "},"Ĉ":{"ha":940,"x_min":100,"x_max":919,"o":"m 507 -11 q 292 44 385 -11 q 150 202 200 99 q 100 447 100 306 q 156 734 100 611 q 317 924 213 857 q 563 990 421 990 q 758 958 669 990 q 906 865 846 926 q 919 833 919 851 q 909 805 919 817 q 883 793 899 793 q 857 804 869 793 q 727 888 797 861 q 560 914 657 914 q 360 858 444 914 q 233 696 276 801 q 189 446 189 590 q 276 165 189 264 q 525 65 364 65 q 673 92 601 65 q 803 171 744 118 q 833 185 818 185 q 856 174 847 185 q 864 149 864 164 q 849 115 864 129 q 507 -11 711 -11 m 492 1069 q 461 1053 479 1053 q 435 1064 446 1053 q 424 1089 424 1075 q 433 1113 424 1103 l 561 1257 q 610 1281 582 1281 q 653 1257 636 1281 l 753 1117 q 763 1090 763 1103 q 752 1066 763 1076 q 726 1056 742 1056 q 690 1079 704 1056 l 606 1213 l 492 1069 z "},"Ċ":{"ha":940,"x_min":100,"x_max":919,"o":"m 507 -11 q 292 44 385 -11 q 150 202 200 99 q 100 447 100 306 q 156 734 100 611 q 317 924 213 857 q 563 990 421 990 q 758 958 669 990 q 906 865 846 926 q 919 833 919 851 q 909 805 919 817 q 883 793 899 793 q 857 804 869 793 q 727 888 797 861 q 560 914 657 914 q 360 858 444 914 q 233 696 276 801 q 189 446 189 590 q 276 165 189 264 q 525 65 364 65 q 673 92 601 65 q 803 171 744 118 q 833 185 818 185 q 856 174 847 185 q 864 149 864 164 q 849 115 864 129 q 507 -11 711 -11 m 600 1108 q 555 1125 572 1108 q 538 1168 538 1142 q 555 1213 538 1196 q 600 1229 572 1229 q 645 1213 628 1229 q 663 1168 663 1196 q 645 1125 663 1142 q 600 1108 628 1108 z "},"D":{"ha":1015,"x_min":103,"x_max":940,"o":"m 151 0 q 116 15 129 0 q 106 51 103 29 l 174 936 q 188 967 175 956 q 221 979 201 979 l 485 979 q 822 863 704 979 q 940 532 940 746 q 883 247 940 367 q 715 64 825 128 q 450 0 606 0 l 151 0 m 447 75 q 748 194 646 75 q 850 533 850 313 q 482 904 850 904 l 257 904 l 192 75 l 447 75 z "},"Ǆ":{"ha":1806,"x_min":106,"x_max":1793,"o":"m 151 0 q 116 15 129 0 q 106 51 103 29 l 174 936 q 188 967 175 956 q 221 979 201 979 l 485 979 q 822 863 704 979 q 940 532 940 746 q 883 247 940 367 q 715 64 825 128 q 450 0 606 0 l 151 0 m 447 75 q 748 194 646 75 q 850 533 850 313 q 482 904 850 904 l 257 904 l 192 75 l 447 75 m 1760 979 q 1784 969 1775 979 q 1793 944 1793 958 q 1782 913 1793 925 l 1139 74 l 1701 74 q 1729 64 1719 74 q 1739 38 1739 54 q 1728 10 1739 21 q 1700 0 1718 0 l 1063 0 q 1036 10 1046 0 q 1026 38 1026 21 q 1036 67 1026 53 l 1681 906 l 1133 906 q 1106 916 1117 906 q 1096 942 1096 926 q 1106 969 1096 958 q 1135 979 1117 979 l 1760 979 m 1572 1264 q 1603 1281 1585 1281 q 1629 1269 1618 1281 q 1640 1244 1640 1258 q 1631 1221 1640 1231 l 1503 1076 q 1454 1053 1482 1053 q 1411 1076 1428 1053 l 1311 1218 q 1301 1244 1301 1232 q 1312 1268 1301 1258 q 1338 1278 1322 1278 q 1374 1256 1361 1278 l 1458 1121 l 1572 1264 z "},"Ð":{"ha":1028,"x_min":13,"x_max":951,"o":"m 497 979 q 834 863 717 979 q 951 532 951 746 q 894 247 951 367 q 728 64 838 128 q 463 0 618 0 l 164 0 q 128 15 142 0 q 117 51 115 29 l 149 461 l 56 461 q 24 471 35 461 q 13 497 13 481 q 24 522 13 513 q 54 532 35 532 l 154 532 l 186 936 q 200 967 188 956 q 232 979 213 979 l 497 979 m 460 75 q 760 194 658 75 q 863 533 863 313 q 493 904 863 904 l 269 904 l 240 532 l 472 532 q 514 497 514 532 q 503 471 514 481 q 474 461 493 461 l 235 461 l 204 75 l 460 75 z "},"Ď":{"ha":1015,"x_min":106,"x_max":940,"o":"m 151 0 q 116 15 129 0 q 106 51 103 29 l 174 936 q 188 967 175 956 q 221 979 201 979 l 485 979 q 822 863 704 979 q 940 532 940 746 q 883 247 940 367 q 715 64 825 128 q 450 0 606 0 l 151 0 m 447 75 q 748 194 646 75 q 850 533 850 313 q 482 904 850 904 l 257 904 l 192 75 l 447 75 m 681 1264 q 711 1281 693 1281 q 738 1269 726 1281 q 749 1244 749 1258 q 739 1221 749 1231 l 611 1076 q 563 1053 590 1053 q 519 1076 536 1053 l 419 1218 q 410 1244 410 1232 q 420 1268 410 1258 q 446 1278 431 1278 q 482 1256 469 1278 l 567 1121 l 681 1264 z "},"Đ":{"ha":1028,"x_min":13,"x_max":951,"o":"m 497 979 q 834 863 717 979 q 951 532 951 746 q 894 247 951 367 q 728 64 838 128 q 463 0 618 0 l 164 0 q 128 15 142 0 q 117 51 115 29 l 149 461 l 56 461 q 24 471 35 461 q 13 497 13 481 q 24 522 13 513 q 54 532 35 532 l 154 532 l 186 936 q 200 967 188 956 q 232 979 213 979 l 497 979 m 460 75 q 760 194 658 75 q 863 533 863 313 q 493 904 863 904 l 269 904 l 240 532 l 472 532 q 514 497 514 532 q 503 471 514 481 q 474 461 493 461 l 235 461 l 204 75 l 460 75 z "},"Ḍ":{"ha":1015,"x_min":106,"x_max":940,"o":"m 151 0 q 116 15 129 0 q 106 51 103 29 l 174 936 q 188 967 175 956 q 221 979 201 979 l 485 979 q 822 863 704 979 q 940 532 940 746 q 883 247 940 367 q 715 64 825 128 q 450 0 606 0 l 151 0 m 447 75 q 748 194 646 75 q 850 533 850 313 q 482 904 850 904 l 257 904 l 192 75 l 447 75 m 467 -254 q 423 -237 440 -254 q 406 -193 406 -221 q 423 -150 406 -167 q 467 -133 440 -133 q 510 -150 493 -133 q 528 -193 528 -167 q 510 -237 528 -221 q 467 -254 493 -254 z "},"Ḏ":{"ha":1015,"x_min":106,"x_max":940,"o":"m 151 0 q 116 15 129 0 q 106 51 103 29 l 174 936 q 188 967 175 956 q 221 979 201 979 l 485 979 q 822 863 704 979 q 940 532 940 746 q 883 247 940 367 q 715 64 825 128 q 450 0 606 0 l 151 0 m 447 75 q 748 194 646 75 q 850 533 850 313 q 482 904 850 904 l 257 904 l 192 75 l 447 75 m 296 -229 q 265 -220 275 -229 q 254 -194 254 -211 q 267 -167 254 -176 q 300 -158 279 -158 l 638 -158 q 679 -193 679 -158 q 667 -219 679 -210 q 633 -229 654 -229 l 296 -229 z "},"ǅ":{"ha":1708,"x_min":106,"x_max":1665,"o":"m 151 0 q 116 15 129 0 q 106 51 103 29 l 174 936 q 188 967 175 956 q 221 979 201 979 l 485 979 q 822 863 704 979 q 940 532 940 746 q 883 247 940 367 q 715 64 825 128 q 450 0 606 0 l 151 0 m 447 75 q 748 194 646 75 q 850 533 850 313 q 482 904 850 904 l 257 904 l 192 75 l 447 75 m 1632 674 q 1656 664 1647 674 q 1665 640 1665 654 q 1651 607 1665 624 l 1175 69 l 1596 69 q 1622 60 1613 69 q 1632 35 1632 50 q 1622 10 1632 19 q 1594 0 1611 0 l 1085 0 q 1060 9 1069 0 q 1051 32 1051 18 q 1065 63 1051 49 l 1547 606 l 1151 606 q 1126 615 1135 606 q 1117 640 1117 625 q 1126 665 1117 656 q 1153 674 1136 674 l 1632 674 m 1519 1028 q 1535 1044 1525 1039 q 1553 1050 1544 1050 q 1578 1040 1568 1050 q 1589 1014 1589 1029 q 1581 989 1589 1001 l 1449 788 q 1400 757 1428 757 q 1357 788 1371 757 l 1257 990 q 1253 1010 1253 1001 q 1265 1039 1253 1026 q 1293 1051 1278 1051 q 1324 1028 1314 1051 l 1406 833 l 1519 1028 z "},"E":{"ha":804,"x_min":103,"x_max":786,"o":"m 749 979 q 776 969 765 979 q 786 943 786 958 q 776 916 786 926 q 747 906 765 906 l 257 906 l 228 535 l 686 535 q 713 524 703 535 q 724 497 724 514 q 713 470 724 481 q 685 460 703 460 l 222 460 l 192 74 l 678 74 q 705 63 694 74 q 715 38 715 53 q 705 10 715 21 q 676 0 694 0 l 146 0 q 113 12 124 0 q 104 46 103 24 l 174 938 q 219 979 176 979 l 749 979 z "},"É":{"ha":804,"x_min":104,"x_max":786,"o":"m 749 979 q 776 969 765 979 q 786 943 786 958 q 776 916 786 926 q 747 906 765 906 l 257 906 l 228 535 l 686 535 q 713 524 703 535 q 724 497 724 514 q 713 470 724 481 q 685 460 703 460 l 222 460 l 192 74 l 678 74 q 705 63 694 74 q 715 38 715 53 q 705 10 715 21 q 676 0 694 0 l 146 0 q 113 12 124 0 q 104 46 103 24 l 174 938 q 219 979 176 979 l 749 979 m 540 1068 q 514 1056 528 1056 q 498 1062 504 1056 q 492 1078 492 1068 q 499 1097 492 1086 l 613 1256 q 656 1282 633 1282 q 682 1272 671 1282 q 693 1246 693 1261 q 675 1208 693 1226 l 540 1068 z "},"Ĕ":{"ha":804,"x_min":104,"x_max":786,"o":"m 749 979 q 776 969 765 979 q 786 943 786 958 q 776 916 786 926 q 747 906 765 906 l 257 906 l 228 535 l 686 535 q 713 524 703 535 q 724 497 724 514 q 713 470 724 481 q 685 460 703 460 l 222 460 l 192 74 l 678 74 q 705 63 694 74 q 715 38 715 53 q 705 10 715 21 q 676 0 694 0 l 146 0 q 113 12 124 0 q 104 46 103 24 l 174 938 q 219 979 176 979 l 749 979 m 507 1081 q 386 1111 438 1081 q 308 1203 335 1142 q 304 1222 304 1214 q 315 1245 304 1236 q 338 1254 325 1254 q 374 1232 361 1254 q 430 1168 397 1188 q 510 1149 463 1149 q 594 1168 557 1149 q 660 1232 631 1188 q 679 1249 668 1243 q 700 1256 690 1256 q 723 1248 714 1256 q 732 1226 732 1240 q 725 1203 732 1214 q 633 1111 690 1142 q 507 1081 576 1081 z "},"Ě":{"ha":804,"x_min":104,"x_max":786,"o":"m 749 979 q 776 969 765 979 q 786 943 786 958 q 776 916 786 926 q 747 906 765 906 l 257 906 l 228 535 l 686 535 q 713 524 703 535 q 724 497 724 514 q 713 470 724 481 q 685 460 703 460 l 222 460 l 192 74 l 678 74 q 705 63 694 74 q 715 38 715 53 q 705 10 715 21 q 676 0 694 0 l 146 0 q 113 12 124 0 q 104 46 103 24 l 174 938 q 219 979 176 979 l 749 979 m 621 1264 q 651 1281 633 1281 q 678 1269 667 1281 q 689 1244 689 1258 q 679 1221 689 1231 l 551 1076 q 503 1053 531 1053 q 460 1076 476 1053 l 360 1218 q 350 1244 350 1232 q 360 1268 350 1258 q 386 1278 371 1278 q 422 1256 410 1278 l 507 1121 l 621 1264 z "},"Ȩ":{"ha":804,"x_min":103,"x_max":786,"o":"m 749 979 q 776 969 765 979 q 786 943 786 958 q 776 916 786 926 q 747 906 765 906 l 257 906 l 228 535 l 686 535 q 713 524 703 535 q 724 497 724 514 q 713 470 724 481 q 685 460 703 460 l 222 460 l 192 74 l 678 74 q 705 63 694 74 q 715 38 715 53 q 705 10 715 21 q 676 0 694 0 l 443 0 l 431 -61 q 465 -57 447 -57 q 537 -82 510 -57 q 564 -150 564 -107 q 522 -234 564 -203 q 407 -265 479 -265 q 307 -249 351 -265 q 286 -221 286 -242 q 295 -200 286 -208 q 318 -192 304 -192 q 329 -193 325 -192 q 408 -206 371 -206 q 472 -192 450 -206 q 493 -153 493 -178 q 481 -123 493 -133 q 444 -112 468 -112 q 404 -119 424 -112 q 379 -126 385 -126 q 360 -118 368 -126 q 354 -100 353 -110 l 374 0 l 146 0 q 113 12 124 0 q 104 46 103 24 l 174 938 q 219 979 176 979 l 749 979 z "},"Ḝ":{"ha":804,"x_min":103,"x_max":786,"o":"m 507 1081 q 386 1111 438 1081 q 308 1203 335 1142 q 304 1222 304 1214 q 315 1245 304 1236 q 338 1254 325 1254 q 374 1232 361 1254 q 430 1168 397 1188 q 510 1149 463 1149 q 594 1168 557 1149 q 660 1232 631 1188 q 679 1249 668 1243 q 700 1256 690 1256 q 723 1248 714 1256 q 732 1226 732 1240 q 725 1203 732 1214 q 633 1111 690 1142 q 507 1081 576 1081 m 749 979 q 776 969 765 979 q 786 943 786 958 q 776 916 786 926 q 747 906 765 906 l 257 906 l 228 535 l 686 535 q 713 524 703 535 q 724 497 724 514 q 713 470 724 481 q 685 460 703 460 l 222 460 l 192 74 l 678 74 q 705 63 694 74 q 715 38 715 53 q 705 10 715 21 q 676 0 694 0 l 443 0 l 431 -61 q 465 -57 447 -57 q 537 -82 510 -57 q 564 -150 564 -107 q 522 -234 564 -203 q 407 -265 479 -265 q 307 -249 351 -265 q 286 -221 286 -242 q 295 -200 286 -208 q 318 -192 304 -192 q 329 -193 325 -192 q 408 -206 371 -206 q 472 -192 450 -206 q 493 -153 493 -178 q 481 -123 493 -133 q 444 -112 468 -112 q 404 -119 424 -112 q 379 -126 385 -126 q 360 -118 368 -126 q 354 -100 353 -110 l 374 0 l 146 0 q 113 12 124 0 q 104 46 103 24 l 174 938 q 219 979 176 979 l 749 979 z "},"Ê":{"ha":804,"x_min":104,"x_max":786,"o":"m 749 979 q 776 969 765 979 q 786 943 786 958 q 776 916 786 926 q 747 906 765 906 l 257 906 l 228 535 l 686 535 q 713 524 703 535 q 724 497 724 514 q 713 470 724 481 q 685 460 703 460 l 222 460 l 192 74 l 678 74 q 705 63 694 74 q 715 38 715 53 q 705 10 715 21 q 676 0 694 0 l 146 0 q 113 12 124 0 q 104 46 103 24 l 174 938 q 219 979 176 979 l 749 979 m 406 1069 q 375 1053 393 1053 q 349 1064 360 1053 q 338 1089 338 1075 q 347 1113 338 1103 l 475 1257 q 524 1281 496 1281 q 567 1257 550 1281 l 667 1117 q 676 1090 676 1103 q 666 1066 676 1076 q 640 1056 656 1056 q 604 1079 618 1056 l 519 1213 l 406 1069 z "},"Ế":{"ha":804,"x_min":104,"x_max":844,"o":"m 749 979 q 776 969 765 979 q 786 943 786 958 q 776 916 786 926 q 747 906 765 906 l 257 906 l 228 535 l 686 535 q 713 524 703 535 q 724 497 724 514 q 713 470 724 481 q 685 460 703 460 l 222 460 l 192 74 l 678 74 q 705 63 694 74 q 715 38 715 53 q 705 10 715 21 q 676 0 694 0 l 146 0 q 113 12 124 0 q 104 46 103 24 l 174 938 q 219 979 176 979 l 749 979 m 689 1207 q 668 1199 681 1199 q 652 1205 658 1199 q 646 1221 646 1211 q 653 1239 646 1228 l 763 1386 q 804 1410 781 1410 q 833 1399 821 1410 q 844 1374 844 1389 q 824 1333 844 1353 l 689 1207 m 404 1068 q 375 1053 393 1053 q 350 1064 361 1053 q 339 1090 339 1075 q 347 1113 339 1103 l 475 1256 q 524 1279 496 1279 q 567 1256 551 1279 l 667 1117 q 676 1090 676 1103 q 666 1066 676 1076 q 642 1056 656 1056 q 606 1078 618 1056 l 519 1211 l 404 1068 z "},"Ệ":{"ha":804,"x_min":104,"x_max":786,"o":"m 749 979 q 776 969 765 979 q 786 943 786 958 q 776 916 786 926 q 747 906 765 906 l 257 906 l 228 535 l 686 535 q 713 524 703 535 q 724 497 724 514 q 713 470 724 481 q 685 460 703 460 l 222 460 l 192 74 l 678 74 q 705 63 694 74 q 715 38 715 53 q 705 10 715 21 q 676 0 694 0 l 146 0 q 113 12 124 0 q 104 46 103 24 l 174 938 q 219 979 176 979 l 749 979 m 406 -254 q 362 -237 379 -254 q 344 -193 344 -221 q 362 -150 344 -167 q 406 -133 379 -133 q 449 -150 432 -133 q 467 -193 467 -167 q 449 -237 467 -221 q 406 -254 432 -254 m 406 1069 q 375 1053 393 1053 q 349 1064 360 1053 q 338 1089 338 1075 q 347 1113 338 1103 l 475 1257 q 524 1281 496 1281 q 567 1257 550 1281 l 667 1117 q 676 1090 676 1103 q 666 1066 676 1076 q 640 1056 656 1056 q 604 1079 618 1056 l 519 1213 l 406 1069 z "},"Ề":{"ha":804,"x_min":104,"x_max":786,"o":"m 749 979 q 776 969 765 979 q 786 943 786 958 q 776 916 786 926 q 747 906 765 906 l 257 906 l 228 535 l 686 535 q 713 524 703 535 q 724 497 724 514 q 713 470 724 481 q 685 460 703 460 l 222 460 l 192 74 l 678 74 q 705 63 694 74 q 715 38 715 53 q 705 10 715 21 q 676 0 694 0 l 146 0 q 113 12 124 0 q 104 46 103 24 l 174 938 q 219 979 176 979 l 749 979 m 731 1226 q 722 1208 731 1215 q 704 1201 714 1201 q 685 1213 690 1201 l 603 1343 q 594 1371 594 1358 q 606 1400 594 1389 q 635 1411 618 1411 q 678 1376 665 1411 l 729 1232 l 731 1226 m 404 1068 q 375 1053 393 1053 q 350 1064 361 1053 q 339 1090 339 1075 q 347 1113 339 1103 l 475 1256 q 524 1279 496 1279 q 567 1256 551 1279 l 667 1117 q 676 1090 676 1103 q 666 1066 676 1076 q 642 1056 656 1056 q 606 1078 618 1056 l 519 1211 l 404 1068 z "},"Ể":{"ha":804,"x_min":104,"x_max":811,"o":"m 749 979 q 776 969 765 979 q 786 943 786 958 q 776 916 786 926 q 747 906 765 906 l 257 906 l 228 535 l 686 535 q 713 524 703 535 q 724 497 724 514 q 713 470 724 481 q 685 460 703 460 l 222 460 l 192 74 l 678 74 q 705 63 694 74 q 715 38 715 53 q 705 10 715 21 q 676 0 694 0 l 146 0 q 113 12 124 0 q 104 46 103 24 l 174 938 q 219 979 176 979 l 749 979 m 694 1221 q 684 1203 693 1210 q 664 1197 675 1197 q 643 1206 651 1197 q 635 1229 635 1214 q 650 1264 635 1251 q 694 1289 665 1276 q 724 1305 715 1299 q 733 1321 733 1311 q 717 1340 733 1333 q 675 1346 701 1346 q 601 1336 642 1346 q 590 1335 597 1335 q 571 1342 578 1335 q 564 1360 564 1349 q 589 1392 564 1382 q 682 1408 631 1408 q 777 1387 743 1408 q 811 1329 811 1365 q 793 1285 811 1300 q 742 1256 775 1271 q 708 1239 719 1246 q 694 1221 697 1232 m 404 1068 q 375 1053 393 1053 q 350 1064 361 1053 q 339 1090 339 1075 q 347 1113 339 1103 l 475 1256 q 524 1279 496 1279 q 567 1256 551 1279 l 667 1117 q 676 1090 676 1103 q 666 1066 676 1076 q 642 1056 656 1056 q 606 1078 618 1056 l 519 1211 l 404 1068 z "},"Ễ":{"ha":804,"x_min":104,"x_max":786,"o":"m 749 979 q 776 969 765 979 q 786 943 786 958 q 776 916 786 926 q 747 906 765 906 l 257 906 l 228 535 l 686 535 q 713 524 703 535 q 724 497 724 514 q 713 470 724 481 q 685 460 703 460 l 222 460 l 192 74 l 678 74 q 705 63 694 74 q 715 38 715 53 q 705 10 715 21 q 676 0 694 0 l 146 0 q 113 12 124 0 q 104 46 103 24 l 174 938 q 219 979 176 979 l 749 979 m 336 1296 q 319 1304 325 1296 q 313 1325 313 1313 q 328 1369 313 1346 q 373 1407 344 1392 q 438 1422 401 1422 q 485 1414 461 1422 q 546 1390 510 1406 q 625 1364 601 1364 q 665 1374 650 1364 q 693 1400 679 1383 q 707 1414 700 1408 q 721 1419 714 1419 q 739 1411 732 1419 q 746 1392 746 1403 q 729 1347 746 1371 q 684 1308 713 1324 q 619 1293 656 1293 q 572 1301 596 1293 q 511 1325 547 1310 q 432 1351 456 1351 q 393 1342 407 1351 q 363 1315 379 1333 q 336 1296 349 1296 m 404 1068 q 375 1053 393 1053 q 350 1064 361 1053 q 339 1090 339 1075 q 347 1113 339 1103 l 475 1256 q 524 1279 496 1279 q 567 1256 551 1279 l 667 1117 q 676 1090 676 1103 q 666 1066 676 1076 q 642 1056 656 1056 q 606 1078 618 1056 l 519 1211 l 404 1068 z "},"Ȅ":{"ha":804,"x_min":104,"x_max":786,"o":"m 749 979 q 776 969 765 979 q 786 943 786 958 q 776 916 786 926 q 747 906 765 906 l 257 906 l 228 535 l 686 535 q 713 524 703 535 q 724 497 724 514 q 713 470 724 481 q 685 460 703 460 l 222 460 l 192 74 l 678 74 q 705 63 694 74 q 715 38 715 53 q 705 10 715 21 q 676 0 694 0 l 146 0 q 113 12 124 0 q 104 46 103 24 l 174 938 q 219 979 176 979 l 749 979 m 308 1218 q 303 1239 303 1228 q 315 1267 303 1256 q 343 1279 328 1279 q 379 1247 368 1279 l 440 1088 q 442 1079 442 1085 q 435 1063 442 1069 q 419 1056 428 1056 q 400 1068 408 1056 l 308 1218 m 468 1218 q 461 1240 461 1229 q 473 1268 461 1257 q 501 1279 485 1279 q 539 1247 528 1279 l 599 1088 q 600 1078 600 1083 q 594 1062 600 1068 q 579 1056 588 1056 q 560 1068 568 1056 l 468 1218 z "},"Ë":{"ha":804,"x_min":104,"x_max":786,"o":"m 749 979 q 776 969 765 979 q 786 943 786 958 q 776 916 786 926 q 747 906 765 906 l 257 906 l 228 535 l 686 535 q 713 524 703 535 q 724 497 724 514 q 713 470 724 481 q 685 460 703 460 l 222 460 l 192 74 l 678 74 q 705 63 694 74 q 715 38 715 53 q 705 10 715 21 q 676 0 694 0 l 146 0 q 113 12 124 0 q 104 46 103 24 l 174 938 q 219 979 176 979 l 749 979 m 399 1111 q 357 1127 374 1111 q 340 1168 340 1143 q 357 1209 340 1193 q 399 1225 374 1225 q 441 1209 424 1225 q 458 1168 458 1193 q 441 1127 458 1143 q 399 1111 424 1111 m 629 1111 q 587 1127 604 1111 q 569 1168 569 1143 q 587 1209 569 1193 q 629 1225 604 1225 q 671 1209 654 1225 q 688 1168 688 1193 q 671 1127 688 1143 q 629 1111 654 1111 z "},"Ė":{"ha":804,"x_min":104,"x_max":786,"o":"m 749 979 q 776 969 765 979 q 786 943 786 958 q 776 916 786 926 q 747 906 765 906 l 257 906 l 228 535 l 686 535 q 713 524 703 535 q 724 497 724 514 q 713 470 724 481 q 685 460 703 460 l 222 460 l 192 74 l 678 74 q 705 63 694 74 q 715 38 715 53 q 705 10 715 21 q 676 0 694 0 l 146 0 q 113 12 124 0 q 104 46 103 24 l 174 938 q 219 979 176 979 l 749 979 m 514 1108 q 469 1125 486 1108 q 451 1168 451 1142 q 469 1213 451 1196 q 514 1229 486 1229 q 559 1213 542 1229 q 576 1168 576 1196 q 559 1125 576 1142 q 514 1108 542 1108 z "},"Ẹ":{"ha":804,"x_min":104,"x_max":786,"o":"m 749 979 q 776 969 765 979 q 786 943 786 958 q 776 916 786 926 q 747 906 765 906 l 257 906 l 228 535 l 686 535 q 713 524 703 535 q 724 497 724 514 q 713 470 724 481 q 685 460 703 460 l 222 460 l 192 74 l 678 74 q 705 63 694 74 q 715 38 715 53 q 705 10 715 21 q 676 0 694 0 l 146 0 q 113 12 124 0 q 104 46 103 24 l 174 938 q 219 979 176 979 l 749 979 m 406 -254 q 362 -237 379 -254 q 344 -193 344 -221 q 362 -150 344 -167 q 406 -133 379 -133 q 449 -150 432 -133 q 467 -193 467 -167 q 449 -237 467 -221 q 406 -254 432 -254 z "},"È":{"ha":804,"x_min":104,"x_max":786,"o":"m 749 979 q 776 969 765 979 q 786 943 786 958 q 776 916 786 926 q 747 906 765 906 l 257 906 l 228 535 l 686 535 q 713 524 703 535 q 724 497 724 514 q 713 470 724 481 q 685 460 703 460 l 222 460 l 192 74 l 678 74 q 705 63 694 74 q 715 38 715 53 q 705 10 715 21 q 676 0 694 0 l 146 0 q 113 12 124 0 q 104 46 103 24 l 174 938 q 219 979 176 979 l 749 979 m 354 1217 q 343 1247 343 1232 q 354 1273 343 1263 q 381 1283 365 1283 q 421 1257 406 1283 l 515 1094 q 519 1079 519 1086 q 513 1063 519 1069 q 494 1056 506 1056 q 469 1068 481 1056 l 354 1217 z "},"Ẻ":{"ha":804,"x_min":104,"x_max":786,"o":"m 749 979 q 776 969 765 979 q 786 943 786 958 q 776 916 786 926 q 747 906 765 906 l 257 906 l 228 535 l 686 535 q 713 524 703 535 q 724 497 724 514 q 713 470 724 481 q 685 460 703 460 l 222 460 l 192 74 l 678 74 q 705 63 694 74 q 715 38 715 53 q 705 10 715 21 q 676 0 694 0 l 146 0 q 113 12 124 0 q 104 46 103 24 l 174 938 q 219 979 176 979 l 749 979 m 542 1079 q 531 1062 540 1068 q 508 1056 521 1056 q 485 1065 494 1056 q 476 1089 475 1074 q 494 1125 478 1111 q 536 1153 510 1139 q 567 1171 557 1163 q 576 1190 576 1179 q 521 1215 576 1215 q 447 1204 485 1215 q 436 1203 443 1203 q 416 1210 424 1203 q 408 1229 408 1218 q 433 1261 408 1251 q 528 1278 476 1278 q 620 1256 586 1278 q 654 1196 654 1233 q 637 1149 654 1165 q 588 1118 619 1133 q 556 1099 567 1107 q 542 1079 544 1092 z "},"Ȇ":{"ha":804,"x_min":104,"x_max":786,"o":"m 749 979 q 776 969 765 979 q 786 943 786 958 q 776 916 786 926 q 747 906 765 906 l 257 906 l 228 535 l 686 535 q 713 524 703 535 q 724 497 724 514 q 713 470 724 481 q 685 460 703 460 l 222 460 l 192 74 l 678 74 q 705 63 694 74 q 715 38 715 53 q 705 10 715 21 q 676 0 694 0 l 146 0 q 113 12 124 0 q 104 46 103 24 l 174 938 q 219 979 176 979 l 749 979 m 519 1256 q 641 1225 589 1256 q 718 1133 693 1194 q 722 1114 722 1124 q 713 1090 722 1100 q 689 1081 703 1081 q 653 1104 667 1081 q 596 1167 629 1147 q 517 1188 563 1188 q 434 1167 469 1188 q 367 1104 399 1147 q 326 1081 351 1081 q 303 1088 313 1081 q 294 1110 294 1096 q 301 1133 294 1124 q 393 1224 336 1193 q 519 1256 450 1256 z "},"Ē":{"ha":804,"x_min":104,"x_max":786,"o":"m 749 979 q 776 969 765 979 q 786 943 786 958 q 776 916 786 926 q 747 906 765 906 l 257 906 l 228 535 l 686 535 q 713 524 703 535 q 724 497 724 514 q 713 470 724 481 q 685 460 703 460 l 222 460 l 192 74 l 678 74 q 705 63 694 74 q 715 38 715 53 q 705 10 715 21 q 676 0 694 0 l 146 0 q 113 12 124 0 q 104 46 103 24 l 174 938 q 219 979 176 979 l 749 979 m 343 1132 q 312 1142 322 1132 q 301 1168 301 1151 q 314 1195 301 1186 q 347 1204 326 1204 l 685 1204 q 726 1168 726 1204 q 714 1142 726 1151 q 681 1132 701 1132 l 343 1132 z "},"Ḗ":{"ha":804,"x_min":104,"x_max":786,"o":"m 749 979 q 776 969 765 979 q 786 943 786 958 q 776 916 786 926 q 747 906 765 906 l 257 906 l 228 535 l 686 535 q 713 524 703 535 q 724 497 724 514 q 713 470 724 481 q 685 460 703 460 l 222 460 l 192 74 l 678 74 q 705 63 694 74 q 715 38 715 53 q 705 10 715 21 q 676 0 694 0 l 146 0 q 113 12 124 0 q 104 46 103 24 l 174 938 q 219 979 176 979 l 749 979 m 343 1132 q 312 1142 322 1132 q 301 1168 301 1151 q 314 1195 301 1186 q 347 1204 326 1204 l 685 1204 q 726 1168 726 1204 q 714 1142 726 1151 q 681 1132 701 1132 l 343 1132 m 558 1290 q 532 1278 546 1278 q 516 1284 522 1278 q 510 1300 510 1290 q 517 1319 510 1308 l 631 1478 q 674 1504 651 1504 q 700 1494 689 1504 q 711 1468 711 1483 q 693 1431 711 1449 l 558 1290 z "},"Ḕ":{"ha":804,"x_min":104,"x_max":786,"o":"m 749 979 q 776 969 765 979 q 786 943 786 958 q 776 916 786 926 q 747 906 765 906 l 257 906 l 228 535 l 686 535 q 713 524 703 535 q 724 497 724 514 q 713 470 724 481 q 685 460 703 460 l 222 460 l 192 74 l 678 74 q 705 63 694 74 q 715 38 715 53 q 705 10 715 21 q 676 0 694 0 l 146 0 q 113 12 124 0 q 104 46 103 24 l 174 938 q 219 979 176 979 l 749 979 m 343 1132 q 312 1142 322 1132 q 301 1168 301 1151 q 314 1195 301 1186 q 347 1204 326 1204 l 685 1204 q 726 1168 726 1204 q 714 1142 726 1151 q 681 1132 701 1132 l 343 1132 m 372 1439 q 361 1469 361 1454 q 372 1495 361 1485 q 399 1506 383 1506 q 439 1479 424 1506 l 533 1317 q 538 1301 538 1308 q 531 1285 538 1292 q 513 1278 524 1278 q 488 1290 499 1278 l 372 1439 z "},"Ę":{"ha":804,"x_min":103,"x_max":786,"o":"m 749 979 q 776 969 765 979 q 786 943 786 958 q 776 916 786 926 q 747 906 765 906 l 257 906 l 228 535 l 686 535 q 713 524 703 535 q 724 497 724 514 q 713 470 724 481 q 685 460 703 460 l 222 460 l 192 74 l 678 74 q 705 63 694 74 q 715 38 715 53 q 706 11 715 21 q 679 0 696 1 q 578 -35 611 -1 q 544 -118 544 -68 q 567 -181 544 -160 q 629 -203 589 -203 q 697 -185 660 -203 q 715 -181 708 -181 q 732 -187 726 -181 q 738 -206 738 -194 q 732 -226 738 -215 q 715 -242 726 -236 q 617 -265 669 -265 q 509 -228 550 -265 q 468 -132 468 -192 q 529 0 468 -53 l 146 0 q 113 12 124 0 q 104 46 103 24 l 174 938 q 219 979 176 979 l 749 979 z "},"Ẽ":{"ha":804,"x_min":104,"x_max":786,"o":"m 749 979 q 776 969 765 979 q 786 943 786 958 q 776 916 786 926 q 747 906 765 906 l 257 906 l 228 535 l 686 535 q 713 524 703 535 q 724 497 724 514 q 713 470 724 481 q 685 460 703 460 l 222 460 l 192 74 l 678 74 q 705 63 694 74 q 715 38 715 53 q 705 10 715 21 q 676 0 694 0 l 146 0 q 113 12 124 0 q 104 46 103 24 l 174 938 q 219 979 176 979 l 749 979 m 604 1100 q 497 1136 564 1100 q 455 1156 476 1147 q 418 1164 433 1164 q 377 1153 392 1164 q 347 1124 363 1143 q 321 1104 332 1104 q 303 1113 310 1104 q 297 1133 297 1121 q 314 1180 297 1156 q 359 1221 331 1204 q 424 1238 388 1238 q 531 1201 464 1238 q 573 1182 551 1190 q 610 1174 594 1174 q 651 1184 636 1174 q 681 1214 665 1194 q 692 1228 686 1222 q 706 1235 699 1235 q 724 1226 717 1235 q 731 1206 731 1218 q 714 1158 731 1183 q 668 1117 697 1133 q 604 1100 639 1100 z "},"F":{"ha":768,"x_min":101,"x_max":772,"o":"m 735 979 q 762 969 751 979 q 772 943 772 958 q 762 916 772 926 q 733 906 751 906 l 257 906 l 228 535 l 672 535 q 699 524 689 535 q 710 497 710 514 q 699 470 710 481 q 671 460 689 460 l 221 460 l 188 33 q 174 3 186 14 q 144 -7 163 -7 q 114 6 126 -7 q 103 38 101 18 l 174 938 q 188 969 175 958 q 221 979 200 979 l 735 979 z "},"G":{"ha":999,"x_min":99,"x_max":924,"o":"m 579 914 q 369 857 457 914 q 234 693 281 800 q 188 439 188 586 q 276 161 188 258 q 540 64 365 64 q 667 76 601 64 q 788 108 733 88 l 813 429 l 593 429 q 563 439 574 429 q 551 465 551 449 q 563 492 551 482 q 593 501 574 501 l 846 501 q 881 488 868 501 q 892 451 893 474 l 865 92 q 832 44 861 56 q 692 4 772 19 q 540 -11 611 -11 q 213 106 326 -11 q 99 433 99 224 q 158 727 99 601 q 325 921 217 853 q 579 989 433 989 q 906 871 783 989 q 924 832 924 857 q 913 803 924 815 q 889 792 903 792 q 863 803 876 792 q 731 888 799 861 q 579 914 664 914 z "},"Ğ":{"ha":999,"x_min":99,"x_max":924,"o":"m 579 914 q 369 857 457 914 q 234 693 281 800 q 188 439 188 586 q 276 161 188 258 q 540 64 365 64 q 667 76 601 64 q 788 108 733 88 l 813 429 l 593 429 q 563 439 574 429 q 551 465 551 449 q 563 492 551 482 q 593 501 574 501 l 846 501 q 881 488 868 501 q 892 451 893 474 l 865 92 q 832 44 861 56 q 692 4 772 19 q 540 -11 611 -11 q 213 106 326 -11 q 99 433 99 224 q 158 727 99 601 q 325 921 217 853 q 579 989 433 989 q 906 871 783 989 q 924 832 924 857 q 913 803 924 815 q 889 792 903 792 q 863 803 876 792 q 731 888 799 861 q 579 914 664 914 m 599 1081 q 478 1111 529 1081 q 400 1203 426 1142 q 396 1222 396 1214 q 406 1245 396 1236 q 429 1254 417 1254 q 465 1232 453 1254 q 522 1168 489 1188 q 601 1149 554 1149 q 685 1168 649 1149 q 751 1232 722 1188 q 771 1249 760 1243 q 792 1256 782 1256 q 815 1248 806 1256 q 824 1226 824 1240 q 817 1203 824 1214 q 725 1111 782 1142 q 599 1081 668 1081 z "},"Ǧ":{"ha":999,"x_min":99,"x_max":924,"o":"m 579 914 q 369 857 457 914 q 234 693 281 800 q 188 439 188 586 q 276 161 188 258 q 540 64 365 64 q 667 76 601 64 q 788 108 733 88 l 813 429 l 593 429 q 563 439 574 429 q 551 465 551 449 q 563 492 551 482 q 593 501 574 501 l 846 501 q 881 488 868 501 q 892 451 893 474 l 865 92 q 832 44 861 56 q 692 4 772 19 q 540 -11 611 -11 q 213 106 326 -11 q 99 433 99 224 q 158 727 99 601 q 325 921 217 853 q 579 989 433 989 q 906 871 783 989 q 924 832 924 857 q 913 803 924 815 q 889 792 903 792 q 863 803 876 792 q 731 888 799 861 q 579 914 664 914 m 713 1264 q 743 1281 725 1281 q 769 1269 758 1281 q 781 1244 781 1258 q 771 1221 781 1231 l 643 1076 q 594 1053 622 1053 q 551 1076 568 1053 l 451 1218 q 442 1244 442 1232 q 452 1268 442 1258 q 478 1278 463 1278 q 514 1256 501 1278 l 599 1121 l 713 1264 z "},"Ĝ":{"ha":999,"x_min":99,"x_max":924,"o":"m 579 914 q 369 857 457 914 q 234 693 281 800 q 188 439 188 586 q 276 161 188 258 q 540 64 365 64 q 667 76 601 64 q 788 108 733 88 l 813 429 l 593 429 q 563 439 574 429 q 551 465 551 449 q 563 492 551 482 q 593 501 574 501 l 846 501 q 881 488 868 501 q 892 451 893 474 l 865 92 q 832 44 861 56 q 692 4 772 19 q 540 -11 611 -11 q 213 106 326 -11 q 99 433 99 224 q 158 727 99 601 q 325 921 217 853 q 579 989 433 989 q 906 871 783 989 q 924 832 924 857 q 913 803 924 815 q 889 792 903 792 q 863 803 876 792 q 731 888 799 861 q 579 914 664 914 m 497 1069 q 467 1053 485 1053 q 440 1064 451 1053 q 429 1089 429 1075 q 439 1113 429 1103 l 567 1257 q 615 1281 588 1281 q 658 1257 642 1281 l 758 1117 q 768 1090 768 1103 q 758 1066 768 1076 q 732 1056 747 1056 q 696 1079 710 1056 l 611 1213 l 497 1069 z "},"Ģ":{"ha":999,"x_min":99,"x_max":924,"o":"m 579 914 q 369 857 457 914 q 234 693 281 800 q 188 439 188 586 q 276 161 188 258 q 540 64 365 64 q 667 76 601 64 q 788 108 733 88 l 813 429 l 593 429 q 563 439 574 429 q 551 465 551 449 q 563 492 551 482 q 593 501 574 501 l 846 501 q 881 488 868 501 q 892 451 893 474 l 865 92 q 832 44 861 56 q 692 4 772 19 q 540 -11 611 -11 q 213 106 326 -11 q 99 433 99 224 q 158 727 99 601 q 325 921 217 853 q 579 989 433 989 q 906 871 783 989 q 924 832 924 857 q 913 803 924 815 q 889 792 903 792 q 863 803 876 792 q 731 888 799 861 q 579 914 664 914 m 514 -96 q 560 -114 543 -96 q 576 -168 576 -132 q 559 -256 576 -212 q 504 -336 542 -299 q 474 -351 489 -351 q 456 -344 463 -351 q 449 -328 449 -337 q 460 -304 449 -318 q 510 -212 499 -261 q 467 -198 483 -212 q 451 -158 451 -183 q 469 -114 451 -132 q 514 -96 486 -96 z "},"Ġ":{"ha":999,"x_min":99,"x_max":924,"o":"m 579 914 q 369 857 457 914 q 234 693 281 800 q 188 439 188 586 q 276 161 188 258 q 540 64 365 64 q 667 76 601 64 q 788 108 733 88 l 813 429 l 593 429 q 563 439 574 429 q 551 465 551 449 q 563 492 551 482 q 593 501 574 501 l 846 501 q 881 488 868 501 q 892 451 893 474 l 865 92 q 832 44 861 56 q 692 4 772 19 q 540 -11 611 -11 q 213 106 326 -11 q 99 433 99 224 q 158 727 99 601 q 325 921 217 853 q 579 989 433 989 q 906 871 783 989 q 924 832 924 857 q 913 803 924 815 q 889 792 903 792 q 863 803 876 792 q 731 888 799 861 q 579 914 664 914 m 606 1108 q 560 1125 578 1108 q 543 1168 543 1142 q 560 1213 543 1196 q 606 1229 578 1229 q 651 1213 633 1229 q 668 1168 668 1196 q 651 1125 668 1142 q 606 1108 633 1108 z "},"Ḡ":{"ha":999,"x_min":99,"x_max":924,"o":"m 579 914 q 369 857 457 914 q 234 693 281 800 q 188 439 188 586 q 276 161 188 258 q 540 64 365 64 q 667 76 601 64 q 788 108 733 88 l 813 429 l 593 429 q 563 439 574 429 q 551 465 551 449 q 563 492 551 482 q 593 501 574 501 l 846 501 q 881 488 868 501 q 892 451 893 474 l 865 92 q 832 44 861 56 q 692 4 772 19 q 540 -11 611 -11 q 213 106 326 -11 q 99 433 99 224 q 158 727 99 601 q 325 921 217 853 q 579 989 433 989 q 906 871 783 989 q 924 832 924 857 q 913 803 924 815 q 889 792 903 792 q 863 803 876 792 q 731 888 799 861 q 579 914 664 914 m 435 1132 q 403 1142 414 1132 q 393 1168 393 1151 q 406 1195 393 1186 q 439 1204 418 1204 l 776 1204 q 818 1168 818 1204 q 806 1142 818 1151 q 772 1132 793 1132 l 435 1132 z "},"H":{"ha":1047,"x_min":103,"x_max":969,"o":"m 926 986 q 957 974 944 986 q 968 942 969 963 l 896 33 q 883 4 894 15 q 853 -7 871 -7 q 822 5 835 -7 q 811 38 810 17 l 844 460 l 222 460 l 189 33 q 175 4 188 15 q 146 -7 163 -7 q 115 6 128 -7 q 104 38 103 18 l 175 946 q 189 975 176 964 q 218 986 201 986 q 249 974 236 986 q 260 942 261 963 l 228 535 l 850 535 l 883 946 q 897 975 885 964 q 926 986 908 986 z "},"Ħ":{"ha":1072,"x_min":33,"x_max":1106,"o":"m 1069 799 q 1095 788 1085 799 q 1106 763 1106 778 q 1094 738 1106 749 q 1068 728 1083 728 l 964 728 l 910 33 q 896 4 908 15 q 867 -7 883 -7 q 836 6 849 -7 q 825 38 824 18 l 858 460 l 235 460 l 201 33 q 188 4 200 15 q 158 -7 176 -7 q 128 5 140 -7 q 117 38 115 17 l 172 728 l 69 728 q 44 738 54 728 q 33 763 33 749 q 44 788 33 778 q 71 799 56 799 l 178 799 l 189 946 q 202 975 190 964 q 232 986 214 986 q 263 974 250 986 q 274 942 275 963 l 263 799 l 885 799 l 896 946 q 910 975 897 964 q 939 986 922 986 q 969 974 957 986 q 981 942 982 963 l 969 799 l 1069 799 m 879 728 l 257 728 l 242 535 l 864 535 l 879 728 z "},"Ḫ":{"ha":1047,"x_min":104,"x_max":968,"o":"m 926 986 q 957 974 944 986 q 968 942 969 963 l 896 33 q 883 4 894 15 q 853 -7 871 -7 q 822 5 835 -7 q 811 38 810 17 l 844 460 l 222 460 l 189 33 q 175 4 188 15 q 146 -7 163 -7 q 115 6 128 -7 q 104 38 103 18 l 175 946 q 189 975 176 964 q 218 986 201 986 q 249 974 236 986 q 260 942 261 963 l 228 535 l 850 535 l 883 946 q 897 975 885 964 q 926 986 908 986 m 476 -287 q 356 -253 407 -287 q 279 -150 304 -218 q 275 -132 275 -140 q 286 -106 275 -117 q 311 -96 297 -96 q 347 -122 336 -96 q 482 -218 385 -218 q 631 -122 579 -218 q 669 -94 646 -94 q 691 -103 682 -94 q 700 -126 700 -112 q 694 -150 700 -139 q 605 -252 663 -217 q 476 -287 547 -287 z "},"Ĥ":{"ha":1047,"x_min":104,"x_max":968,"o":"m 926 986 q 957 974 944 986 q 968 942 969 963 l 896 33 q 883 4 894 15 q 853 -7 871 -7 q 822 5 835 -7 q 811 38 810 17 l 844 460 l 222 460 l 189 33 q 175 4 188 15 q 146 -7 163 -7 q 115 6 128 -7 q 104 38 103 18 l 175 946 q 189 975 176 964 q 218 986 201 986 q 249 974 236 986 q 260 942 261 963 l 228 535 l 850 535 l 883 946 q 897 975 885 964 q 926 986 908 986 m 482 1069 q 451 1053 469 1053 q 425 1064 436 1053 q 414 1089 414 1075 q 424 1113 414 1103 l 551 1257 q 600 1281 572 1281 q 643 1257 626 1281 l 743 1117 q 753 1090 753 1103 q 742 1066 753 1076 q 717 1056 732 1056 q 681 1079 694 1056 l 596 1213 l 482 1069 z "},"Ḥ":{"ha":1047,"x_min":104,"x_max":968,"o":"m 926 986 q 957 974 944 986 q 968 942 969 963 l 896 33 q 883 4 894 15 q 853 -7 871 -7 q 822 5 835 -7 q 811 38 810 17 l 844 460 l 222 460 l 189 33 q 175 4 188 15 q 146 -7 163 -7 q 115 6 128 -7 q 104 38 103 18 l 175 946 q 189 975 176 964 q 218 986 201 986 q 249 974 236 986 q 260 942 261 963 l 228 535 l 850 535 l 883 946 q 897 975 885 964 q 926 986 908 986 m 483 -254 q 440 -237 457 -254 q 422 -193 422 -221 q 440 -150 422 -167 q 483 -133 457 -133 q 527 -150 510 -133 q 544 -193 544 -167 q 527 -237 544 -221 q 483 -254 510 -254 z "},"I":{"ha":339,"x_min":103,"x_max":261,"o":"m 146 -7 q 115 6 128 -7 q 104 38 103 18 l 175 946 q 189 975 176 964 q 218 986 201 986 q 249 974 238 986 q 260 942 261 963 l 189 33 q 176 3 188 14 q 146 -7 164 -7 z "},"Í":{"ha":339,"x_min":104,"x_max":415,"o":"m 146 -7 q 115 6 128 -7 q 104 38 103 18 l 175 946 q 189 975 176 964 q 218 986 201 986 q 249 974 238 986 q 260 942 261 963 l 189 33 q 176 3 188 14 q 146 -7 164 -7 m 263 1068 q 236 1056 250 1056 q 220 1062 226 1056 q 214 1078 214 1068 q 221 1097 214 1086 l 335 1256 q 378 1282 356 1282 q 404 1272 393 1282 q 415 1246 415 1261 q 397 1208 415 1226 l 263 1068 z "},"Ĭ":{"ha":339,"x_min":26,"x_max":454,"o":"m 146 -7 q 115 6 128 -7 q 104 38 103 18 l 175 946 q 189 975 176 964 q 218 986 201 986 q 249 974 238 986 q 260 942 261 963 l 189 33 q 176 3 188 14 q 146 -7 164 -7 m 229 1081 q 108 1111 160 1081 q 31 1203 57 1142 q 26 1222 26 1214 q 37 1245 26 1236 q 60 1254 47 1254 q 96 1232 83 1254 q 152 1168 119 1188 q 232 1149 185 1149 q 316 1168 279 1149 q 382 1232 353 1188 q 401 1249 390 1243 q 422 1256 413 1256 q 445 1248 436 1256 q 454 1226 454 1240 q 447 1203 454 1214 q 356 1111 413 1142 q 229 1081 299 1081 z "},"Î":{"ha":339,"x_min":60,"x_max":399,"o":"m 146 -7 q 115 6 128 -7 q 104 38 103 18 l 175 946 q 189 975 176 964 q 218 986 201 986 q 249 974 238 986 q 260 942 261 963 l 189 33 q 176 3 188 14 q 146 -7 164 -7 m 128 1069 q 97 1053 115 1053 q 71 1064 82 1053 q 60 1089 60 1075 q 69 1113 60 1103 l 197 1257 q 246 1281 218 1281 q 289 1257 272 1281 l 389 1117 q 399 1090 399 1103 q 388 1066 399 1076 q 363 1056 378 1056 q 326 1079 340 1056 l 242 1213 l 128 1069 z "},"Ȉ":{"ha":339,"x_min":25,"x_max":322,"o":"m 146 -7 q 115 6 128 -7 q 104 38 103 18 l 175 946 q 189 975 176 964 q 218 986 201 986 q 249 974 238 986 q 260 942 261 963 l 189 33 q 176 3 188 14 q 146 -7 164 -7 m 31 1218 q 25 1239 25 1228 q 38 1267 25 1256 q 65 1279 50 1279 q 101 1247 90 1279 l 163 1088 q 164 1079 164 1085 q 157 1063 164 1069 q 142 1056 150 1056 q 122 1068 131 1056 l 31 1218 m 190 1218 q 183 1240 183 1229 q 195 1268 183 1257 q 224 1279 207 1279 q 261 1247 250 1279 l 321 1088 q 322 1078 322 1083 q 316 1062 322 1068 q 301 1056 310 1056 q 282 1068 290 1056 l 190 1218 z "},"Ï":{"ha":339,"x_min":63,"x_max":410,"o":"m 146 -7 q 115 6 128 -7 q 104 38 103 18 l 175 946 q 189 975 176 964 q 218 986 201 986 q 249 974 238 986 q 260 942 261 963 l 189 33 q 176 3 188 14 q 146 -7 164 -7 m 121 1111 q 79 1127 96 1111 q 63 1168 63 1143 q 79 1209 63 1193 q 121 1225 96 1225 q 163 1209 146 1225 q 181 1168 181 1193 q 163 1127 181 1143 q 121 1111 146 1111 m 351 1111 q 309 1127 326 1111 q 292 1168 292 1143 q 309 1209 292 1193 q 351 1225 326 1225 q 393 1209 376 1225 q 410 1168 410 1193 q 393 1127 410 1143 q 351 1111 376 1111 z "},"Ḯ":{"ha":339,"x_min":63,"x_max":433,"o":"m 146 -7 q 115 6 128 -7 q 104 38 103 18 l 175 946 q 189 975 176 964 q 218 986 201 986 q 249 974 238 986 q 260 942 261 963 l 189 33 q 176 3 188 14 q 146 -7 164 -7 m 121 1111 q 79 1127 96 1111 q 63 1168 63 1143 q 79 1209 63 1193 q 121 1225 96 1225 q 163 1209 146 1225 q 181 1168 181 1193 q 163 1127 181 1143 q 121 1111 146 1111 m 351 1111 q 309 1127 326 1111 q 292 1168 292 1143 q 309 1209 292 1193 q 351 1225 326 1225 q 393 1209 376 1225 q 410 1168 410 1193 q 393 1127 410 1143 q 351 1111 376 1111 m 281 1290 q 254 1278 268 1278 q 238 1284 244 1278 q 232 1300 232 1290 q 239 1319 232 1308 l 353 1478 q 396 1504 374 1504 q 422 1494 411 1504 q 433 1468 433 1483 q 415 1431 433 1449 l 281 1290 z "},"İ":{"ha":339,"x_min":104,"x_max":299,"o":"m 146 -7 q 115 6 128 -7 q 104 38 103 18 l 175 946 q 189 975 176 964 q 218 986 201 986 q 249 974 238 986 q 260 942 261 963 l 189 33 q 176 3 188 14 q 146 -7 164 -7 m 236 1108 q 191 1125 208 1108 q 174 1168 174 1142 q 191 1213 174 1196 q 236 1229 208 1229 q 281 1213 264 1229 q 299 1168 299 1196 q 281 1125 299 1142 q 236 1108 264 1108 z "},"Ị":{"ha":339,"x_min":67,"x_max":260,"o":"m 146 -7 q 115 6 128 -7 q 104 38 103 18 l 175 946 q 189 975 176 964 q 218 986 201 986 q 249 974 238 986 q 260 942 261 963 l 189 33 q 176 3 188 14 q 146 -7 164 -7 m 128 -254 q 84 -237 101 -254 q 67 -193 67 -221 q 84 -150 67 -167 q 128 -133 101 -133 q 172 -150 154 -133 q 189 -193 189 -167 q 172 -237 189 -221 q 128 -254 154 -254 z "},"Ì":{"ha":339,"x_min":65,"x_max":260,"o":"m 146 -7 q 115 6 128 -7 q 104 38 103 18 l 175 946 q 189 975 176 964 q 218 986 201 986 q 249 974 238 986 q 260 942 261 963 l 189 33 q 176 3 188 14 q 146 -7 164 -7 m 76 1217 q 65 1247 65 1232 q 76 1273 65 1263 q 103 1283 88 1283 q 143 1257 128 1283 l 238 1094 q 242 1079 242 1086 q 235 1063 242 1069 q 217 1056 228 1056 q 192 1068 203 1056 l 76 1217 z "},"Ỉ":{"ha":339,"x_min":104,"x_max":376,"o":"m 146 -7 q 115 6 128 -7 q 104 38 103 18 l 175 946 q 189 975 176 964 q 218 986 201 986 q 249 974 238 986 q 260 942 261 963 l 189 33 q 176 3 188 14 q 146 -7 164 -7 m 264 1079 q 253 1062 263 1068 q 231 1056 243 1056 q 207 1065 217 1056 q 199 1089 197 1074 q 216 1125 200 1111 q 258 1153 232 1139 q 289 1171 279 1163 q 299 1190 299 1179 q 243 1215 299 1215 q 169 1204 207 1215 q 158 1203 165 1203 q 138 1210 146 1203 q 131 1229 131 1218 q 156 1261 131 1251 q 250 1278 199 1278 q 342 1256 308 1278 q 376 1196 376 1233 q 359 1149 376 1165 q 310 1118 342 1133 q 278 1099 289 1107 q 264 1079 267 1092 z "},"Ȋ":{"ha":339,"x_min":17,"x_max":444,"o":"m 146 -7 q 115 6 128 -7 q 104 38 103 18 l 175 946 q 189 975 176 964 q 218 986 201 986 q 249 974 238 986 q 260 942 261 963 l 189 33 q 176 3 188 14 q 146 -7 164 -7 m 242 1256 q 363 1225 311 1256 q 440 1133 415 1194 q 444 1114 444 1124 q 435 1090 444 1100 q 411 1081 425 1081 q 375 1104 389 1081 q 318 1167 351 1147 q 239 1188 285 1188 q 156 1167 192 1188 q 89 1104 121 1147 q 49 1081 74 1081 q 26 1088 35 1081 q 17 1110 17 1096 q 24 1133 17 1124 q 115 1224 58 1193 q 242 1256 172 1256 z "},"Ī":{"ha":339,"x_min":24,"x_max":449,"o":"m 146 -7 q 115 6 128 -7 q 104 38 103 18 l 175 946 q 189 975 176 964 q 218 986 201 986 q 249 974 238 986 q 260 942 261 963 l 189 33 q 176 3 188 14 q 146 -7 164 -7 m 65 1132 q 34 1142 44 1132 q 24 1168 24 1151 q 36 1195 24 1186 q 69 1204 49 1204 l 407 1204 q 449 1168 449 1204 q 436 1142 449 1151 q 403 1132 424 1132 l 65 1132 z "},"Į":{"ha":339,"x_min":-32,"x_max":261,"o":"m 147 -6 q 71 -41 97 -11 q 44 -118 44 -71 q 67 -181 44 -160 q 129 -203 89 -203 q 197 -185 161 -203 q 215 -181 208 -181 q 232 -187 226 -181 q 238 -204 238 -194 q 215 -242 238 -229 q 117 -265 172 -265 q 9 -228 50 -265 q -32 -132 -32 -192 q 4 -19 -32 -65 q 104 43 40 26 l 175 946 q 189 975 176 964 q 218 986 201 986 q 249 974 238 986 q 260 942 261 963 l 189 33 q 176 6 188 15 q 147 -6 165 -4 z "},"Ĩ":{"ha":339,"x_min":19,"x_max":453,"o":"m 146 -7 q 115 6 128 -7 q 104 38 103 18 l 175 946 q 189 975 176 964 q 218 986 201 986 q 249 974 238 986 q 260 942 261 963 l 189 33 q 176 3 188 14 q 146 -7 164 -7 m 326 1100 q 219 1136 286 1100 q 177 1156 199 1147 q 140 1164 156 1164 q 99 1153 114 1164 q 69 1124 85 1143 q 43 1104 54 1104 q 26 1113 32 1104 q 19 1133 19 1121 q 36 1180 19 1156 q 81 1221 53 1204 q 146 1238 110 1238 q 253 1201 186 1238 q 295 1182 274 1190 q 332 1174 317 1174 q 373 1184 358 1174 q 403 1214 388 1194 q 415 1228 408 1222 q 428 1235 421 1235 q 446 1226 439 1235 q 453 1206 453 1218 q 436 1158 453 1183 q 390 1117 419 1133 q 326 1100 361 1100 z "},"J":{"ha":432,"x_min":-37,"x_max":356,"o":"m 3 -7 q -27 3 -17 -8 q -36 32 -37 14 q -26 55 -36 46 q 0 65 -17 64 l 44 68 q 164 122 121 74 q 214 256 207 169 l 268 943 q 282 974 269 963 q 314 986 294 986 q 344 974 333 986 q 354 943 356 963 l 299 253 q 226 67 289 132 q 49 -4 163 3 l 3 -7 z "},"Ĵ":{"ha":432,"x_min":-36,"x_max":492,"o":"m 3 -7 q -27 3 -17 -8 q -36 32 -37 14 q -26 55 -36 46 q 0 65 -17 64 l 44 68 q 164 122 121 74 q 214 256 207 169 l 268 943 q 282 974 269 963 q 314 986 294 986 q 344 974 333 986 q 354 943 356 963 l 299 253 q 226 67 289 132 q 49 -4 163 3 l 3 -7 m 221 1069 q 190 1053 208 1053 q 164 1064 175 1053 q 153 1089 153 1075 q 163 1113 153 1103 l 290 1257 q 339 1281 311 1281 q 382 1257 365 1281 l 482 1117 q 492 1090 492 1103 q 481 1066 492 1076 q 456 1056 471 1056 q 419 1079 433 1056 l 335 1213 l 221 1069 z "},"K":{"ha":851,"x_min":103,"x_max":842,"o":"m 779 976 q 803 985 790 985 q 830 974 818 985 q 842 947 842 963 q 826 918 842 929 l 307 500 l 783 58 q 796 32 796 46 q 784 6 796 17 q 757 -6 772 -6 q 731 6 742 -6 l 224 472 l 189 33 q 175 5 188 17 q 146 -7 163 -7 q 115 6 128 -7 q 104 38 103 19 l 175 946 q 189 974 176 963 q 218 986 201 986 q 249 973 236 986 q 260 942 263 960 l 228 528 l 779 976 z "},"Ķ":{"ha":851,"x_min":104,"x_max":842,"o":"m 779 976 q 803 985 790 985 q 830 974 818 985 q 842 947 842 963 q 826 918 842 929 l 307 500 l 783 58 q 796 32 796 46 q 784 6 796 17 q 757 -6 772 -6 q 731 6 742 -6 l 224 472 l 189 33 q 175 5 188 17 q 146 -7 163 -7 q 115 6 128 -7 q 104 38 103 19 l 175 946 q 189 974 176 963 q 218 986 201 986 q 249 973 236 986 q 260 942 263 960 l 228 528 l 779 976 m 394 -96 q 440 -114 424 -96 q 457 -168 457 -132 q 440 -256 457 -212 q 385 -336 422 -299 q 354 -351 369 -351 q 336 -344 343 -351 q 329 -328 329 -337 q 340 -304 329 -318 q 390 -212 379 -261 q 348 -198 364 -212 q 332 -158 332 -183 q 349 -114 332 -132 q 394 -96 367 -96 z "},"L":{"ha":740,"x_min":101,"x_max":703,"o":"m 146 0 q 113 12 124 0 q 104 46 101 24 l 175 946 q 189 975 176 964 q 219 986 201 986 q 250 974 239 986 q 260 942 261 963 l 192 75 l 665 75 q 692 65 682 75 q 703 38 703 54 q 692 10 703 21 q 664 0 682 0 l 146 0 z "},"Ǉ":{"ha":1171,"x_min":101,"x_max":1093,"o":"m 146 0 q 113 12 124 0 q 104 46 101 24 l 175 946 q 189 975 176 964 q 219 986 201 986 q 250 974 239 986 q 260 942 261 963 l 192 75 l 624 75 q 651 65 640 75 q 661 38 661 54 q 651 10 661 21 q 622 0 640 0 l 146 0 m 739 -7 q 709 3 719 -8 q 700 32 699 14 q 736 65 704 64 l 783 68 q 901 120 858 72 q 951 256 944 168 l 1007 943 q 1021 974 1008 963 q 1053 986 1033 986 q 1083 974 1072 986 q 1092 943 1093 963 l 1038 253 q 965 67 1028 132 q 788 -4 901 3 l 739 -7 z "},"Ĺ":{"ha":740,"x_min":104,"x_max":703,"o":"m 146 0 q 113 12 124 0 q 104 46 101 24 l 175 946 q 189 975 176 964 q 219 986 201 986 q 250 974 239 986 q 260 942 261 963 l 192 75 l 665 75 q 692 65 682 75 q 703 38 703 54 q 692 10 703 21 q 664 0 682 0 l 146 0 m 263 1068 q 236 1056 250 1056 q 220 1062 226 1056 q 214 1078 214 1068 q 221 1097 214 1086 l 335 1256 q 378 1282 356 1282 q 404 1272 393 1282 q 415 1246 415 1261 q 397 1208 415 1226 l 263 1068 z "},"Ľ":{"ha":740,"x_min":104,"x_max":703,"o":"m 146 0 q 113 12 124 0 q 104 46 101 24 l 175 946 q 189 975 176 964 q 219 986 201 986 q 250 974 239 986 q 260 942 261 963 l 192 75 l 665 75 q 692 65 682 75 q 703 38 703 54 q 692 10 703 21 q 664 0 682 0 l 146 0 m 411 732 q 383 710 406 710 q 366 717 374 710 q 360 736 358 724 l 375 942 q 389 976 376 964 q 418 988 401 988 q 444 976 433 988 q 456 946 456 965 q 454 933 456 938 l 411 732 z "},"Ļ":{"ha":740,"x_min":104,"x_max":703,"o":"m 146 0 q 113 12 124 0 q 104 46 101 24 l 175 946 q 189 975 176 964 q 219 986 201 986 q 250 974 239 986 q 260 942 261 963 l 192 75 l 665 75 q 692 65 682 75 q 703 38 703 54 q 692 10 703 21 q 664 0 682 0 l 146 0 m 392 -96 q 438 -114 421 -96 q 454 -168 454 -132 q 437 -256 454 -212 q 382 -336 419 -299 q 351 -351 367 -351 q 333 -344 340 -351 q 326 -328 326 -337 q 338 -304 326 -318 q 388 -212 376 -261 q 345 -198 361 -212 q 329 -158 329 -183 q 347 -114 329 -132 q 392 -96 364 -96 z "},"Ŀ":{"ha":740,"x_min":104,"x_max":703,"o":"m 146 0 q 113 12 124 0 q 104 46 101 24 l 175 946 q 189 975 176 964 q 219 986 201 986 q 250 974 239 986 q 260 942 261 963 l 192 75 l 665 75 q 692 65 682 75 q 703 38 703 54 q 692 10 703 21 q 664 0 682 0 l 146 0 m 482 431 q 437 447 454 431 q 419 490 419 464 q 437 535 419 518 q 482 551 454 551 q 527 535 510 551 q 544 490 544 518 q 527 447 544 464 q 482 431 510 431 z "},"Ḷ":{"ha":740,"x_min":104,"x_max":703,"o":"m 146 0 q 113 12 124 0 q 104 46 101 24 l 175 946 q 189 975 176 964 q 219 986 201 986 q 250 974 239 986 q 260 942 261 963 l 192 75 l 665 75 q 692 65 682 75 q 703 38 703 54 q 692 10 703 21 q 664 0 682 0 l 146 0 m 385 -254 q 341 -237 358 -254 q 324 -193 324 -221 q 341 -150 324 -167 q 385 -133 358 -133 q 428 -150 411 -133 q 446 -193 446 -167 q 428 -237 446 -221 q 385 -254 411 -254 z "},"ǈ":{"ha":1049,"x_min":104,"x_max":1003,"o":"m 146 0 q 113 12 124 0 q 104 46 101 24 l 175 946 q 189 975 176 964 q 219 986 201 986 q 250 974 239 986 q 260 942 261 963 l 192 75 l 665 75 q 692 65 682 75 q 703 38 703 54 q 692 10 703 21 q 664 0 682 0 l 146 0 m 613 -254 q 581 -246 592 -256 q 572 -219 571 -236 q 582 -196 572 -206 q 608 -185 592 -186 l 649 -182 q 776 -132 735 -176 q 825 6 818 -87 l 876 646 q 890 677 878 667 q 919 688 903 688 q 950 677 938 688 q 961 646 963 667 l 911 15 q 835 -181 901 -117 q 639 -253 769 -246 l 613 -254 m 940 844 q 895 861 913 844 q 878 904 878 878 q 895 949 878 932 q 940 965 913 965 q 985 949 968 965 q 1003 904 1003 932 q 985 861 1003 878 q 940 844 968 844 z "},"Ḻ":{"ha":740,"x_min":104,"x_max":703,"o":"m 146 0 q 113 12 124 0 q 104 46 101 24 l 175 946 q 189 975 176 964 q 219 986 201 986 q 250 974 239 986 q 260 942 261 963 l 192 75 l 665 75 q 692 65 682 75 q 703 38 703 54 q 692 10 703 21 q 664 0 682 0 l 146 0 m 214 -229 q 183 -220 193 -229 q 172 -194 172 -211 q 185 -167 172 -176 q 218 -158 197 -158 l 556 -158 q 597 -193 597 -158 q 585 -219 597 -210 q 551 -229 572 -229 l 214 -229 z "},"Ł":{"ha":753,"x_min":7,"x_max":714,"o":"m 676 75 q 703 65 693 75 q 714 38 714 54 q 703 10 714 21 q 675 0 693 0 l 158 0 q 125 12 136 0 q 115 46 114 24 l 146 429 l 60 382 q 40 376 50 376 q 17 388 26 376 q 7 413 7 399 q 28 444 7 435 l 153 514 l 188 946 q 201 975 189 964 q 232 986 213 986 q 263 974 251 986 q 272 942 274 963 l 243 563 l 469 688 q 486 692 478 692 q 510 681 500 692 q 519 654 519 669 q 501 625 519 635 l 236 479 l 204 75 l 676 75 z "},"M":{"ha":1167,"x_min":103,"x_max":1090,"o":"m 1053 989 q 1081 978 1071 989 q 1088 953 1090 968 l 1015 31 q 1002 3 1014 13 q 974 -7 990 -7 q 945 5 957 -7 q 935 36 933 17 l 997 806 l 615 175 q 597 157 608 164 q 572 150 586 150 q 528 179 540 150 l 246 804 l 185 31 q 172 3 183 13 q 143 -7 160 -7 q 115 5 126 -7 q 104 36 103 17 l 175 943 q 188 974 176 963 q 219 986 200 986 q 261 954 246 986 l 578 239 l 1008 961 q 1053 989 1024 989 z "},"Ṃ":{"ha":1167,"x_min":104,"x_max":1088,"o":"m 1053 989 q 1081 978 1071 989 q 1088 953 1090 968 l 1015 31 q 1002 3 1014 13 q 974 -7 990 -7 q 945 5 957 -7 q 935 36 933 17 l 997 806 l 615 175 q 597 157 608 164 q 572 150 586 150 q 528 179 540 150 l 246 804 l 185 31 q 172 3 183 13 q 143 -7 160 -7 q 115 5 126 -7 q 104 36 103 17 l 175 943 q 188 974 176 963 q 219 986 200 986 q 261 954 246 986 l 578 239 l 1008 961 q 1053 989 1024 989 m 542 -254 q 498 -237 515 -254 q 481 -193 481 -221 q 498 -150 481 -167 q 542 -133 515 -133 q 585 -150 568 -133 q 603 -193 603 -167 q 585 -237 603 -221 q 542 -254 568 -254 z "},"N":{"ha":1021,"x_min":101,"x_max":944,"o":"m 904 986 q 933 974 921 986 q 943 943 944 961 l 871 35 q 832 -7 868 -7 q 790 17 808 -7 l 247 838 l 182 32 q 169 3 181 14 q 142 -7 158 -7 q 113 6 125 -7 q 103 38 101 18 l 174 943 q 187 975 175 964 q 217 986 199 986 q 256 963 242 986 l 799 147 l 863 947 q 875 976 864 965 q 904 986 886 986 z "},"Ǌ":{"ha":1453,"x_min":103,"x_max":1375,"o":"m 904 986 q 933 974 921 986 q 943 943 944 961 l 871 35 q 832 -7 868 -7 q 790 17 808 -7 l 247 838 l 182 32 q 169 3 181 14 q 142 -7 158 -7 q 113 6 125 -7 q 103 38 101 18 l 174 943 q 187 975 175 964 q 217 986 199 986 q 256 963 242 986 l 799 147 l 863 947 q 875 976 864 965 q 904 986 886 986 m 1024 -7 q 994 3 1004 -8 q 985 32 983 14 q 994 55 985 46 q 1021 65 1004 64 l 1065 68 q 1185 122 1142 74 q 1235 256 1228 169 l 1289 943 q 1303 974 1290 963 q 1335 986 1315 986 q 1365 974 1354 986 q 1375 943 1376 963 l 1319 253 q 1247 67 1310 132 q 1069 -4 1183 3 l 1024 -7 z "},"Ń":{"ha":1021,"x_min":103,"x_max":943,"o":"m 904 986 q 933 974 921 986 q 943 943 944 961 l 871 35 q 832 -7 868 -7 q 790 17 808 -7 l 247 838 l 182 32 q 169 3 181 14 q 142 -7 158 -7 q 113 6 125 -7 q 103 38 101 18 l 174 943 q 187 975 175 964 q 217 986 199 986 q 256 963 242 986 l 799 147 l 863 947 q 875 976 864 965 q 904 986 886 986 m 604 1068 q 578 1056 592 1056 q 562 1062 568 1056 q 556 1078 556 1068 q 563 1097 556 1086 l 676 1256 q 719 1282 697 1282 q 746 1272 735 1282 q 757 1246 757 1261 q 739 1208 757 1226 l 604 1068 z "},"Ň":{"ha":1021,"x_min":103,"x_max":943,"o":"m 904 986 q 933 974 921 986 q 943 943 944 961 l 871 35 q 832 -7 868 -7 q 790 17 808 -7 l 247 838 l 182 32 q 169 3 181 14 q 142 -7 158 -7 q 113 6 125 -7 q 103 38 101 18 l 174 943 q 187 975 175 964 q 217 986 199 986 q 256 963 242 986 l 799 147 l 863 947 q 875 976 864 965 q 904 986 886 986 m 685 1264 q 715 1281 697 1281 q 742 1269 731 1281 q 753 1244 753 1258 q 743 1221 753 1231 l 615 1076 q 567 1053 594 1053 q 524 1076 540 1053 l 424 1218 q 414 1244 414 1232 q 424 1268 414 1258 q 450 1278 435 1278 q 486 1256 474 1278 l 571 1121 l 685 1264 z "},"Ņ":{"ha":1021,"x_min":103,"x_max":943,"o":"m 904 986 q 933 974 921 986 q 943 943 944 961 l 871 35 q 832 -7 868 -7 q 790 17 808 -7 l 247 838 l 182 32 q 169 3 181 14 q 142 -7 158 -7 q 113 6 125 -7 q 103 38 101 18 l 174 943 q 187 975 175 964 q 217 986 199 986 q 256 963 242 986 l 799 147 l 863 947 q 875 976 864 965 q 904 986 886 986 m 476 -96 q 522 -114 506 -96 q 539 -168 539 -132 q 522 -256 539 -212 q 467 -336 504 -299 q 436 -351 451 -351 q 418 -344 425 -351 q 411 -328 411 -337 q 422 -304 411 -318 q 472 -212 461 -261 q 430 -198 446 -212 q 414 -158 414 -183 q 431 -114 414 -132 q 476 -96 449 -96 z "},"Ṅ":{"ha":1021,"x_min":103,"x_max":943,"o":"m 904 986 q 933 974 921 986 q 943 943 944 961 l 871 35 q 832 -7 868 -7 q 790 17 808 -7 l 247 838 l 182 32 q 169 3 181 14 q 142 -7 158 -7 q 113 6 125 -7 q 103 38 101 18 l 174 943 q 187 975 175 964 q 217 986 199 986 q 256 963 242 986 l 799 147 l 863 947 q 875 976 864 965 q 904 986 886 986 m 578 1108 q 533 1125 550 1108 q 515 1168 515 1142 q 533 1213 515 1196 q 578 1229 550 1229 q 623 1213 606 1229 q 640 1168 640 1196 q 623 1125 640 1142 q 578 1108 606 1108 z "},"Ṇ":{"ha":1021,"x_min":103,"x_max":943,"o":"m 904 986 q 933 974 921 986 q 943 943 944 961 l 871 35 q 832 -7 868 -7 q 790 17 808 -7 l 247 838 l 182 32 q 169 3 181 14 q 142 -7 158 -7 q 113 6 125 -7 q 103 38 101 18 l 174 943 q 187 975 175 964 q 217 986 199 986 q 256 963 242 986 l 799 147 l 863 947 q 875 976 864 965 q 904 986 886 986 m 469 -254 q 426 -237 443 -254 q 408 -193 408 -221 q 426 -150 408 -167 q 469 -133 443 -133 q 513 -150 496 -133 q 531 -193 531 -167 q 513 -237 531 -221 q 469 -254 496 -254 z "},"Ŋ":{"ha":1021,"x_min":101,"x_max":944,"o":"m 904 986 q 933 974 921 986 q 943 943 944 961 l 868 3 q 795 -183 858 -118 q 618 -254 732 -247 l 571 -257 q 542 -248 551 -258 q 532 -221 532 -237 q 541 -196 532 -207 q 567 -185 550 -185 l 624 -182 q 737 -130 693 -179 q 788 4 781 -81 l 789 18 l 247 838 l 182 32 q 169 3 181 14 q 142 -7 158 -7 q 113 6 125 -7 q 103 38 101 18 l 174 943 q 187 975 175 964 q 217 986 199 986 q 256 963 242 986 l 799 147 l 863 947 q 875 976 864 965 q 904 986 886 986 z "},"ǋ":{"ha":1329,"x_min":103,"x_max":1283,"o":"m 904 986 q 933 974 921 986 q 943 943 944 961 l 871 35 q 832 -7 868 -7 q 790 17 808 -7 l 247 838 l 182 32 q 169 3 181 14 q 142 -7 158 -7 q 113 6 125 -7 q 103 38 101 18 l 174 943 q 187 975 175 964 q 217 986 199 986 q 256 963 242 986 l 799 147 l 863 947 q 875 976 864 965 q 904 986 886 986 m 893 -254 q 862 -246 872 -256 q 853 -219 851 -236 q 863 -196 853 -206 q 889 -185 872 -186 l 929 -182 q 1057 -132 1015 -176 q 1106 6 1099 -87 l 1157 646 q 1171 677 1158 667 q 1200 688 1183 688 q 1231 677 1218 688 q 1242 646 1243 667 l 1192 15 q 1116 -181 1182 -117 q 919 -253 1050 -246 l 893 -254 m 1221 844 q 1176 861 1193 844 q 1158 904 1158 878 q 1176 949 1158 932 q 1221 965 1193 965 q 1266 949 1249 965 q 1283 904 1283 932 q 1266 861 1283 878 q 1221 844 1249 844 z "},"Ṉ":{"ha":1021,"x_min":103,"x_max":943,"o":"m 904 986 q 933 974 921 986 q 943 943 944 961 l 871 35 q 832 -7 868 -7 q 790 17 808 -7 l 247 838 l 182 32 q 169 3 181 14 q 142 -7 158 -7 q 113 6 125 -7 q 103 38 101 18 l 174 943 q 187 975 175 964 q 217 986 199 986 q 256 963 242 986 l 799 147 l 863 947 q 875 976 864 965 q 904 986 886 986 m 299 -229 q 267 -220 278 -229 q 257 -194 257 -211 q 269 -167 257 -176 q 303 -158 282 -158 l 640 -158 q 682 -193 682 -158 q 669 -219 682 -210 q 636 -229 657 -229 l 299 -229 z "},"Ñ":{"ha":1021,"x_min":103,"x_max":943,"o":"m 904 986 q 933 974 921 986 q 943 943 944 961 l 871 35 q 832 -7 868 -7 q 790 17 808 -7 l 247 838 l 182 32 q 169 3 181 14 q 142 -7 158 -7 q 113 6 125 -7 q 103 38 101 18 l 174 943 q 187 975 175 964 q 217 986 199 986 q 256 963 242 986 l 799 147 l 863 947 q 875 976 864 965 q 904 986 886 986 m 668 1100 q 561 1136 628 1100 q 519 1156 540 1147 q 482 1164 497 1164 q 441 1153 456 1164 q 411 1124 426 1143 q 385 1104 396 1104 q 367 1113 374 1104 q 361 1133 361 1121 q 378 1180 361 1156 q 423 1221 394 1204 q 488 1238 451 1238 q 594 1201 528 1238 q 637 1182 615 1190 q 674 1174 658 1174 q 715 1184 700 1174 q 744 1214 729 1194 q 756 1228 750 1222 q 769 1235 763 1235 q 788 1226 781 1235 q 794 1206 794 1218 q 778 1158 794 1183 q 732 1117 761 1133 q 668 1100 703 1100 z "},"O":{"ha":1051,"x_min":100,"x_max":975,"o":"m 525 -11 q 299 44 394 -11 q 151 202 203 99 q 100 447 100 306 q 156 734 100 611 q 313 924 211 857 q 549 990 414 990 q 776 935 681 990 q 924 777 872 881 q 975 532 975 674 q 920 245 975 368 q 763 56 865 122 q 525 -11 661 -11 m 526 67 q 719 122 638 67 q 843 283 800 178 q 886 532 886 388 q 799 815 886 717 q 549 913 711 913 q 356 857 438 913 q 232 696 275 801 q 189 446 189 590 q 276 165 189 263 q 526 67 364 67 z "},"Ó":{"ha":1051,"x_min":100,"x_max":975,"o":"m 525 -11 q 299 44 394 -11 q 151 202 203 99 q 100 447 100 306 q 156 734 100 611 q 313 924 211 857 q 549 990 414 990 q 776 935 681 990 q 924 777 872 881 q 975 532 975 674 q 920 245 975 368 q 763 56 865 122 q 525 -11 661 -11 m 526 67 q 719 122 638 67 q 843 283 800 178 q 886 532 886 388 q 799 815 886 717 q 549 913 711 913 q 356 857 438 913 q 232 696 275 801 q 189 446 189 590 q 276 165 189 263 q 526 67 364 67 m 618 1068 q 592 1056 606 1056 q 576 1062 582 1056 q 569 1078 569 1068 q 576 1097 569 1086 l 690 1256 q 733 1282 711 1282 q 760 1272 749 1282 q 771 1246 771 1261 q 753 1208 771 1226 l 618 1068 z "},"Ŏ":{"ha":1051,"x_min":100,"x_max":975,"o":"m 525 -11 q 299 44 394 -11 q 151 202 203 99 q 100 447 100 306 q 156 734 100 611 q 313 924 211 857 q 549 990 414 990 q 776 935 681 990 q 924 777 872 881 q 975 532 975 674 q 920 245 975 368 q 763 56 865 122 q 525 -11 661 -11 m 526 67 q 719 122 638 67 q 843 283 800 178 q 886 532 886 388 q 799 815 886 717 q 549 913 711 913 q 356 857 438 913 q 232 696 275 801 q 189 446 189 590 q 276 165 189 263 q 526 67 364 67 m 585 1081 q 464 1111 515 1081 q 386 1203 413 1142 q 382 1222 382 1214 q 392 1245 382 1236 q 415 1254 403 1254 q 451 1232 439 1254 q 508 1168 475 1188 q 588 1149 540 1149 q 672 1168 635 1149 q 738 1232 708 1188 q 757 1249 746 1243 q 778 1256 768 1256 q 801 1248 792 1256 q 810 1226 810 1240 q 803 1203 810 1214 q 711 1111 768 1142 q 585 1081 654 1081 z "},"Ô":{"ha":1051,"x_min":100,"x_max":975,"o":"m 525 -11 q 299 44 394 -11 q 151 202 203 99 q 100 447 100 306 q 156 734 100 611 q 313 924 211 857 q 549 990 414 990 q 776 935 681 990 q 924 777 872 881 q 975 532 975 674 q 920 245 975 368 q 763 56 865 122 q 525 -11 661 -11 m 526 67 q 719 122 638 67 q 843 283 800 178 q 886 532 886 388 q 799 815 886 717 q 549 913 711 913 q 356 857 438 913 q 232 696 275 801 q 189 446 189 590 q 276 165 189 263 q 526 67 364 67 m 483 1069 q 453 1053 471 1053 q 426 1064 438 1053 q 415 1089 415 1075 q 425 1113 415 1103 l 553 1257 q 601 1281 574 1281 q 644 1257 628 1281 l 744 1117 q 754 1090 754 1103 q 744 1066 754 1076 q 718 1056 733 1056 q 682 1079 696 1056 l 597 1213 l 483 1069 z "},"Ố":{"ha":1051,"x_min":100,"x_max":975,"o":"m 525 -11 q 299 44 394 -11 q 151 202 203 99 q 100 447 100 306 q 156 734 100 611 q 313 924 211 857 q 549 990 414 990 q 776 935 681 990 q 924 777 872 881 q 975 532 975 674 q 920 245 975 368 q 763 56 865 122 q 525 -11 661 -11 m 526 67 q 719 122 638 67 q 843 283 800 178 q 886 532 886 388 q 799 815 886 717 q 549 913 711 913 q 356 857 438 913 q 232 696 275 801 q 189 446 189 590 q 276 165 189 263 q 526 67 364 67 m 767 1207 q 746 1199 758 1199 q 730 1205 736 1199 q 724 1221 724 1211 q 731 1239 724 1228 l 840 1386 q 882 1410 858 1410 q 910 1399 899 1410 q 922 1374 922 1389 q 901 1333 922 1353 l 767 1207 m 482 1068 q 453 1053 471 1053 q 428 1064 439 1053 q 417 1090 417 1075 q 425 1113 417 1103 l 553 1256 q 601 1279 574 1279 q 644 1256 629 1279 l 744 1117 q 754 1090 754 1103 q 744 1066 754 1076 q 719 1056 733 1056 q 683 1078 696 1056 l 597 1211 l 482 1068 z "},"Ộ":{"ha":1051,"x_min":100,"x_max":975,"o":"m 525 -11 q 299 44 394 -11 q 151 202 203 99 q 100 447 100 306 q 156 734 100 611 q 313 924 211 857 q 549 990 414 990 q 776 935 681 990 q 924 777 872 881 q 975 532 975 674 q 920 245 975 368 q 763 56 865 122 q 525 -11 661 -11 m 526 67 q 719 122 638 67 q 843 283 800 178 q 886 532 886 388 q 799 815 886 717 q 549 913 711 913 q 356 857 438 913 q 232 696 275 801 q 189 446 189 590 q 276 165 189 263 q 526 67 364 67 m 483 -254 q 440 -237 457 -254 q 422 -193 422 -221 q 440 -150 422 -167 q 483 -133 457 -133 q 527 -150 510 -133 q 544 -193 544 -167 q 527 -237 544 -221 q 483 -254 510 -254 m 483 1069 q 453 1053 471 1053 q 426 1064 438 1053 q 415 1089 415 1075 q 425 1113 415 1103 l 553 1257 q 601 1281 574 1281 q 644 1257 628 1281 l 744 1117 q 754 1090 754 1103 q 744 1066 754 1076 q 718 1056 733 1056 q 682 1079 696 1056 l 597 1213 l 483 1069 z "},"Ồ":{"ha":1051,"x_min":100,"x_max":975,"o":"m 525 -11 q 299 44 394 -11 q 151 202 203 99 q 100 447 100 306 q 156 734 100 611 q 313 924 211 857 q 549 990 414 990 q 776 935 681 990 q 924 777 872 881 q 975 532 975 674 q 920 245 975 368 q 763 56 865 122 q 525 -11 661 -11 m 526 67 q 719 122 638 67 q 843 283 800 178 q 886 532 886 388 q 799 815 886 717 q 549 913 711 913 q 356 857 438 913 q 232 696 275 801 q 189 446 189 590 q 276 165 189 263 q 526 67 364 67 m 808 1226 q 800 1208 808 1215 q 782 1201 792 1201 q 763 1213 768 1201 l 681 1343 q 672 1371 672 1358 q 684 1400 672 1389 q 713 1411 696 1411 q 756 1376 743 1411 l 807 1232 l 808 1226 m 482 1068 q 453 1053 471 1053 q 428 1064 439 1053 q 417 1090 417 1075 q 425 1113 417 1103 l 553 1256 q 601 1279 574 1279 q 644 1256 629 1279 l 744 1117 q 754 1090 754 1103 q 744 1066 754 1076 q 719 1056 733 1056 q 683 1078 696 1056 l 597 1211 l 482 1068 z "},"Ổ":{"ha":1051,"x_min":100,"x_max":975,"o":"m 525 -11 q 299 44 394 -11 q 151 202 203 99 q 100 447 100 306 q 156 734 100 611 q 313 924 211 857 q 549 990 414 990 q 776 935 681 990 q 924 777 872 881 q 975 532 975 674 q 920 245 975 368 q 763 56 865 122 q 525 -11 661 -11 m 526 67 q 719 122 638 67 q 843 283 800 178 q 886 532 886 388 q 799 815 886 717 q 549 913 711 913 q 356 857 438 913 q 232 696 275 801 q 189 446 189 590 q 276 165 189 263 q 526 67 364 67 m 772 1221 q 762 1203 771 1210 q 742 1197 753 1197 q 721 1206 729 1197 q 713 1229 713 1214 q 728 1264 713 1251 q 772 1289 743 1276 q 802 1305 793 1299 q 811 1321 811 1311 q 795 1340 811 1333 q 753 1346 779 1346 q 679 1336 719 1346 q 668 1335 675 1335 q 649 1342 656 1335 q 642 1360 642 1349 q 667 1392 642 1382 q 760 1408 708 1408 q 855 1387 821 1408 q 889 1329 889 1365 q 871 1285 889 1300 q 819 1256 853 1271 q 786 1239 797 1246 q 772 1221 775 1232 m 482 1068 q 453 1053 471 1053 q 428 1064 439 1053 q 417 1090 417 1075 q 425 1113 417 1103 l 553 1256 q 601 1279 574 1279 q 644 1256 629 1279 l 744 1117 q 754 1090 754 1103 q 744 1066 754 1076 q 719 1056 733 1056 q 683 1078 696 1056 l 597 1211 l 482 1068 z "},"Ỗ":{"ha":1051,"x_min":100,"x_max":975,"o":"m 525 -11 q 299 44 394 -11 q 151 202 203 99 q 100 447 100 306 q 156 734 100 611 q 313 924 211 857 q 549 990 414 990 q 776 935 681 990 q 924 777 872 881 q 975 532 975 674 q 920 245 975 368 q 763 56 865 122 q 525 -11 661 -11 m 526 67 q 719 122 638 67 q 843 283 800 178 q 886 532 886 388 q 799 815 886 717 q 549 913 711 913 q 356 857 438 913 q 232 696 275 801 q 189 446 189 590 q 276 165 189 263 q 526 67 364 67 m 414 1296 q 397 1304 403 1296 q 390 1325 390 1313 q 406 1369 390 1346 q 451 1407 422 1392 q 515 1422 479 1422 q 563 1414 539 1422 q 624 1390 588 1406 q 703 1364 679 1364 q 742 1374 728 1364 q 771 1400 757 1383 q 785 1414 778 1408 q 799 1419 792 1419 q 817 1411 810 1419 q 824 1392 824 1403 q 807 1347 824 1371 q 762 1308 790 1324 q 697 1293 733 1293 q 649 1301 674 1293 q 589 1325 625 1310 q 510 1351 533 1351 q 471 1342 485 1351 q 440 1315 457 1333 q 414 1296 426 1296 m 482 1068 q 453 1053 471 1053 q 428 1064 439 1053 q 417 1090 417 1075 q 425 1113 417 1103 l 553 1256 q 601 1279 574 1279 q 644 1256 629 1279 l 744 1117 q 754 1090 754 1103 q 744 1066 754 1076 q 719 1056 733 1056 q 683 1078 696 1056 l 597 1211 l 482 1068 z "},"Ȍ":{"ha":1051,"x_min":100,"x_max":975,"o":"m 525 -11 q 299 44 394 -11 q 151 202 203 99 q 100 447 100 306 q 156 734 100 611 q 313 924 211 857 q 549 990 414 990 q 776 935 681 990 q 924 777 872 881 q 975 532 975 674 q 920 245 975 368 q 763 56 865 122 q 525 -11 661 -11 m 526 67 q 719 122 638 67 q 843 283 800 178 q 886 532 886 388 q 799 815 886 717 q 549 913 711 913 q 356 857 438 913 q 232 696 275 801 q 189 446 189 590 q 276 165 189 263 q 526 67 364 67 m 386 1218 q 381 1239 381 1228 q 393 1267 381 1256 q 421 1279 406 1279 q 457 1247 446 1279 l 518 1088 q 519 1079 519 1085 q 513 1063 519 1069 q 497 1056 506 1056 q 478 1068 486 1056 l 386 1218 m 546 1218 q 539 1240 539 1229 q 551 1268 539 1257 q 579 1279 563 1279 q 617 1247 606 1279 l 676 1088 q 678 1078 678 1083 q 672 1062 678 1068 q 657 1056 665 1056 q 638 1068 646 1056 l 546 1218 z "},"Ö":{"ha":1051,"x_min":100,"x_max":975,"o":"m 525 -11 q 299 44 394 -11 q 151 202 203 99 q 100 447 100 306 q 156 734 100 611 q 313 924 211 857 q 549 990 414 990 q 776 935 681 990 q 924 777 872 881 q 975 532 975 674 q 920 245 975 368 q 763 56 865 122 q 525 -11 661 -11 m 526 67 q 719 122 638 67 q 843 283 800 178 q 886 532 886 388 q 799 815 886 717 q 549 913 711 913 q 356 857 438 913 q 232 696 275 801 q 189 446 189 590 q 276 165 189 263 q 526 67 364 67 m 476 1111 q 435 1127 451 1111 q 418 1168 418 1143 q 435 1209 418 1193 q 476 1225 451 1225 q 519 1209 501 1225 q 536 1168 536 1193 q 519 1127 536 1143 q 476 1111 501 1111 m 707 1111 q 665 1127 682 1111 q 647 1168 647 1143 q 665 1209 647 1193 q 707 1225 682 1225 q 749 1209 732 1225 q 765 1168 765 1193 q 749 1127 765 1143 q 707 1111 732 1111 z "},"Ȫ":{"ha":1051,"x_min":100,"x_max":975,"o":"m 525 -11 q 299 44 394 -11 q 151 202 203 99 q 100 447 100 306 q 156 734 100 611 q 313 924 211 857 q 549 990 414 990 q 776 935 681 990 q 924 777 872 881 q 975 532 975 674 q 920 245 975 368 q 763 56 865 122 q 525 -11 661 -11 m 526 67 q 719 122 638 67 q 843 283 800 178 q 886 532 886 388 q 799 815 886 717 q 549 913 711 913 q 356 857 438 913 q 232 696 275 801 q 189 446 189 590 q 276 165 189 263 q 526 67 364 67 m 476 1111 q 435 1127 451 1111 q 418 1168 418 1143 q 435 1209 418 1193 q 476 1225 451 1225 q 519 1209 501 1225 q 536 1168 536 1193 q 519 1127 536 1143 q 476 1111 501 1111 m 707 1111 q 665 1127 682 1111 q 647 1168 647 1143 q 665 1209 647 1193 q 707 1225 682 1225 q 749 1209 732 1225 q 765 1168 765 1193 q 749 1127 765 1143 q 707 1111 732 1111 m 439 1354 q 408 1364 418 1354 q 397 1390 397 1374 q 410 1417 397 1408 q 443 1426 422 1426 l 781 1426 q 822 1390 822 1426 q 810 1364 822 1374 q 776 1354 797 1354 l 439 1354 z "},"Ȱ":{"ha":1051,"x_min":100,"x_max":975,"o":"m 525 -11 q 299 44 394 -11 q 151 202 203 99 q 100 447 100 306 q 156 734 100 611 q 313 924 211 857 q 549 990 414 990 q 776 935 681 990 q 924 777 872 881 q 975 532 975 674 q 920 245 975 368 q 763 56 865 122 q 525 -11 661 -11 m 526 67 q 719 122 638 67 q 843 283 800 178 q 886 532 886 388 q 799 815 886 717 q 549 913 711 913 q 356 857 438 913 q 232 696 275 801 q 189 446 189 590 q 276 165 189 263 q 526 67 364 67 m 592 1108 q 547 1125 564 1108 q 529 1168 529 1142 q 547 1213 529 1196 q 592 1229 564 1229 q 637 1213 619 1229 q 654 1168 654 1196 q 637 1125 654 1142 q 592 1108 619 1108 m 439 1354 q 408 1364 418 1354 q 397 1390 397 1374 q 410 1417 397 1408 q 443 1426 422 1426 l 781 1426 q 822 1390 822 1426 q 810 1364 822 1374 q 776 1354 797 1354 l 439 1354 z "},"Ọ":{"ha":1051,"x_min":100,"x_max":975,"o":"m 525 -11 q 299 44 394 -11 q 151 202 203 99 q 100 447 100 306 q 156 734 100 611 q 313 924 211 857 q 549 990 414 990 q 776 935 681 990 q 924 777 872 881 q 975 532 975 674 q 920 245 975 368 q 763 56 865 122 q 525 -11 661 -11 m 526 67 q 719 122 638 67 q 843 283 800 178 q 886 532 886 388 q 799 815 886 717 q 549 913 711 913 q 356 857 438 913 q 232 696 275 801 q 189 446 189 590 q 276 165 189 263 q 526 67 364 67 m 483 -254 q 440 -237 457 -254 q 422 -193 422 -221 q 440 -150 422 -167 q 483 -133 457 -133 q 527 -150 510 -133 q 544 -193 544 -167 q 527 -237 544 -221 q 483 -254 510 -254 z "},"Ò":{"ha":1051,"x_min":100,"x_max":975,"o":"m 525 -11 q 299 44 394 -11 q 151 202 203 99 q 100 447 100 306 q 156 734 100 611 q 313 924 211 857 q 549 990 414 990 q 776 935 681 990 q 924 777 872 881 q 975 532 975 674 q 920 245 975 368 q 763 56 865 122 q 525 -11 661 -11 m 526 67 q 719 122 638 67 q 843 283 800 178 q 886 532 886 388 q 799 815 886 717 q 549 913 711 913 q 356 857 438 913 q 232 696 275 801 q 189 446 189 590 q 276 165 189 263 q 526 67 364 67 m 432 1217 q 421 1247 421 1232 q 432 1273 421 1263 q 458 1283 443 1283 q 499 1257 483 1283 l 593 1094 q 597 1079 597 1086 q 590 1063 597 1069 q 572 1056 583 1056 q 547 1068 558 1056 l 432 1217 z "},"Ỏ":{"ha":1051,"x_min":100,"x_max":975,"o":"m 525 -11 q 299 44 394 -11 q 151 202 203 99 q 100 447 100 306 q 156 734 100 611 q 313 924 211 857 q 549 990 414 990 q 776 935 681 990 q 924 777 872 881 q 975 532 975 674 q 920 245 975 368 q 763 56 865 122 q 525 -11 661 -11 m 526 67 q 719 122 638 67 q 843 283 800 178 q 886 532 886 388 q 799 815 886 717 q 549 913 711 913 q 356 857 438 913 q 232 696 275 801 q 189 446 189 590 q 276 165 189 263 q 526 67 364 67 m 619 1079 q 608 1062 618 1068 q 586 1056 599 1056 q 563 1065 572 1056 q 554 1089 553 1074 q 572 1125 556 1111 q 614 1153 588 1139 q 644 1171 635 1163 q 654 1190 654 1179 q 599 1215 654 1215 q 525 1204 563 1215 q 514 1203 521 1203 q 494 1210 501 1203 q 486 1229 486 1218 q 511 1261 486 1251 q 606 1278 554 1278 q 698 1256 664 1278 q 732 1196 732 1233 q 715 1149 732 1165 q 665 1118 697 1133 q 633 1099 644 1107 q 619 1079 622 1092 z "},"Ơ":{"ha":1051,"x_min":100,"x_max":1025,"o":"m 806 918 q 928 769 881 867 q 975 532 975 671 q 920 245 975 368 q 763 56 865 122 q 525 -11 661 -11 q 299 44 394 -11 q 151 202 203 99 q 100 447 100 306 q 156 735 100 613 q 315 924 211 857 q 563 990 419 990 q 658 985 594 990 q 775 979 731 979 q 901 1014 863 979 q 949 1133 940 1049 q 989 1176 951 1176 q 1025 1132 1025 1176 q 968 981 1025 1039 q 806 918 911 924 m 526 67 q 719 122 638 67 q 843 283 800 178 q 886 532 886 388 q 799 815 886 717 q 549 913 711 913 q 356 857 438 913 q 232 696 275 801 q 189 446 189 590 q 276 165 189 263 q 526 67 364 67 z "},"Ớ":{"ha":1051,"x_min":100,"x_max":1025,"o":"m 806 918 q 928 769 881 867 q 975 532 975 671 q 920 245 975 368 q 763 56 865 122 q 525 -11 661 -11 q 299 44 394 -11 q 151 202 203 99 q 100 447 100 306 q 156 735 100 613 q 315 924 211 857 q 563 990 419 990 q 658 985 594 990 q 775 979 731 979 q 901 1014 863 979 q 949 1133 940 1049 q 989 1176 951 1176 q 1025 1132 1025 1176 q 968 981 1025 1039 q 806 918 911 924 m 526 67 q 719 122 638 67 q 843 283 800 178 q 886 532 886 388 q 799 815 886 717 q 549 913 711 913 q 356 857 438 913 q 232 696 275 801 q 189 446 189 590 q 276 165 189 263 q 526 67 364 67 m 618 1068 q 592 1056 606 1056 q 576 1062 582 1056 q 569 1078 569 1068 q 576 1097 569 1086 l 690 1256 q 733 1282 711 1282 q 760 1272 749 1282 q 771 1246 771 1261 q 753 1208 771 1226 l 618 1068 z "},"Ợ":{"ha":1051,"x_min":100,"x_max":1025,"o":"m 806 918 q 928 769 881 867 q 975 532 975 671 q 920 245 975 368 q 763 56 865 122 q 525 -11 661 -11 q 299 44 394 -11 q 151 202 203 99 q 100 447 100 306 q 156 735 100 613 q 315 924 211 857 q 563 990 419 990 q 658 985 594 990 q 775 979 731 979 q 901 1014 863 979 q 949 1133 940 1049 q 989 1176 951 1176 q 1025 1132 1025 1176 q 968 981 1025 1039 q 806 918 911 924 m 526 67 q 719 122 638 67 q 843 283 800 178 q 886 532 886 388 q 799 815 886 717 q 549 913 711 913 q 356 857 438 913 q 232 696 275 801 q 189 446 189 590 q 276 165 189 263 q 526 67 364 67 m 485 -254 q 441 -237 458 -254 q 424 -193 424 -221 q 441 -150 424 -167 q 485 -133 458 -133 q 528 -150 511 -133 q 546 -193 546 -167 q 528 -237 546 -221 q 485 -254 511 -254 z "},"Ờ":{"ha":1051,"x_min":100,"x_max":1025,"o":"m 806 918 q 928 769 881 867 q 975 532 975 671 q 920 245 975 368 q 763 56 865 122 q 525 -11 661 -11 q 299 44 394 -11 q 151 202 203 99 q 100 447 100 306 q 156 735 100 613 q 315 924 211 857 q 563 990 419 990 q 658 985 594 990 q 775 979 731 979 q 901 1014 863 979 q 949 1133 940 1049 q 989 1176 951 1176 q 1025 1132 1025 1176 q 968 981 1025 1039 q 806 918 911 924 m 526 67 q 719 122 638 67 q 843 283 800 178 q 886 532 886 388 q 799 815 886 717 q 549 913 711 913 q 356 857 438 913 q 232 696 275 801 q 189 446 189 590 q 276 165 189 263 q 526 67 364 67 m 432 1217 q 421 1247 421 1232 q 432 1273 421 1263 q 458 1283 443 1283 q 499 1257 483 1283 l 593 1094 q 597 1079 597 1086 q 590 1063 597 1069 q 572 1056 583 1056 q 547 1068 558 1056 l 432 1217 z "},"Ở":{"ha":1051,"x_min":100,"x_max":1025,"o":"m 806 918 q 928 769 881 867 q 975 532 975 671 q 920 245 975 368 q 763 56 865 122 q 525 -11 661 -11 q 299 44 394 -11 q 151 202 203 99 q 100 447 100 306 q 156 735 100 613 q 315 924 211 857 q 563 990 419 990 q 658 985 594 990 q 775 979 731 979 q 901 1014 863 979 q 949 1133 940 1049 q 989 1176 951 1176 q 1025 1132 1025 1176 q 968 981 1025 1039 q 806 918 911 924 m 526 67 q 719 122 638 67 q 843 283 800 178 q 886 532 886 388 q 799 815 886 717 q 549 913 711 913 q 356 857 438 913 q 232 696 275 801 q 189 446 189 590 q 276 165 189 263 q 526 67 364 67 m 619 1079 q 608 1062 618 1068 q 586 1056 599 1056 q 563 1065 572 1056 q 554 1089 553 1074 q 572 1125 556 1111 q 614 1153 588 1139 q 644 1171 635 1163 q 654 1190 654 1179 q 599 1215 654 1215 q 525 1204 563 1215 q 514 1203 521 1203 q 494 1210 501 1203 q 486 1229 486 1218 q 511 1261 486 1251 q 606 1278 554 1278 q 698 1256 664 1278 q 732 1196 732 1233 q 715 1149 732 1165 q 665 1118 697 1133 q 633 1099 644 1107 q 619 1079 622 1092 z "},"Ỡ":{"ha":1051,"x_min":100,"x_max":1025,"o":"m 806 918 q 928 769 881 867 q 975 532 975 671 q 920 245 975 368 q 763 56 865 122 q 525 -11 661 -11 q 299 44 394 -11 q 151 202 203 99 q 100 447 100 306 q 156 735 100 613 q 315 924 211 857 q 563 990 419 990 q 658 985 594 990 q 775 979 731 979 q 901 1014 863 979 q 949 1133 940 1049 q 989 1176 951 1176 q 1025 1132 1025 1176 q 968 981 1025 1039 q 806 918 911 924 m 526 67 q 719 122 638 67 q 843 283 800 178 q 886 532 886 388 q 799 815 886 717 q 549 913 711 913 q 356 857 438 913 q 232 696 275 801 q 189 446 189 590 q 276 165 189 263 q 526 67 364 67 m 682 1100 q 575 1136 642 1100 q 533 1156 554 1147 q 496 1164 511 1164 q 455 1153 469 1164 q 425 1124 440 1143 q 399 1104 410 1104 q 381 1113 388 1104 q 375 1133 375 1121 q 392 1180 375 1156 q 437 1221 408 1204 q 501 1238 465 1238 q 608 1201 542 1238 q 651 1182 629 1190 q 688 1174 672 1174 q 728 1184 714 1174 q 758 1214 743 1194 q 770 1228 764 1222 q 783 1235 776 1235 q 801 1226 794 1235 q 808 1206 808 1218 q 792 1158 808 1183 q 746 1117 775 1133 q 682 1100 717 1100 z "},"Ő":{"ha":1051,"x_min":100,"x_max":975,"o":"m 525 -11 q 299 44 394 -11 q 151 202 203 99 q 100 447 100 306 q 156 734 100 611 q 313 924 211 857 q 549 990 414 990 q 776 935 681 990 q 924 777 872 881 q 975 532 975 674 q 920 245 975 368 q 763 56 865 122 q 525 -11 661 -11 m 526 67 q 719 122 638 67 q 843 283 800 178 q 886 532 886 388 q 799 815 886 717 q 549 913 711 913 q 356 857 438 913 q 232 696 275 801 q 189 446 189 590 q 276 165 189 263 q 526 67 364 67 m 528 1067 q 508 1056 521 1056 q 494 1060 500 1056 q 489 1074 489 1065 q 493 1088 489 1082 l 576 1247 q 619 1279 592 1279 q 643 1269 633 1279 q 653 1246 653 1260 q 640 1215 653 1232 l 528 1067 m 688 1067 q 668 1056 681 1056 q 654 1060 660 1056 q 649 1074 649 1065 q 653 1088 649 1082 l 736 1247 q 779 1279 751 1279 q 802 1269 793 1279 q 811 1246 811 1260 q 800 1215 811 1231 l 688 1067 z "},"Ȏ":{"ha":1051,"x_min":100,"x_max":975,"o":"m 525 -11 q 299 44 394 -11 q 151 202 203 99 q 100 447 100 306 q 156 734 100 611 q 313 924 211 857 q 549 990 414 990 q 776 935 681 990 q 924 777 872 881 q 975 532 975 674 q 920 245 975 368 q 763 56 865 122 q 525 -11 661 -11 m 526 67 q 719 122 638 67 q 843 283 800 178 q 886 532 886 388 q 799 815 886 717 q 549 913 711 913 q 356 857 438 913 q 232 696 275 801 q 189 446 189 590 q 276 165 189 263 q 526 67 364 67 m 597 1256 q 719 1225 667 1256 q 796 1133 771 1194 q 800 1114 800 1124 q 790 1090 800 1100 q 767 1081 781 1081 q 731 1104 744 1081 q 674 1167 707 1147 q 594 1188 640 1188 q 512 1167 547 1188 q 444 1104 476 1147 q 404 1081 429 1081 q 381 1088 390 1081 q 372 1110 372 1096 q 379 1133 372 1124 q 471 1224 414 1193 q 597 1256 528 1256 z "},"Ō":{"ha":1051,"x_min":100,"x_max":975,"o":"m 525 -11 q 299 44 394 -11 q 151 202 203 99 q 100 447 100 306 q 156 734 100 611 q 313 924 211 857 q 549 990 414 990 q 776 935 681 990 q 924 777 872 881 q 975 532 975 674 q 920 245 975 368 q 763 56 865 122 q 525 -11 661 -11 m 526 67 q 719 122 638 67 q 843 283 800 178 q 886 532 886 388 q 799 815 886 717 q 549 913 711 913 q 356 857 438 913 q 232 696 275 801 q 189 446 189 590 q 276 165 189 263 q 526 67 364 67 m 421 1132 q 390 1142 400 1132 q 379 1168 379 1151 q 392 1195 379 1186 q 425 1204 404 1204 l 763 1204 q 804 1168 804 1204 q 792 1142 804 1151 q 758 1132 779 1132 l 421 1132 z "},"Ṓ":{"ha":1051,"x_min":100,"x_max":975,"o":"m 525 -11 q 299 44 394 -11 q 151 202 203 99 q 100 447 100 306 q 156 734 100 611 q 313 924 211 857 q 549 990 414 990 q 776 935 681 990 q 924 777 872 881 q 975 532 975 674 q 920 245 975 368 q 763 56 865 122 q 525 -11 661 -11 m 526 67 q 719 122 638 67 q 843 283 800 178 q 886 532 886 388 q 799 815 886 717 q 549 913 711 913 q 356 857 438 913 q 232 696 275 801 q 189 446 189 590 q 276 165 189 263 q 526 67 364 67 m 421 1132 q 390 1142 400 1132 q 379 1168 379 1151 q 392 1195 379 1186 q 425 1204 404 1204 l 763 1204 q 804 1168 804 1204 q 792 1142 804 1151 q 758 1132 779 1132 l 421 1132 m 636 1290 q 610 1278 624 1278 q 594 1284 600 1278 q 588 1300 588 1290 q 594 1319 588 1308 l 708 1478 q 751 1504 729 1504 q 778 1494 767 1504 q 789 1468 789 1483 q 771 1431 789 1449 l 636 1290 z "},"Ṑ":{"ha":1051,"x_min":100,"x_max":975,"o":"m 525 -11 q 299 44 394 -11 q 151 202 203 99 q 100 447 100 306 q 156 734 100 611 q 313 924 211 857 q 549 990 414 990 q 776 935 681 990 q 924 777 872 881 q 975 532 975 674 q 920 245 975 368 q 763 56 865 122 q 525 -11 661 -11 m 526 67 q 719 122 638 67 q 843 283 800 178 q 886 532 886 388 q 799 815 886 717 q 549 913 711 913 q 356 857 438 913 q 232 696 275 801 q 189 446 189 590 q 276 165 189 263 q 526 67 364 67 m 421 1132 q 390 1142 400 1132 q 379 1168 379 1151 q 392 1195 379 1186 q 425 1204 404 1204 l 763 1204 q 804 1168 804 1204 q 792 1142 804 1151 q 758 1132 779 1132 l 421 1132 m 450 1439 q 439 1469 439 1454 q 450 1495 439 1485 q 476 1506 461 1506 q 517 1479 501 1506 l 611 1317 q 615 1301 615 1308 q 608 1285 615 1292 q 590 1278 601 1278 q 565 1290 576 1278 l 450 1439 z "},"Ǫ":{"ha":1051,"x_min":100,"x_max":975,"o":"m 629 0 q 513 -118 513 -26 q 535 -181 513 -160 q 597 -203 557 -203 q 665 -185 629 -203 q 683 -181 676 -181 q 700 -187 694 -181 q 706 -206 706 -194 q 700 -226 706 -215 q 683 -242 694 -236 q 588 -265 638 -265 q 477 -228 518 -265 q 436 -129 436 -190 q 490 -10 436 -53 q 283 52 371 -4 q 147 210 194 108 q 100 447 100 311 q 156 734 100 611 q 313 924 211 857 q 549 990 414 990 q 777 935 681 990 q 924 777 874 881 q 975 532 975 674 q 881 172 975 308 q 629 0 786 36 m 189 446 q 276 165 189 263 q 526 67 364 67 q 719 122 638 67 q 843 283 800 178 q 886 532 886 388 q 799 815 886 717 q 549 913 711 913 q 356 857 438 913 q 232 696 275 801 q 189 446 189 590 z "},"Ø":{"ha":1051,"x_min":100,"x_max":975,"o":"m 846 885 q 942 735 908 825 q 975 532 975 646 q 920 245 975 368 q 763 56 865 122 q 525 -11 661 -11 q 289 49 389 -11 l 238 -29 q 204 -49 224 -49 q 180 -39 190 -49 q 169 -14 169 -29 q 178 11 169 -1 l 232 93 q 134 242 168 151 q 100 447 100 332 q 156 734 100 611 q 313 924 211 857 q 549 990 414 990 q 788 929 689 990 l 840 1008 q 874 1028 854 1028 q 899 1018 889 1028 q 910 993 910 1008 q 901 968 910 981 l 846 885 m 189 446 q 278 163 189 260 l 743 863 q 549 913 667 913 q 356 857 438 913 q 232 696 275 801 q 189 446 189 590 m 526 67 q 719 122 638 67 q 843 283 800 178 q 886 532 886 388 q 799 814 886 715 l 335 115 q 526 67 413 67 z "},"Ǿ":{"ha":1051,"x_min":100,"x_max":975,"o":"m 846 885 q 942 735 908 825 q 975 532 975 646 q 920 245 975 368 q 763 56 865 122 q 525 -11 661 -11 q 289 49 389 -11 l 238 -29 q 204 -49 224 -49 q 180 -39 190 -49 q 169 -14 169 -29 q 178 11 169 -1 l 232 93 q 134 242 168 151 q 100 447 100 332 q 156 734 100 611 q 313 924 211 857 q 549 990 414 990 q 788 929 689 990 l 840 1008 q 874 1028 854 1028 q 899 1018 889 1028 q 910 993 910 1008 q 901 968 910 981 l 846 885 m 189 446 q 278 163 189 260 l 743 863 q 549 913 667 913 q 356 857 438 913 q 232 696 275 801 q 189 446 189 590 m 526 67 q 719 122 638 67 q 843 283 800 178 q 886 532 886 388 q 799 814 886 715 l 335 115 q 526 67 413 67 m 618 1068 q 592 1056 606 1056 q 576 1062 582 1056 q 569 1078 569 1068 q 576 1097 569 1086 l 690 1256 q 733 1282 711 1282 q 760 1272 749 1282 q 771 1246 771 1261 q 753 1208 771 1226 l 618 1068 z "},"Õ":{"ha":1051,"x_min":100,"x_max":975,"o":"m 525 -11 q 299 44 394 -11 q 151 202 203 99 q 100 447 100 306 q 156 734 100 611 q 313 924 211 857 q 549 990 414 990 q 776 935 681 990 q 924 777 872 881 q 975 532 975 674 q 920 245 975 368 q 763 56 865 122 q 525 -11 661 -11 m 526 67 q 719 122 638 67 q 843 283 800 178 q 886 532 886 388 q 799 815 886 717 q 549 913 711 913 q 356 857 438 913 q 232 696 275 801 q 189 446 189 590 q 276 165 189 263 q 526 67 364 67 m 682 1100 q 575 1136 642 1100 q 533 1156 554 1147 q 496 1164 511 1164 q 455 1153 469 1164 q 425 1124 440 1143 q 399 1104 410 1104 q 381 1113 388 1104 q 375 1133 375 1121 q 392 1180 375 1156 q 437 1221 408 1204 q 501 1238 465 1238 q 608 1201 542 1238 q 651 1182 629 1190 q 688 1174 672 1174 q 728 1184 714 1174 q 758 1214 743 1194 q 770 1228 764 1222 q 783 1235 776 1235 q 801 1226 794 1235 q 808 1206 808 1218 q 792 1158 808 1183 q 746 1117 775 1133 q 682 1100 717 1100 z "},"Ṍ":{"ha":1051,"x_min":100,"x_max":975,"o":"m 525 -11 q 299 44 394 -11 q 151 202 203 99 q 100 447 100 306 q 156 734 100 611 q 313 924 211 857 q 549 990 414 990 q 776 935 681 990 q 924 777 872 881 q 975 532 975 674 q 920 245 975 368 q 763 56 865 122 q 525 -11 661 -11 m 526 67 q 719 122 638 67 q 843 283 800 178 q 886 532 886 388 q 799 815 886 717 q 549 913 711 913 q 356 857 438 913 q 232 696 275 801 q 189 446 189 590 q 276 165 189 263 q 526 67 364 67 m 682 1100 q 575 1136 642 1100 q 533 1156 554 1147 q 496 1164 511 1164 q 455 1153 469 1164 q 425 1124 440 1143 q 399 1104 410 1104 q 381 1113 388 1104 q 375 1133 375 1121 q 392 1180 375 1156 q 437 1221 408 1204 q 501 1238 465 1238 q 608 1201 542 1238 q 651 1182 629 1190 q 688 1174 672 1174 q 728 1184 714 1174 q 758 1214 743 1194 q 770 1228 764 1222 q 783 1235 776 1235 q 801 1226 794 1235 q 808 1206 808 1218 q 792 1158 808 1183 q 746 1117 775 1133 q 682 1100 717 1100 m 636 1290 q 610 1278 624 1278 q 594 1284 600 1278 q 588 1300 588 1290 q 594 1319 588 1308 l 708 1478 q 751 1504 729 1504 q 778 1494 767 1504 q 789 1468 789 1483 q 771 1431 789 1449 l 636 1290 z "},"Ṏ":{"ha":1051,"x_min":100,"x_max":975,"o":"m 525 -11 q 299 44 394 -11 q 151 202 203 99 q 100 447 100 306 q 156 734 100 611 q 313 924 211 857 q 549 990 414 990 q 776 935 681 990 q 924 777 872 881 q 975 532 975 674 q 920 245 975 368 q 763 56 865 122 q 525 -11 661 -11 m 526 67 q 719 122 638 67 q 843 283 800 178 q 886 532 886 388 q 799 815 886 717 q 549 913 711 913 q 356 857 438 913 q 232 696 275 801 q 189 446 189 590 q 276 165 189 263 q 526 67 364 67 m 682 1100 q 575 1136 642 1100 q 533 1156 554 1147 q 496 1164 511 1164 q 455 1153 469 1164 q 425 1124 440 1143 q 399 1104 410 1104 q 381 1113 388 1104 q 375 1133 375 1121 q 392 1180 375 1156 q 437 1221 408 1204 q 501 1238 465 1238 q 608 1201 542 1238 q 651 1182 629 1190 q 688 1174 672 1174 q 728 1184 714 1174 q 758 1214 743 1194 q 770 1228 764 1222 q 783 1235 776 1235 q 801 1226 794 1235 q 808 1206 808 1218 q 792 1158 808 1183 q 746 1117 775 1133 q 682 1100 717 1100 m 494 1333 q 453 1349 469 1333 q 436 1390 436 1365 q 453 1431 436 1415 q 494 1447 469 1447 q 537 1431 519 1447 q 554 1390 554 1415 q 537 1349 554 1365 q 494 1333 519 1333 m 725 1333 q 683 1349 700 1333 q 665 1390 665 1365 q 683 1431 665 1415 q 725 1447 700 1447 q 767 1431 750 1447 q 783 1390 783 1415 q 767 1349 783 1365 q 725 1333 750 1333 z "},"Ȭ":{"ha":1051,"x_min":100,"x_max":975,"o":"m 525 -11 q 299 44 394 -11 q 151 202 203 99 q 100 447 100 306 q 156 734 100 611 q 313 924 211 857 q 549 990 414 990 q 776 935 681 990 q 924 777 872 881 q 975 532 975 674 q 920 245 975 368 q 763 56 865 122 q 525 -11 661 -11 m 526 67 q 719 122 638 67 q 843 283 800 178 q 886 532 886 388 q 799 815 886 717 q 549 913 711 913 q 356 857 438 913 q 232 696 275 801 q 189 446 189 590 q 276 165 189 263 q 526 67 364 67 m 682 1100 q 575 1136 642 1100 q 533 1156 554 1147 q 496 1164 511 1164 q 455 1153 469 1164 q 425 1124 440 1143 q 399 1104 410 1104 q 381 1113 388 1104 q 375 1133 375 1121 q 392 1180 375 1156 q 437 1221 408 1204 q 501 1238 465 1238 q 608 1201 542 1238 q 651 1182 629 1190 q 688 1174 672 1174 q 728 1184 714 1174 q 758 1214 743 1194 q 770 1228 764 1222 q 783 1235 776 1235 q 801 1226 794 1235 q 808 1206 808 1218 q 792 1158 808 1183 q 746 1117 775 1133 q 682 1100 717 1100 m 439 1354 q 408 1364 418 1354 q 397 1390 397 1374 q 410 1417 397 1408 q 443 1426 422 1426 l 781 1426 q 822 1390 822 1426 q 810 1364 822 1374 q 776 1354 797 1354 l 439 1354 z "},"Œ":{"ha":1453,"x_min":100,"x_max":1436,"o":"m 1397 979 q 1426 969 1415 979 q 1436 943 1436 958 q 1426 916 1436 926 q 1397 906 1415 906 l 904 906 l 875 535 l 1335 535 q 1363 524 1353 535 q 1374 497 1374 514 q 1363 471 1374 482 q 1335 460 1353 460 l 869 460 l 839 74 l 1328 74 q 1355 63 1344 74 q 1365 38 1365 53 q 1355 10 1365 21 q 1326 0 1344 0 l 554 0 q 217 117 335 0 q 100 447 100 233 q 157 732 100 613 q 324 915 214 851 q 589 979 433 979 l 1397 979 m 821 906 l 592 906 q 291 786 393 906 q 189 446 189 667 q 281 168 189 263 q 558 74 374 74 l 756 74 l 821 906 z "},"P":{"ha":886,"x_min":101,"x_max":849,"o":"m 539 979 q 769 908 689 979 q 849 714 849 838 q 757 488 849 564 q 504 413 665 413 l 217 413 l 188 33 q 174 4 186 15 q 144 -7 161 -7 q 114 6 126 -7 q 103 38 101 18 l 174 938 q 219 979 176 979 l 539 979 m 503 486 q 763 711 763 486 q 706 856 763 806 q 536 906 650 906 l 256 906 l 222 486 l 503 486 z "},"Þ":{"ha":886,"x_min":103,"x_max":832,"o":"m 538 758 q 756 696 679 758 q 832 513 832 633 q 749 310 832 383 q 507 238 665 238 l 204 238 l 189 33 q 175 4 188 15 q 146 -7 163 -7 q 115 6 128 -7 q 104 38 103 18 l 175 946 q 189 975 176 964 q 218 986 201 986 q 249 974 236 986 q 260 942 261 963 l 246 758 l 538 758 m 503 311 q 687 361 628 311 q 746 511 746 411 q 692 643 746 601 q 533 685 639 685 l 240 685 l 211 311 l 503 311 z "},"Q":{"ha":1051,"x_min":100,"x_max":975,"o":"m 975 532 q 894 192 975 331 q 660 10 813 54 q 706 -24 685 -1 q 746 -86 726 -47 l 806 -197 q 811 -218 811 -207 q 799 -245 811 -235 q 769 -256 786 -256 q 729 -231 743 -256 l 657 -96 q 499 -10 611 -14 q 290 49 379 -6 q 150 206 200 104 q 100 447 100 307 q 156 734 100 611 q 313 924 211 857 q 549 990 414 990 q 776 935 681 990 q 924 777 872 881 q 975 532 975 674 m 526 67 q 719 122 638 67 q 843 283 800 178 q 886 532 886 388 q 799 815 886 717 q 549 913 711 913 q 356 857 438 913 q 232 696 275 801 q 189 446 189 590 q 276 165 189 263 q 526 67 364 67 z "},"R":{"ha":947,"x_min":101,"x_max":869,"o":"m 838 50 q 843 29 843 40 q 831 3 843 14 q 801 -7 818 -7 q 761 19 775 -7 l 601 314 q 527 401 568 378 q 411 425 486 425 l 219 425 l 189 33 q 176 3 188 14 q 144 -7 164 -7 q 113 5 125 -7 q 104 39 101 17 l 174 936 q 188 967 175 956 q 221 979 201 979 l 561 979 q 790 914 710 979 q 869 724 869 849 q 797 522 869 596 q 585 436 725 447 q 638 398 615 424 q 686 328 661 372 l 838 50 m 528 499 q 721 552 657 499 q 785 718 785 606 q 728 860 785 814 q 560 906 672 906 l 257 906 l 225 499 l 528 499 z "},"Ŕ":{"ha":947,"x_min":104,"x_max":869,"o":"m 838 50 q 843 29 843 40 q 831 3 843 14 q 801 -7 818 -7 q 761 19 775 -7 l 601 314 q 527 401 568 378 q 411 425 486 425 l 219 425 l 189 33 q 176 3 188 14 q 144 -7 164 -7 q 113 5 125 -7 q 104 39 101 17 l 174 936 q 188 967 175 956 q 221 979 201 979 l 561 979 q 790 914 710 979 q 869 724 869 849 q 797 522 869 596 q 585 436 725 447 q 638 398 615 424 q 686 328 661 372 l 838 50 m 528 499 q 721 552 657 499 q 785 718 785 606 q 728 860 785 814 q 560 906 672 906 l 257 906 l 225 499 l 528 499 m 561 1068 q 535 1056 549 1056 q 519 1062 525 1056 q 513 1078 513 1068 q 519 1097 513 1086 l 633 1256 q 676 1282 654 1282 q 703 1272 692 1282 q 714 1246 714 1261 q 696 1208 714 1226 l 561 1068 z "},"Ř":{"ha":947,"x_min":104,"x_max":869,"o":"m 838 50 q 843 29 843 40 q 831 3 843 14 q 801 -7 818 -7 q 761 19 775 -7 l 601 314 q 527 401 568 378 q 411 425 486 425 l 219 425 l 189 33 q 176 3 188 14 q 144 -7 164 -7 q 113 5 125 -7 q 104 39 101 17 l 174 936 q 188 967 175 956 q 221 979 201 979 l 561 979 q 790 914 710 979 q 869 724 869 849 q 797 522 869 596 q 585 436 725 447 q 638 398 615 424 q 686 328 661 372 l 838 50 m 528 499 q 721 552 657 499 q 785 718 785 606 q 728 860 785 814 q 560 906 672 906 l 257 906 l 225 499 l 528 499 m 642 1264 q 672 1281 654 1281 q 699 1269 688 1281 q 710 1244 710 1258 q 700 1221 710 1231 l 572 1076 q 524 1053 551 1053 q 481 1076 497 1053 l 381 1218 q 371 1244 371 1232 q 381 1268 371 1258 q 407 1278 392 1278 q 443 1256 431 1278 l 528 1121 l 642 1264 z "},"Ŗ":{"ha":947,"x_min":104,"x_max":869,"o":"m 838 50 q 843 29 843 40 q 831 3 843 14 q 801 -7 818 -7 q 761 19 775 -7 l 601 314 q 527 401 568 378 q 411 425 486 425 l 219 425 l 189 33 q 176 3 188 14 q 144 -7 164 -7 q 113 5 125 -7 q 104 39 101 17 l 174 936 q 188 967 175 956 q 221 979 201 979 l 561 979 q 790 914 710 979 q 869 724 869 849 q 797 522 869 596 q 585 436 725 447 q 638 398 615 424 q 686 328 661 372 l 838 50 m 528 499 q 721 552 657 499 q 785 718 785 606 q 728 860 785 814 q 560 906 672 906 l 257 906 l 225 499 l 528 499 m 433 -96 q 479 -114 463 -96 q 496 -168 496 -132 q 478 -256 496 -212 q 424 -336 461 -299 q 393 -351 408 -351 q 375 -344 382 -351 q 368 -328 368 -337 q 379 -304 368 -318 q 429 -212 418 -261 q 387 -198 403 -212 q 371 -158 371 -183 q 388 -114 371 -132 q 433 -96 406 -96 z "},"Ȑ":{"ha":947,"x_min":104,"x_max":869,"o":"m 838 50 q 843 29 843 40 q 831 3 843 14 q 801 -7 818 -7 q 761 19 775 -7 l 601 314 q 527 401 568 378 q 411 425 486 425 l 219 425 l 189 33 q 176 3 188 14 q 144 -7 164 -7 q 113 5 125 -7 q 104 39 101 17 l 174 936 q 188 967 175 956 q 221 979 201 979 l 561 979 q 790 914 710 979 q 869 724 869 849 q 797 522 869 596 q 585 436 725 447 q 638 398 615 424 q 686 328 661 372 l 838 50 m 528 499 q 721 552 657 499 q 785 718 785 606 q 728 860 785 814 q 560 906 672 906 l 257 906 l 225 499 l 528 499 m 329 1218 q 324 1239 324 1228 q 336 1267 324 1256 q 364 1279 349 1279 q 400 1247 389 1279 l 461 1088 q 463 1079 463 1085 q 456 1063 463 1069 q 440 1056 449 1056 q 421 1068 429 1056 l 329 1218 m 489 1218 q 482 1240 482 1229 q 494 1268 482 1257 q 522 1279 506 1279 q 560 1247 549 1279 l 619 1088 q 621 1078 621 1083 q 615 1062 621 1068 q 600 1056 608 1056 q 581 1068 589 1056 l 489 1218 z "},"Ṛ":{"ha":947,"x_min":104,"x_max":869,"o":"m 838 50 q 843 29 843 40 q 831 3 843 14 q 801 -7 818 -7 q 761 19 775 -7 l 601 314 q 527 401 568 378 q 411 425 486 425 l 219 425 l 189 33 q 176 3 188 14 q 144 -7 164 -7 q 113 5 125 -7 q 104 39 101 17 l 174 936 q 188 967 175 956 q 221 979 201 979 l 561 979 q 790 914 710 979 q 869 724 869 849 q 797 522 869 596 q 585 436 725 447 q 638 398 615 424 q 686 328 661 372 l 838 50 m 528 499 q 721 552 657 499 q 785 718 785 606 q 728 860 785 814 q 560 906 672 906 l 257 906 l 225 499 l 528 499 m 426 -254 q 383 -237 400 -254 q 365 -193 365 -221 q 383 -150 365 -167 q 426 -133 400 -133 q 470 -150 453 -133 q 488 -193 488 -167 q 470 -237 488 -221 q 426 -254 453 -254 z "},"Ȓ":{"ha":947,"x_min":104,"x_max":869,"o":"m 838 50 q 843 29 843 40 q 831 3 843 14 q 801 -7 818 -7 q 761 19 775 -7 l 601 314 q 527 401 568 378 q 411 425 486 425 l 219 425 l 189 33 q 176 3 188 14 q 144 -7 164 -7 q 113 5 125 -7 q 104 39 101 17 l 174 936 q 188 967 175 956 q 221 979 201 979 l 561 979 q 790 914 710 979 q 869 724 869 849 q 797 522 869 596 q 585 436 725 447 q 638 398 615 424 q 686 328 661 372 l 838 50 m 528 499 q 721 552 657 499 q 785 718 785 606 q 728 860 785 814 q 560 906 672 906 l 257 906 l 225 499 l 528 499 m 540 1256 q 662 1225 610 1256 q 739 1133 714 1194 q 743 1114 743 1124 q 733 1090 743 1100 q 710 1081 724 1081 q 674 1104 688 1081 q 617 1167 650 1147 q 538 1188 583 1188 q 455 1167 490 1188 q 388 1104 419 1147 q 347 1081 372 1081 q 324 1088 333 1081 q 315 1110 315 1096 q 322 1133 315 1124 q 414 1224 357 1193 q 540 1256 471 1256 z "},"Ṟ":{"ha":947,"x_min":104,"x_max":869,"o":"m 838 50 q 843 29 843 40 q 831 3 843 14 q 801 -7 818 -7 q 761 19 775 -7 l 601 314 q 527 401 568 378 q 411 425 486 425 l 219 425 l 189 33 q 176 3 188 14 q 144 -7 164 -7 q 113 5 125 -7 q 104 39 101 17 l 174 936 q 188 967 175 956 q 221 979 201 979 l 561 979 q 790 914 710 979 q 869 724 869 849 q 797 522 869 596 q 585 436 725 447 q 638 398 615 424 q 686 328 661 372 l 838 50 m 528 499 q 721 552 657 499 q 785 718 785 606 q 728 860 785 814 q 560 906 672 906 l 257 906 l 225 499 l 528 499 m 256 -229 q 224 -220 235 -229 q 214 -194 214 -211 q 226 -167 214 -176 q 260 -158 239 -158 l 597 -158 q 639 -193 639 -158 q 626 -219 639 -210 q 593 -229 614 -229 l 256 -229 z "},"S":{"ha":843,"x_min":47,"x_max":818,"o":"m 419 -11 q 69 103 199 -11 q 47 146 47 121 q 57 174 47 163 q 81 185 67 185 q 103 176 94 185 q 248 91 172 118 q 419 64 324 64 q 617 114 549 64 q 685 253 685 164 q 652 340 685 306 q 569 394 619 375 q 436 438 519 414 q 268 494 332 467 q 160 575 204 521 q 115 718 115 629 q 158 862 115 800 q 281 957 201 924 q 468 990 361 990 q 656 958 568 990 q 804 868 743 926 q 818 835 818 854 q 808 808 818 819 q 782 796 797 796 q 749 810 764 796 q 622 888 693 860 q 468 915 550 915 q 271 864 339 915 q 203 721 203 813 q 238 622 203 661 q 326 563 274 583 q 467 517 379 542 q 628 462 568 488 q 731 387 689 436 q 772 257 772 338 q 677 61 772 133 q 419 -11 582 -11 z "},"Ś":{"ha":843,"x_min":47,"x_max":818,"o":"m 419 -11 q 69 103 199 -11 q 47 146 47 121 q 57 174 47 163 q 81 185 67 185 q 103 176 94 185 q 248 91 172 118 q 419 64 324 64 q 617 114 549 64 q 685 253 685 164 q 652 340 685 306 q 569 394 619 375 q 436 438 519 414 q 268 494 332 467 q 160 575 204 521 q 115 718 115 629 q 158 862 115 800 q 281 957 201 924 q 468 990 361 990 q 656 958 568 990 q 804 868 743 926 q 818 835 818 854 q 808 808 818 819 q 782 796 797 796 q 749 810 764 796 q 622 888 693 860 q 468 915 550 915 q 271 864 339 915 q 203 721 203 813 q 238 622 203 661 q 326 563 274 583 q 467 517 379 542 q 628 462 568 488 q 731 387 689 436 q 772 257 772 338 q 677 61 772 133 q 419 -11 582 -11 m 515 1068 q 489 1056 503 1056 q 473 1062 479 1056 q 467 1078 467 1068 q 474 1097 467 1086 l 588 1256 q 631 1282 608 1282 q 657 1272 646 1282 q 668 1246 668 1261 q 650 1208 668 1226 l 515 1068 z "},"Ṥ":{"ha":843,"x_min":47,"x_max":818,"o":"m 419 -11 q 69 103 199 -11 q 47 146 47 121 q 57 174 47 163 q 81 185 67 185 q 103 176 94 185 q 248 91 172 118 q 419 64 324 64 q 617 114 549 64 q 685 253 685 164 q 652 340 685 306 q 569 394 619 375 q 436 438 519 414 q 268 494 332 467 q 160 575 204 521 q 115 718 115 629 q 158 862 115 800 q 281 957 201 924 q 468 990 361 990 q 656 958 568 990 q 804 868 743 926 q 818 835 818 854 q 808 808 818 819 q 782 796 797 796 q 749 810 764 796 q 622 888 693 860 q 468 915 550 915 q 271 864 339 915 q 203 721 203 813 q 238 622 203 661 q 326 563 274 583 q 467 517 379 542 q 628 462 568 488 q 731 387 689 436 q 772 257 772 338 q 677 61 772 133 q 419 -11 582 -11 m 518 1068 q 492 1056 506 1056 q 476 1062 482 1056 q 469 1078 469 1068 q 476 1097 469 1086 l 590 1256 q 633 1282 611 1282 q 660 1272 649 1282 q 671 1246 671 1261 q 653 1208 671 1226 l 518 1068 m 336 1158 q 291 1175 308 1158 q 274 1218 274 1192 q 291 1263 274 1246 q 336 1279 308 1279 q 381 1263 364 1279 q 399 1218 399 1246 q 381 1175 399 1192 q 336 1158 364 1158 z "},"Š":{"ha":843,"x_min":47,"x_max":818,"o":"m 419 -11 q 69 103 199 -11 q 47 146 47 121 q 57 174 47 163 q 81 185 67 185 q 103 176 94 185 q 248 91 172 118 q 419 64 324 64 q 617 114 549 64 q 685 253 685 164 q 652 340 685 306 q 569 394 619 375 q 436 438 519 414 q 268 494 332 467 q 160 575 204 521 q 115 718 115 629 q 158 862 115 800 q 281 957 201 924 q 468 990 361 990 q 656 958 568 990 q 804 868 743 926 q 818 835 818 854 q 808 808 818 819 q 782 796 797 796 q 749 810 764 796 q 622 888 693 860 q 468 915 550 915 q 271 864 339 915 q 203 721 203 813 q 238 622 203 661 q 326 563 274 583 q 467 517 379 542 q 628 462 568 488 q 731 387 689 436 q 772 257 772 338 q 677 61 772 133 q 419 -11 582 -11 m 596 1264 q 626 1281 608 1281 q 653 1269 642 1281 q 664 1244 664 1258 q 654 1221 664 1231 l 526 1076 q 478 1053 506 1053 q 435 1076 451 1053 l 335 1218 q 325 1244 325 1232 q 335 1268 325 1258 q 361 1278 346 1278 q 397 1256 385 1278 l 482 1121 l 596 1264 z "},"Ṧ":{"ha":843,"x_min":47,"x_max":818,"o":"m 419 -11 q 69 103 199 -11 q 47 146 47 121 q 57 174 47 163 q 81 185 67 185 q 103 176 94 185 q 248 91 172 118 q 419 64 324 64 q 617 114 549 64 q 685 253 685 164 q 652 340 685 306 q 569 394 619 375 q 436 438 519 414 q 268 494 332 467 q 160 575 204 521 q 115 718 115 629 q 158 862 115 800 q 281 957 201 924 q 468 990 361 990 q 656 958 568 990 q 804 868 743 926 q 818 835 818 854 q 808 808 818 819 q 782 796 797 796 q 749 810 764 796 q 622 888 693 860 q 468 915 550 915 q 271 864 339 915 q 203 721 203 813 q 238 622 203 661 q 326 563 274 583 q 467 517 379 542 q 628 462 568 488 q 731 387 689 436 q 772 257 772 338 q 677 61 772 133 q 419 -11 582 -11 m 596 1264 q 626 1281 608 1281 q 653 1269 642 1281 q 664 1244 664 1258 q 654 1221 664 1231 l 526 1076 q 478 1053 506 1053 q 435 1076 451 1053 l 335 1218 q 325 1244 325 1232 q 335 1268 325 1258 q 361 1278 346 1278 q 397 1256 385 1278 l 482 1121 l 596 1264 m 507 1331 q 462 1347 479 1331 q 444 1390 444 1364 q 462 1435 444 1418 q 507 1451 479 1451 q 552 1435 535 1451 q 569 1390 569 1418 q 552 1347 569 1364 q 507 1331 535 1331 z "},"Ş":{"ha":843,"x_min":47,"x_max":818,"o":"m 804 868 q 818 835 818 854 q 808 808 818 819 q 782 796 797 796 q 749 810 764 796 q 622 888 693 860 q 468 915 550 915 q 271 864 339 915 q 203 721 203 813 q 238 622 203 661 q 326 563 274 583 q 467 517 379 542 q 628 462 568 488 q 731 387 689 436 q 772 257 772 338 q 677 61 772 133 q 421 -11 582 -11 l 411 -61 q 446 -57 428 -57 q 517 -82 490 -57 q 544 -150 544 -107 q 502 -234 544 -203 q 388 -265 460 -265 q 288 -249 332 -265 q 267 -221 267 -242 q 276 -200 267 -208 q 299 -192 285 -192 q 310 -193 306 -192 q 389 -206 351 -206 q 452 -192 431 -206 q 474 -153 474 -178 q 461 -123 474 -133 q 425 -112 449 -112 q 385 -119 404 -112 q 360 -126 365 -126 q 341 -118 349 -126 q 335 -100 333 -110 l 353 -8 q 69 103 179 6 q 47 146 47 121 q 57 174 47 163 q 81 185 67 185 q 103 176 94 185 q 248 91 172 118 q 419 64 324 64 q 617 114 549 64 q 685 253 685 164 q 652 340 685 306 q 569 394 619 375 q 436 438 519 414 q 268 494 332 467 q 160 575 204 521 q 115 718 115 629 q 158 862 115 800 q 281 957 201 924 q 468 990 361 990 q 656 958 568 990 q 804 868 743 926 z "},"Ŝ":{"ha":843,"x_min":47,"x_max":818,"o":"m 419 -11 q 69 103 199 -11 q 47 146 47 121 q 57 174 47 163 q 81 185 67 185 q 103 176 94 185 q 248 91 172 118 q 419 64 324 64 q 617 114 549 64 q 685 253 685 164 q 652 340 685 306 q 569 394 619 375 q 436 438 519 414 q 268 494 332 467 q 160 575 204 521 q 115 718 115 629 q 158 862 115 800 q 281 957 201 924 q 468 990 361 990 q 656 958 568 990 q 804 868 743 926 q 818 835 818 854 q 808 808 818 819 q 782 796 797 796 q 749 810 764 796 q 622 888 693 860 q 468 915 550 915 q 271 864 339 915 q 203 721 203 813 q 238 622 203 661 q 326 563 274 583 q 467 517 379 542 q 628 462 568 488 q 731 387 689 436 q 772 257 772 338 q 677 61 772 133 q 419 -11 582 -11 m 381 1069 q 350 1053 368 1053 q 324 1064 335 1053 q 313 1089 313 1075 q 322 1113 313 1103 l 450 1257 q 499 1281 471 1281 q 542 1257 525 1281 l 642 1117 q 651 1090 651 1103 q 641 1066 651 1076 q 615 1056 631 1056 q 579 1079 593 1056 l 494 1213 l 381 1069 z "},"Ș":{"ha":843,"x_min":47,"x_max":818,"o":"m 419 -11 q 69 103 199 -11 q 47 146 47 121 q 57 174 47 163 q 81 185 67 185 q 103 176 94 185 q 248 91 172 118 q 419 64 324 64 q 617 114 549 64 q 685 253 685 164 q 652 340 685 306 q 569 394 619 375 q 436 438 519 414 q 268 494 332 467 q 160 575 204 521 q 115 718 115 629 q 158 862 115 800 q 281 957 201 924 q 468 990 361 990 q 656 958 568 990 q 804 868 743 926 q 818 835 818 854 q 808 808 818 819 q 782 796 797 796 q 749 810 764 796 q 622 888 693 860 q 468 915 550 915 q 271 864 339 915 q 203 721 203 813 q 238 622 203 661 q 326 563 274 583 q 467 517 379 542 q 628 462 568 488 q 731 387 689 436 q 772 257 772 338 q 677 61 772 133 q 419 -11 582 -11 m 393 -96 q 439 -114 422 -96 q 456 -168 456 -132 q 438 -256 456 -212 q 383 -336 421 -299 q 353 -351 368 -351 q 335 -344 342 -351 q 328 -328 328 -337 q 339 -304 328 -318 q 389 -212 378 -261 q 347 -198 363 -212 q 331 -158 331 -183 q 348 -114 331 -132 q 393 -96 365 -96 z "},"Ṡ":{"ha":843,"x_min":47,"x_max":818,"o":"m 419 -11 q 69 103 199 -11 q 47 146 47 121 q 57 174 47 163 q 81 185 67 185 q 103 176 94 185 q 248 91 172 118 q 419 64 324 64 q 617 114 549 64 q 685 253 685 164 q 652 340 685 306 q 569 394 619 375 q 436 438 519 414 q 268 494 332 467 q 160 575 204 521 q 115 718 115 629 q 158 862 115 800 q 281 957 201 924 q 468 990 361 990 q 656 958 568 990 q 804 868 743 926 q 818 835 818 854 q 808 808 818 819 q 782 796 797 796 q 749 810 764 796 q 622 888 693 860 q 468 915 550 915 q 271 864 339 915 q 203 721 203 813 q 238 622 203 661 q 326 563 274 583 q 467 517 379 542 q 628 462 568 488 q 731 387 689 436 q 772 257 772 338 q 677 61 772 133 q 419 -11 582 -11 m 489 1108 q 444 1125 461 1108 q 426 1168 426 1142 q 444 1213 426 1196 q 489 1229 461 1229 q 534 1213 517 1229 q 551 1168 551 1196 q 534 1125 551 1142 q 489 1108 517 1108 z "},"Ṣ":{"ha":843,"x_min":47,"x_max":818,"o":"m 419 -11 q 69 103 199 -11 q 47 146 47 121 q 57 174 47 163 q 81 185 67 185 q 103 176 94 185 q 248 91 172 118 q 419 64 324 64 q 617 114 549 64 q 685 253 685 164 q 652 340 685 306 q 569 394 619 375 q 436 438 519 414 q 268 494 332 467 q 160 575 204 521 q 115 718 115 629 q 158 862 115 800 q 281 957 201 924 q 468 990 361 990 q 656 958 568 990 q 804 868 743 926 q 818 835 818 854 q 808 808 818 819 q 782 796 797 796 q 749 810 764 796 q 622 888 693 860 q 468 915 550 915 q 271 864 339 915 q 203 721 203 813 q 238 622 203 661 q 326 563 274 583 q 467 517 379 542 q 628 462 568 488 q 731 387 689 436 q 772 257 772 338 q 677 61 772 133 q 419 -11 582 -11 m 386 -254 q 342 -237 360 -254 q 325 -193 325 -221 q 342 -150 325 -167 q 386 -133 360 -133 q 430 -150 413 -133 q 447 -193 447 -167 q 430 -237 447 -221 q 386 -254 413 -254 z "},"Ṩ":{"ha":843,"x_min":47,"x_max":818,"o":"m 419 -11 q 69 103 199 -11 q 47 146 47 121 q 57 174 47 163 q 81 185 67 185 q 103 176 94 185 q 248 91 172 118 q 419 64 324 64 q 617 114 549 64 q 685 253 685 164 q 652 340 685 306 q 569 394 619 375 q 436 438 519 414 q 268 494 332 467 q 160 575 204 521 q 115 718 115 629 q 158 862 115 800 q 281 957 201 924 q 468 990 361 990 q 656 958 568 990 q 804 868 743 926 q 818 835 818 854 q 808 808 818 819 q 782 796 797 796 q 749 810 764 796 q 622 888 693 860 q 468 915 550 915 q 271 864 339 915 q 203 721 203 813 q 238 622 203 661 q 326 563 274 583 q 467 517 379 542 q 628 462 568 488 q 731 387 689 436 q 772 257 772 338 q 677 61 772 133 q 419 -11 582 -11 m 386 -254 q 342 -237 360 -254 q 325 -193 325 -221 q 342 -150 325 -167 q 386 -133 360 -133 q 430 -150 413 -133 q 447 -193 447 -167 q 430 -237 447 -221 q 386 -254 413 -254 m 489 1108 q 444 1125 461 1108 q 426 1168 426 1142 q 444 1213 426 1196 q 489 1229 461 1229 q 534 1213 517 1229 q 551 1168 551 1196 q 534 1125 551 1142 q 489 1108 517 1108 z "},"ẞ":{"ha":947,"x_min":100,"x_max":851,"o":"m 664 510 q 803 433 756 490 q 851 286 851 375 q 812 131 851 199 q 701 27 772 64 q 536 -10 629 -10 q 401 13 464 -10 q 294 74 338 35 q 279 104 279 88 q 290 131 279 119 q 317 143 301 143 q 344 133 331 143 q 529 67 429 67 q 703 125 640 67 q 767 288 767 183 q 708 416 767 372 q 533 460 649 460 l 386 460 q 354 471 365 460 q 343 497 343 482 q 354 524 343 513 q 385 535 365 535 l 496 535 q 674 590 611 535 q 738 744 738 644 q 680 868 738 824 q 524 913 622 913 q 313 845 381 913 q 233 632 244 778 l 186 36 q 172 3 185 15 q 140 -8 160 -8 q 110 3 121 -8 q 101 36 100 15 l 149 646 q 525 989 175 989 q 743 924 663 989 q 824 749 824 860 q 782 599 824 661 q 664 510 740 538 z "},"Ə":{"ha":1021,"x_min":99,"x_max":944,"o":"m 531 990 q 750 935 657 990 q 894 776 843 879 q 944 532 944 674 q 889 245 944 368 q 730 56 833 122 q 486 -11 626 -11 q 275 43 363 -11 q 143 194 188 97 q 99 415 99 290 q 103 494 99 457 q 117 524 104 513 q 147 535 129 535 l 856 535 q 767 816 854 718 q 515 914 679 914 q 221 808 346 914 q 189 794 203 794 q 169 803 176 794 q 161 826 161 813 q 182 869 161 851 q 333 959 244 928 q 531 990 422 990 m 490 65 q 742 169 647 65 q 853 458 836 272 l 188 458 l 186 419 q 263 159 186 253 q 490 65 340 65 z "},"T":{"ha":819,"x_min":57,"x_max":860,"o":"m 386 -7 q 356 6 368 -7 q 344 38 343 18 l 413 904 l 94 904 q 67 915 78 904 q 57 942 57 925 q 67 969 57 958 q 96 979 78 979 l 822 979 q 849 969 839 979 q 860 942 860 958 q 849 915 860 925 q 821 904 839 904 l 499 904 l 429 33 q 416 4 428 15 q 386 -7 404 -7 z "},"Ŧ":{"ha":819,"x_min":57,"x_max":860,"o":"m 822 979 q 849 969 839 979 q 860 942 860 958 q 849 915 860 925 q 821 904 839 904 l 499 904 l 469 532 l 638 532 q 664 522 654 532 q 674 497 674 513 q 664 472 674 482 q 636 461 654 461 l 464 461 l 429 33 q 416 4 428 15 q 386 -7 404 -7 q 356 6 368 -7 q 344 38 343 18 l 378 461 l 208 461 q 182 472 192 461 q 172 497 172 482 q 182 522 172 513 q 208 532 192 532 l 383 532 l 413 904 l 94 904 q 67 915 78 904 q 57 942 57 925 q 67 969 57 958 q 96 979 78 979 l 822 979 z "},"Ť":{"ha":819,"x_min":57,"x_max":860,"o":"m 386 -7 q 356 6 368 -7 q 344 38 343 18 l 413 904 l 94 904 q 67 915 78 904 q 57 942 57 925 q 67 969 57 958 q 96 979 78 979 l 822 979 q 849 969 839 979 q 860 942 860 958 q 849 915 860 925 q 821 904 839 904 l 499 904 l 429 33 q 416 4 428 15 q 386 -7 404 -7 m 583 1264 q 614 1281 596 1281 q 640 1269 629 1281 q 651 1244 651 1258 q 642 1221 651 1231 l 514 1076 q 465 1053 493 1053 q 422 1076 439 1053 l 322 1218 q 313 1244 313 1232 q 323 1268 313 1258 q 349 1278 333 1278 q 385 1256 372 1278 l 469 1121 l 583 1264 z "},"Ţ":{"ha":819,"x_min":57,"x_max":860,"o":"m 822 979 q 849 969 839 979 q 860 942 860 958 q 849 915 860 925 q 821 904 839 904 l 499 904 l 429 33 q 406 -3 426 6 l 393 -61 q 428 -57 410 -57 q 499 -82 472 -57 q 526 -150 526 -107 q 484 -234 526 -203 q 369 -265 442 -265 q 269 -249 314 -265 q 249 -221 249 -242 q 258 -200 249 -208 q 281 -192 267 -192 q 292 -193 288 -192 q 371 -206 333 -206 q 434 -192 413 -206 q 456 -153 456 -178 q 443 -123 456 -133 q 407 -112 431 -112 q 367 -119 386 -112 q 342 -126 347 -126 q 323 -118 331 -126 q 317 -100 315 -110 l 342 28 l 344 28 l 344 38 l 413 904 l 94 904 q 67 915 78 904 q 57 942 57 925 q 67 969 57 958 q 96 979 78 979 l 822 979 z "},"Ț":{"ha":819,"x_min":57,"x_max":860,"o":"m 386 -7 q 356 6 368 -7 q 344 38 343 18 l 413 904 l 94 904 q 67 915 78 904 q 57 942 57 925 q 67 969 57 958 q 96 979 78 979 l 822 979 q 849 969 839 979 q 860 942 860 958 q 849 915 860 925 q 821 904 839 904 l 499 904 l 429 33 q 416 4 428 15 q 386 -7 404 -7 m 375 -96 q 421 -114 404 -96 q 438 -168 438 -132 q 420 -256 438 -212 q 365 -336 403 -299 q 335 -351 350 -351 q 317 -344 324 -351 q 310 -328 310 -337 q 321 -304 310 -318 q 371 -212 360 -261 q 328 -198 344 -212 q 313 -158 313 -183 q 330 -114 313 -132 q 375 -96 347 -96 z "},"Ṭ":{"ha":819,"x_min":57,"x_max":860,"o":"m 386 -7 q 356 6 368 -7 q 344 38 343 18 l 413 904 l 94 904 q 67 915 78 904 q 57 942 57 925 q 67 969 57 958 q 96 979 78 979 l 822 979 q 849 969 839 979 q 860 942 860 958 q 849 915 860 925 q 821 904 839 904 l 499 904 l 429 33 q 416 4 428 15 q 386 -7 404 -7 m 368 -254 q 324 -237 342 -254 q 307 -193 307 -221 q 324 -150 307 -167 q 368 -133 342 -133 q 412 -150 394 -133 q 429 -193 429 -167 q 412 -237 429 -221 q 368 -254 394 -254 z "},"Ṯ":{"ha":819,"x_min":57,"x_max":860,"o":"m 386 -7 q 356 6 368 -7 q 344 38 343 18 l 413 904 l 94 904 q 67 915 78 904 q 57 942 57 925 q 67 969 57 958 q 96 979 78 979 l 822 979 q 849 969 839 979 q 860 942 860 958 q 849 915 860 925 q 821 904 839 904 l 499 904 l 429 33 q 416 4 428 15 q 386 -7 404 -7 m 197 -229 q 166 -220 176 -229 q 156 -194 156 -211 q 168 -167 156 -176 q 201 -158 181 -158 l 539 -158 q 581 -193 581 -158 q 568 -219 581 -210 q 535 -229 556 -229 l 197 -229 z "},"U":{"ha":1000,"x_min":121,"x_max":929,"o":"m 479 -11 q 212 76 303 -11 q 121 325 121 163 q 124 378 121 342 l 168 946 q 182 975 169 964 q 211 986 194 986 q 242 974 229 986 q 253 942 254 961 l 208 382 q 207 335 207 365 q 479 65 207 65 q 706 140 628 65 q 797 367 785 214 l 843 946 q 856 975 844 964 q 886 986 868 986 q 917 974 904 986 q 928 942 929 963 l 882 376 q 765 85 867 182 q 479 -11 664 -11 z "},"Ú":{"ha":1000,"x_min":121,"x_max":928,"o":"m 479 -11 q 212 76 303 -11 q 121 325 121 163 q 124 378 121 342 l 168 946 q 182 975 169 964 q 211 986 194 986 q 242 974 229 986 q 253 942 254 961 l 208 382 q 207 335 207 365 q 479 65 207 65 q 706 140 628 65 q 797 367 785 214 l 843 946 q 856 975 844 964 q 886 986 868 986 q 917 974 904 986 q 928 942 929 963 l 882 376 q 765 85 867 182 q 479 -11 664 -11 m 593 1068 q 567 1056 581 1056 q 551 1062 557 1056 q 544 1078 544 1068 q 551 1097 544 1086 l 665 1256 q 708 1282 686 1282 q 735 1272 724 1282 q 746 1246 746 1261 q 728 1208 746 1226 l 593 1068 z "},"Ŭ":{"ha":1000,"x_min":121,"x_max":928,"o":"m 479 -11 q 212 76 303 -11 q 121 325 121 163 q 124 378 121 342 l 168 946 q 182 975 169 964 q 211 986 194 986 q 242 974 229 986 q 253 942 254 961 l 208 382 q 207 335 207 365 q 479 65 207 65 q 706 140 628 65 q 797 367 785 214 l 843 946 q 856 975 844 964 q 886 986 868 986 q 917 974 904 986 q 928 942 929 963 l 882 376 q 765 85 867 182 q 479 -11 664 -11 m 560 1081 q 439 1111 490 1081 q 361 1203 388 1142 q 357 1222 357 1214 q 367 1245 357 1236 q 390 1254 378 1254 q 426 1232 414 1254 q 483 1168 450 1188 q 563 1149 515 1149 q 647 1168 610 1149 q 713 1232 683 1188 q 732 1249 721 1243 q 753 1256 743 1256 q 776 1248 767 1256 q 785 1226 785 1240 q 778 1203 785 1214 q 686 1111 743 1142 q 560 1081 629 1081 z "},"Û":{"ha":1000,"x_min":121,"x_max":928,"o":"m 479 -11 q 212 76 303 -11 q 121 325 121 163 q 124 378 121 342 l 168 946 q 182 975 169 964 q 211 986 194 986 q 242 974 229 986 q 253 942 254 961 l 208 382 q 207 335 207 365 q 479 65 207 65 q 706 140 628 65 q 797 367 785 214 l 843 946 q 856 975 844 964 q 886 986 868 986 q 917 974 904 986 q 928 942 929 963 l 882 376 q 765 85 867 182 q 479 -11 664 -11 m 458 1069 q 428 1053 446 1053 q 401 1064 413 1053 q 390 1089 390 1075 q 400 1113 390 1103 l 528 1257 q 576 1281 549 1281 q 619 1257 603 1281 l 719 1117 q 729 1090 729 1103 q 719 1066 729 1076 q 693 1056 708 1056 q 657 1079 671 1056 l 572 1213 l 458 1069 z "},"Ȕ":{"ha":1000,"x_min":121,"x_max":928,"o":"m 479 -11 q 212 76 303 -11 q 121 325 121 163 q 124 378 121 342 l 168 946 q 182 975 169 964 q 211 986 194 986 q 242 974 229 986 q 253 942 254 961 l 208 382 q 207 335 207 365 q 479 65 207 65 q 706 140 628 65 q 797 367 785 214 l 843 946 q 856 975 844 964 q 886 986 868 986 q 917 974 904 986 q 928 942 929 963 l 882 376 q 765 85 867 182 q 479 -11 664 -11 m 361 1218 q 356 1239 356 1228 q 368 1267 356 1256 q 396 1279 381 1279 q 432 1247 421 1279 l 493 1088 q 494 1079 494 1085 q 488 1063 494 1069 q 472 1056 481 1056 q 453 1068 461 1056 l 361 1218 m 521 1218 q 514 1240 514 1229 q 526 1268 514 1257 q 554 1279 538 1279 q 592 1247 581 1279 l 651 1088 q 653 1078 653 1083 q 647 1062 653 1068 q 632 1056 640 1056 q 613 1068 621 1056 l 521 1218 z "},"Ü":{"ha":1000,"x_min":121,"x_max":928,"o":"m 479 -11 q 212 76 303 -11 q 121 325 121 163 q 124 378 121 342 l 168 946 q 182 975 169 964 q 211 986 194 986 q 242 974 229 986 q 253 942 254 961 l 208 382 q 207 335 207 365 q 479 65 207 65 q 706 140 628 65 q 797 367 785 214 l 843 946 q 856 975 844 964 q 886 986 868 986 q 917 974 904 986 q 928 942 929 963 l 882 376 q 765 85 867 182 q 479 -11 664 -11 m 451 1111 q 410 1127 426 1111 q 393 1168 393 1143 q 410 1209 393 1193 q 451 1225 426 1225 q 494 1209 476 1225 q 511 1168 511 1193 q 494 1127 511 1143 q 451 1111 476 1111 m 682 1111 q 640 1127 657 1111 q 622 1168 622 1143 q 640 1209 622 1193 q 682 1225 657 1225 q 724 1209 707 1225 q 740 1168 740 1193 q 724 1127 740 1143 q 682 1111 707 1111 z "},"Ụ":{"ha":1000,"x_min":121,"x_max":928,"o":"m 479 -11 q 212 76 303 -11 q 121 325 121 163 q 124 378 121 342 l 168 946 q 182 975 169 964 q 211 986 194 986 q 242 974 229 986 q 253 942 254 961 l 208 382 q 207 335 207 365 q 479 65 207 65 q 706 140 628 65 q 797 367 785 214 l 843 946 q 856 975 844 964 q 886 986 868 986 q 917 974 904 986 q 928 942 929 963 l 882 376 q 765 85 867 182 q 479 -11 664 -11 m 458 -254 q 415 -237 432 -254 q 397 -193 397 -221 q 415 -150 397 -167 q 458 -133 432 -133 q 502 -150 485 -133 q 519 -193 519 -167 q 502 -237 519 -221 q 458 -254 485 -254 z "},"Ù":{"ha":1000,"x_min":121,"x_max":928,"o":"m 479 -11 q 212 76 303 -11 q 121 325 121 163 q 124 378 121 342 l 168 946 q 182 975 169 964 q 211 986 194 986 q 242 974 229 986 q 253 942 254 961 l 208 382 q 207 335 207 365 q 479 65 207 65 q 706 140 628 65 q 797 367 785 214 l 843 946 q 856 975 844 964 q 886 986 868 986 q 917 974 904 986 q 928 942 929 963 l 882 376 q 765 85 867 182 q 479 -11 664 -11 m 407 1217 q 396 1247 396 1232 q 407 1273 396 1263 q 433 1283 418 1283 q 474 1257 458 1283 l 568 1094 q 572 1079 572 1086 q 565 1063 572 1069 q 547 1056 558 1056 q 522 1068 533 1056 l 407 1217 z "},"Ủ":{"ha":1000,"x_min":121,"x_max":928,"o":"m 479 -11 q 212 76 303 -11 q 121 325 121 163 q 124 378 121 342 l 168 946 q 182 975 169 964 q 211 986 194 986 q 242 974 229 986 q 253 942 254 961 l 208 382 q 207 335 207 365 q 479 65 207 65 q 706 140 628 65 q 797 367 785 214 l 843 946 q 856 975 844 964 q 886 986 868 986 q 917 974 904 986 q 928 942 929 963 l 882 376 q 765 85 867 182 q 479 -11 664 -11 m 594 1079 q 583 1062 593 1068 q 561 1056 574 1056 q 538 1065 547 1056 q 529 1089 528 1074 q 547 1125 531 1111 q 589 1153 563 1139 q 619 1171 610 1163 q 629 1190 629 1179 q 574 1215 629 1215 q 500 1204 538 1215 q 489 1203 496 1203 q 469 1210 476 1203 q 461 1229 461 1218 q 486 1261 461 1251 q 581 1278 529 1278 q 673 1256 639 1278 q 707 1196 707 1233 q 690 1149 707 1165 q 640 1118 672 1133 q 608 1099 619 1107 q 594 1079 597 1092 z "},"Ư":{"ha":1000,"x_min":121,"x_max":1106,"o":"m 1106 1132 q 1058 990 1106 1046 q 925 922 1011 935 l 882 376 q 765 85 867 182 q 479 -11 664 -11 q 212 76 303 -11 q 121 325 121 163 q 124 378 121 342 l 168 946 q 182 975 169 964 q 211 986 194 986 q 242 974 229 986 q 253 942 254 961 l 208 381 q 207 333 207 364 q 479 65 207 65 q 707 140 628 65 q 797 367 786 215 l 842 942 q 889 979 844 979 q 985 1017 947 979 q 1029 1133 1024 1056 q 1069 1176 1032 1176 q 1106 1132 1106 1176 z "},"Ứ":{"ha":1000,"x_min":121,"x_max":1106,"o":"m 1106 1132 q 1058 990 1106 1046 q 925 922 1011 935 l 882 376 q 765 85 867 182 q 479 -11 664 -11 q 212 76 303 -11 q 121 325 121 163 q 124 378 121 342 l 168 946 q 182 975 169 964 q 211 986 194 986 q 242 974 229 986 q 253 942 254 961 l 208 381 q 207 333 207 364 q 479 65 207 65 q 707 140 628 65 q 797 367 786 215 l 842 942 q 889 979 844 979 q 985 1017 947 979 q 1029 1133 1024 1056 q 1069 1176 1032 1176 q 1106 1132 1106 1176 m 593 1068 q 567 1056 581 1056 q 551 1062 557 1056 q 544 1078 544 1068 q 551 1097 544 1086 l 665 1256 q 708 1282 686 1282 q 735 1272 724 1282 q 746 1246 746 1261 q 728 1208 746 1226 l 593 1068 z "},"Ự":{"ha":1000,"x_min":121,"x_max":1106,"o":"m 1106 1132 q 1058 990 1106 1046 q 925 922 1011 935 l 882 376 q 765 85 867 182 q 479 -11 664 -11 q 212 76 303 -11 q 121 325 121 163 q 124 378 121 342 l 168 946 q 182 975 169 964 q 211 986 194 986 q 242 974 229 986 q 253 942 254 961 l 208 381 q 207 333 207 364 q 479 65 207 65 q 707 140 628 65 q 797 367 786 215 l 842 942 q 889 979 844 979 q 985 1017 947 979 q 1029 1133 1024 1056 q 1069 1176 1032 1176 q 1106 1132 1106 1176 m 458 -254 q 415 -237 432 -254 q 397 -193 397 -221 q 415 -150 397 -167 q 458 -133 432 -133 q 502 -150 485 -133 q 519 -193 519 -167 q 502 -237 519 -221 q 458 -254 485 -254 z "},"Ừ":{"ha":1000,"x_min":121,"x_max":1106,"o":"m 1106 1132 q 1058 990 1106 1046 q 925 922 1011 935 l 882 376 q 765 85 867 182 q 479 -11 664 -11 q 212 76 303 -11 q 121 325 121 163 q 124 378 121 342 l 168 946 q 182 975 169 964 q 211 986 194 986 q 242 974 229 986 q 253 942 254 961 l 208 381 q 207 333 207 364 q 479 65 207 65 q 707 140 628 65 q 797 367 786 215 l 842 942 q 889 979 844 979 q 985 1017 947 979 q 1029 1133 1024 1056 q 1069 1176 1032 1176 q 1106 1132 1106 1176 m 407 1217 q 396 1247 396 1232 q 407 1273 396 1263 q 433 1283 418 1283 q 474 1257 458 1283 l 568 1094 q 572 1079 572 1086 q 565 1063 572 1069 q 547 1056 558 1056 q 522 1068 533 1056 l 407 1217 z "},"Ử":{"ha":1000,"x_min":121,"x_max":1106,"o":"m 1106 1132 q 1058 990 1106 1046 q 925 922 1011 935 l 882 376 q 765 85 867 182 q 479 -11 664 -11 q 212 76 303 -11 q 121 325 121 163 q 124 378 121 342 l 168 946 q 182 975 169 964 q 211 986 194 986 q 242 974 229 986 q 253 942 254 961 l 208 381 q 207 333 207 364 q 479 65 207 65 q 707 140 628 65 q 797 367 786 215 l 842 942 q 889 979 844 979 q 985 1017 947 979 q 1029 1133 1024 1056 q 1069 1176 1032 1176 q 1106 1132 1106 1176 m 594 1079 q 583 1062 593 1068 q 561 1056 574 1056 q 538 1065 547 1056 q 529 1089 528 1074 q 547 1125 531 1111 q 589 1153 563 1139 q 619 1171 610 1163 q 629 1190 629 1179 q 574 1215 629 1215 q 500 1204 538 1215 q 489 1203 496 1203 q 469 1210 476 1203 q 461 1229 461 1218 q 486 1261 461 1251 q 581 1278 529 1278 q 673 1256 639 1278 q 707 1196 707 1233 q 690 1149 707 1165 q 640 1118 672 1133 q 608 1099 619 1107 q 594 1079 597 1092 z "},"Ữ":{"ha":1000,"x_min":121,"x_max":1106,"o":"m 1106 1132 q 1058 990 1106 1046 q 925 922 1011 935 l 882 376 q 765 85 867 182 q 479 -11 664 -11 q 212 76 303 -11 q 121 325 121 163 q 124 378 121 342 l 168 946 q 182 975 169 964 q 211 986 194 986 q 242 974 229 986 q 253 942 254 961 l 208 381 q 207 333 207 364 q 479 65 207 65 q 707 140 628 65 q 797 367 786 215 l 842 942 q 889 979 844 979 q 985 1017 947 979 q 1029 1133 1024 1056 q 1069 1176 1032 1176 q 1106 1132 1106 1176 m 657 1100 q 550 1136 617 1100 q 508 1156 529 1147 q 471 1164 486 1164 q 430 1153 444 1164 q 400 1124 415 1143 q 374 1104 385 1104 q 356 1113 363 1104 q 350 1133 350 1121 q 367 1180 350 1156 q 412 1221 383 1204 q 476 1238 440 1238 q 583 1201 517 1238 q 626 1182 604 1190 q 663 1174 647 1174 q 703 1184 689 1174 q 733 1214 718 1194 q 745 1228 739 1222 q 758 1235 751 1235 q 776 1226 769 1235 q 783 1206 783 1218 q 767 1158 783 1183 q 721 1117 750 1133 q 657 1100 692 1100 z "},"Ű":{"ha":1000,"x_min":121,"x_max":928,"o":"m 479 -11 q 212 76 303 -11 q 121 325 121 163 q 124 378 121 342 l 168 946 q 182 975 169 964 q 211 986 194 986 q 242 974 229 986 q 253 942 254 961 l 208 382 q 207 335 207 365 q 479 65 207 65 q 706 140 628 65 q 797 367 785 214 l 843 946 q 856 975 844 964 q 886 986 868 986 q 917 974 904 986 q 928 942 929 963 l 882 376 q 765 85 867 182 q 479 -11 664 -11 m 503 1067 q 483 1056 496 1056 q 469 1060 475 1056 q 464 1074 464 1065 q 468 1088 464 1082 l 551 1247 q 594 1279 567 1279 q 618 1269 608 1279 q 628 1246 628 1260 q 615 1215 628 1232 l 503 1067 m 663 1067 q 643 1056 656 1056 q 629 1060 635 1056 q 624 1074 624 1065 q 628 1088 624 1082 l 711 1247 q 754 1279 726 1279 q 777 1269 768 1279 q 786 1246 786 1260 q 775 1215 786 1231 l 663 1067 z "},"Ȗ":{"ha":1000,"x_min":121,"x_max":928,"o":"m 479 -11 q 212 76 303 -11 q 121 325 121 163 q 124 378 121 342 l 168 946 q 182 975 169 964 q 211 986 194 986 q 242 974 229 986 q 253 942 254 961 l 208 382 q 207 335 207 365 q 479 65 207 65 q 706 140 628 65 q 797 367 785 214 l 843 946 q 856 975 844 964 q 886 986 868 986 q 917 974 904 986 q 928 942 929 963 l 882 376 q 765 85 867 182 q 479 -11 664 -11 m 572 1256 q 694 1225 642 1256 q 771 1133 746 1194 q 775 1114 775 1124 q 765 1090 775 1100 q 742 1081 756 1081 q 706 1104 719 1081 q 649 1167 682 1147 q 569 1188 615 1188 q 487 1167 522 1188 q 419 1104 451 1147 q 379 1081 404 1081 q 356 1088 365 1081 q 347 1110 347 1096 q 354 1133 347 1124 q 446 1224 389 1193 q 572 1256 503 1256 z "},"Ū":{"ha":1000,"x_min":121,"x_max":928,"o":"m 479 -11 q 212 76 303 -11 q 121 325 121 163 q 124 378 121 342 l 168 946 q 182 975 169 964 q 211 986 194 986 q 242 974 229 986 q 253 942 254 961 l 208 382 q 207 335 207 365 q 479 65 207 65 q 706 140 628 65 q 797 367 785 214 l 843 946 q 856 975 844 964 q 886 986 868 986 q 917 974 904 986 q 928 942 929 963 l 882 376 q 765 85 867 182 q 479 -11 664 -11 m 396 1132 q 365 1142 375 1132 q 354 1168 354 1151 q 367 1195 354 1186 q 400 1204 379 1204 l 738 1204 q 779 1168 779 1204 q 767 1142 779 1151 q 733 1132 754 1132 l 396 1132 z "},"Ṻ":{"ha":1000,"x_min":121,"x_max":928,"o":"m 479 -11 q 212 76 303 -11 q 121 325 121 163 q 124 378 121 342 l 168 946 q 182 975 169 964 q 211 986 194 986 q 242 974 229 986 q 253 942 254 961 l 208 382 q 207 335 207 365 q 479 65 207 65 q 706 140 628 65 q 797 367 785 214 l 843 946 q 856 975 844 964 q 886 986 868 986 q 917 974 904 986 q 928 942 929 963 l 882 376 q 765 85 867 182 q 479 -11 664 -11 m 396 1132 q 365 1142 375 1132 q 354 1168 354 1151 q 367 1195 354 1186 q 400 1204 379 1204 l 738 1204 q 779 1168 779 1204 q 767 1142 779 1151 q 733 1132 754 1132 l 396 1132 m 469 1333 q 428 1349 444 1333 q 411 1390 411 1365 q 428 1431 411 1415 q 469 1447 444 1447 q 512 1431 494 1447 q 529 1390 529 1415 q 512 1349 529 1365 q 469 1333 494 1333 m 700 1333 q 658 1349 675 1333 q 640 1390 640 1365 q 658 1431 640 1415 q 700 1447 675 1447 q 742 1431 725 1447 q 758 1390 758 1415 q 742 1349 758 1365 q 700 1333 725 1333 z "},"Ų":{"ha":1000,"x_min":121,"x_max":929,"o":"m 886 986 q 917 974 904 986 q 928 942 929 963 l 882 376 q 622 7 857 72 q 527 -42 558 -12 q 496 -118 496 -71 q 518 -181 496 -160 q 581 -203 540 -203 q 649 -185 613 -203 q 667 -179 663 -179 q 683 -186 678 -179 q 689 -204 689 -193 q 667 -242 689 -229 q 571 -265 624 -265 q 461 -228 501 -265 q 421 -132 421 -192 q 481 -11 421 -54 l 472 -11 q 210 76 300 -11 q 121 325 121 163 q 124 378 121 342 l 168 946 q 182 975 169 964 q 211 986 194 986 q 242 974 229 986 q 253 942 254 961 l 208 382 q 207 335 207 365 q 479 65 207 65 q 706 140 628 65 q 797 367 785 214 l 843 946 q 856 975 844 964 q 886 986 868 986 z "},"Ů":{"ha":1000,"x_min":121,"x_max":928,"o":"m 479 -11 q 212 76 303 -11 q 121 325 121 163 q 124 378 121 342 l 168 946 q 182 975 169 964 q 211 986 194 986 q 242 974 229 986 q 253 942 254 961 l 208 382 q 207 335 207 365 q 479 65 207 65 q 706 140 628 65 q 797 367 785 214 l 843 946 q 856 975 844 964 q 886 986 868 986 q 917 974 904 986 q 928 942 929 963 l 882 376 q 765 85 867 182 q 479 -11 664 -11 m 567 1056 q 469 1094 510 1056 q 429 1190 429 1133 q 469 1285 429 1246 q 567 1325 510 1325 q 664 1285 624 1325 q 704 1190 704 1246 q 664 1094 704 1133 q 567 1056 624 1056 m 567 1118 q 617 1139 597 1118 q 636 1190 636 1160 q 617 1241 636 1221 q 567 1261 597 1261 q 517 1241 536 1261 q 499 1190 499 1221 q 518 1139 499 1160 q 567 1118 538 1118 z "},"Ũ":{"ha":1000,"x_min":121,"x_max":928,"o":"m 479 -11 q 212 76 303 -11 q 121 325 121 163 q 124 378 121 342 l 168 946 q 182 975 169 964 q 211 986 194 986 q 242 974 229 986 q 253 942 254 961 l 208 382 q 207 335 207 365 q 479 65 207 65 q 706 140 628 65 q 797 367 785 214 l 843 946 q 856 975 844 964 q 886 986 868 986 q 917 974 904 986 q 928 942 929 963 l 882 376 q 765 85 867 182 q 479 -11 664 -11 m 657 1100 q 550 1136 617 1100 q 508 1156 529 1147 q 471 1164 486 1164 q 430 1153 444 1164 q 400 1124 415 1143 q 374 1104 385 1104 q 356 1113 363 1104 q 350 1133 350 1121 q 367 1180 350 1156 q 412 1221 383 1204 q 476 1238 440 1238 q 583 1201 517 1238 q 626 1182 604 1190 q 663 1174 647 1174 q 703 1184 689 1174 q 733 1214 718 1194 q 745 1228 739 1222 q 758 1235 751 1235 q 776 1226 769 1235 q 783 1206 783 1218 q 767 1158 783 1183 q 721 1117 750 1133 q 657 1100 692 1100 z "},"Ṹ":{"ha":1000,"x_min":121,"x_max":928,"o":"m 479 -11 q 212 76 303 -11 q 121 325 121 163 q 124 378 121 342 l 168 946 q 182 975 169 964 q 211 986 194 986 q 242 974 229 986 q 253 942 254 961 l 208 382 q 207 335 207 365 q 479 65 207 65 q 706 140 628 65 q 797 367 785 214 l 843 946 q 856 975 844 964 q 886 986 868 986 q 917 974 904 986 q 928 942 929 963 l 882 376 q 765 85 867 182 q 479 -11 664 -11 m 657 1100 q 550 1136 617 1100 q 508 1156 529 1147 q 471 1164 486 1164 q 430 1153 444 1164 q 400 1124 415 1143 q 374 1104 385 1104 q 356 1113 363 1104 q 350 1133 350 1121 q 367 1180 350 1156 q 412 1221 383 1204 q 476 1238 440 1238 q 583 1201 517 1238 q 626 1182 604 1190 q 663 1174 647 1174 q 703 1184 689 1174 q 733 1214 718 1194 q 745 1228 739 1222 q 758 1235 751 1235 q 776 1226 769 1235 q 783 1206 783 1218 q 767 1158 783 1183 q 721 1117 750 1133 q 657 1100 692 1100 m 611 1290 q 585 1278 599 1278 q 569 1284 575 1278 q 563 1300 563 1290 q 569 1319 563 1308 l 683 1478 q 726 1504 704 1504 q 753 1494 742 1504 q 764 1468 764 1483 q 746 1431 764 1449 l 611 1290 z "},"V":{"ha":944,"x_min":74,"x_max":964,"o":"m 888 964 q 925 986 897 986 q 952 976 940 986 q 964 951 964 967 q 958 929 964 940 l 497 24 q 447 -7 481 -7 q 417 3 431 -7 q 397 29 403 13 l 76 931 q 74 946 74 942 q 86 975 74 964 q 115 986 99 986 q 154 958 144 986 l 454 108 l 888 964 z "},"W":{"ha":1522,"x_min":113,"x_max":1504,"o":"m 1429 963 q 1467 986 1439 986 q 1493 976 1482 986 q 1504 951 1504 967 q 1500 931 1504 942 l 1113 24 q 1094 1 1107 8 q 1067 -7 1081 -7 q 1039 2 1051 -7 q 1022 29 1026 11 l 801 844 l 450 24 q 431 1 444 8 q 404 -7 418 -7 q 376 2 389 -7 q 358 29 364 11 l 114 933 q 113 947 113 938 q 125 976 113 965 q 154 986 138 986 q 178 978 168 986 q 193 956 189 971 l 414 121 l 767 951 q 785 977 774 968 q 811 986 797 986 q 837 977 825 986 q 853 951 849 968 l 1072 122 l 1429 963 z "},"Ẃ":{"ha":1522,"x_min":113,"x_max":1504,"o":"m 1429 963 q 1467 986 1439 986 q 1493 976 1482 986 q 1504 951 1504 967 q 1500 931 1504 942 l 1113 24 q 1094 1 1107 8 q 1067 -7 1081 -7 q 1039 2 1051 -7 q 1022 29 1026 11 l 801 844 l 450 24 q 431 1 444 8 q 404 -7 418 -7 q 376 2 389 -7 q 358 29 364 11 l 114 933 q 113 947 113 938 q 125 976 113 965 q 154 986 138 986 q 178 978 168 986 q 193 956 189 971 l 414 121 l 767 951 q 785 977 774 968 q 811 986 797 986 q 837 977 825 986 q 853 951 849 968 l 1072 122 l 1429 963 m 854 1068 q 828 1056 842 1056 q 812 1062 818 1056 q 806 1078 806 1068 q 813 1097 806 1086 l 926 1256 q 969 1282 947 1282 q 996 1272 985 1282 q 1007 1246 1007 1261 q 989 1208 1007 1226 l 854 1068 z "},"Ŵ":{"ha":1522,"x_min":113,"x_max":1504,"o":"m 1429 963 q 1467 986 1439 986 q 1493 976 1482 986 q 1504 951 1504 967 q 1500 931 1504 942 l 1113 24 q 1094 1 1107 8 q 1067 -7 1081 -7 q 1039 2 1051 -7 q 1022 29 1026 11 l 801 844 l 450 24 q 431 1 444 8 q 404 -7 418 -7 q 376 2 389 -7 q 358 29 364 11 l 114 933 q 113 947 113 938 q 125 976 113 965 q 154 986 138 986 q 178 978 168 986 q 193 956 189 971 l 414 121 l 767 951 q 785 977 774 968 q 811 986 797 986 q 837 977 825 986 q 853 951 849 968 l 1072 122 l 1429 963 m 719 1069 q 689 1053 707 1053 q 663 1064 674 1053 q 651 1089 651 1075 q 661 1113 651 1103 l 789 1257 q 838 1281 810 1281 q 881 1257 864 1281 l 981 1117 q 990 1090 990 1103 q 980 1066 990 1076 q 954 1056 969 1056 q 918 1079 932 1056 l 833 1213 l 719 1069 z "},"Ẅ":{"ha":1522,"x_min":113,"x_max":1504,"o":"m 1429 963 q 1467 986 1439 986 q 1493 976 1482 986 q 1504 951 1504 967 q 1500 931 1504 942 l 1113 24 q 1094 1 1107 8 q 1067 -7 1081 -7 q 1039 2 1051 -7 q 1022 29 1026 11 l 801 844 l 450 24 q 431 1 444 8 q 404 -7 418 -7 q 376 2 389 -7 q 358 29 364 11 l 114 933 q 113 947 113 938 q 125 976 113 965 q 154 986 138 986 q 178 978 168 986 q 193 956 189 971 l 414 121 l 767 951 q 785 977 774 968 q 811 986 797 986 q 837 977 825 986 q 853 951 849 968 l 1072 122 l 1429 963 m 713 1111 q 671 1127 688 1111 q 654 1168 654 1143 q 671 1209 654 1193 q 713 1225 688 1225 q 755 1209 738 1225 q 772 1168 772 1193 q 755 1127 772 1143 q 713 1111 738 1111 m 943 1111 q 901 1127 918 1111 q 883 1168 883 1143 q 901 1209 883 1193 q 943 1225 918 1225 q 985 1209 968 1225 q 1001 1168 1001 1193 q 985 1127 1001 1143 q 943 1111 968 1111 z "},"Ẁ":{"ha":1522,"x_min":113,"x_max":1504,"o":"m 1429 963 q 1467 986 1439 986 q 1493 976 1482 986 q 1504 951 1504 967 q 1500 931 1504 942 l 1113 24 q 1094 1 1107 8 q 1067 -7 1081 -7 q 1039 2 1051 -7 q 1022 29 1026 11 l 801 844 l 450 24 q 431 1 444 8 q 404 -7 418 -7 q 376 2 389 -7 q 358 29 364 11 l 114 933 q 113 947 113 938 q 125 976 113 965 q 154 986 138 986 q 178 978 168 986 q 193 956 189 971 l 414 121 l 767 951 q 785 977 774 968 q 811 986 797 986 q 837 977 825 986 q 853 951 849 968 l 1072 122 l 1429 963 m 668 1217 q 657 1247 657 1232 q 668 1273 657 1263 q 694 1283 679 1283 q 735 1257 719 1283 l 829 1094 q 833 1079 833 1086 q 826 1063 833 1069 q 808 1056 819 1056 q 783 1068 794 1056 l 668 1217 z "},"X":{"ha":886,"x_min":19,"x_max":869,"o":"m 797 971 q 829 986 811 986 q 857 975 844 986 q 869 949 869 964 q 858 921 869 933 l 506 501 l 811 58 q 819 32 819 47 q 806 4 819 15 q 776 -7 793 -7 q 742 13 753 -7 l 453 438 l 92 8 q 60 -8 78 -8 q 31 3 43 -8 q 19 31 19 14 q 32 61 19 44 l 407 504 l 119 921 q 111 946 111 933 q 125 974 111 963 q 156 986 139 986 q 188 968 175 986 l 461 567 l 797 971 z "},"Y":{"ha":821,"x_min":63,"x_max":850,"o":"m 772 963 q 815 986 792 986 q 840 976 831 986 q 850 951 850 967 q 839 922 850 935 l 463 468 l 429 33 q 415 4 428 15 q 386 -7 403 -7 q 355 6 368 -7 q 343 38 342 18 l 378 468 l 72 922 q 63 949 63 936 q 75 975 63 965 q 104 985 88 985 q 139 967 126 985 l 424 542 l 772 963 z "},"Ý":{"ha":821,"x_min":63,"x_max":850,"o":"m 772 963 q 815 986 792 986 q 840 976 831 986 q 850 951 850 967 q 839 922 850 935 l 463 468 l 429 33 q 415 4 428 15 q 386 -7 403 -7 q 355 6 368 -7 q 343 38 342 18 l 378 468 l 72 922 q 63 949 63 936 q 75 975 63 965 q 104 985 88 985 q 139 967 126 985 l 424 542 l 772 963 m 503 1068 q 476 1056 490 1056 q 460 1062 467 1056 q 454 1078 454 1068 q 461 1097 454 1086 l 575 1256 q 618 1282 596 1282 q 644 1272 633 1282 q 656 1246 656 1261 q 638 1208 656 1226 l 503 1068 z "},"Ŷ":{"ha":821,"x_min":63,"x_max":850,"o":"m 772 963 q 815 986 792 986 q 840 976 831 986 q 850 951 850 967 q 839 922 850 935 l 463 468 l 429 33 q 415 4 428 15 q 386 -7 403 -7 q 355 6 368 -7 q 343 38 342 18 l 378 468 l 72 922 q 63 949 63 936 q 75 975 63 965 q 104 985 88 985 q 139 967 126 985 l 424 542 l 772 963 m 368 1069 q 338 1053 356 1053 q 311 1064 322 1053 q 300 1089 300 1075 q 310 1113 300 1103 l 438 1257 q 486 1281 458 1281 q 529 1257 513 1281 l 629 1117 q 639 1090 639 1103 q 628 1066 639 1076 q 603 1056 618 1056 q 567 1079 581 1056 l 482 1213 l 368 1069 z "},"Ÿ":{"ha":821,"x_min":63,"x_max":850,"o":"m 772 963 q 815 986 792 986 q 840 976 831 986 q 850 951 850 967 q 839 922 850 935 l 463 468 l 429 33 q 415 4 428 15 q 386 -7 403 -7 q 355 6 368 -7 q 343 38 342 18 l 378 468 l 72 922 q 63 949 63 936 q 75 975 63 965 q 104 985 88 985 q 139 967 126 985 l 424 542 l 772 963 m 361 1111 q 319 1127 336 1111 q 303 1168 303 1143 q 319 1209 303 1193 q 361 1225 336 1225 q 403 1209 386 1225 q 421 1168 421 1193 q 403 1127 421 1143 q 361 1111 386 1111 m 592 1111 q 549 1127 567 1111 q 532 1168 532 1143 q 549 1209 532 1193 q 592 1225 567 1225 q 633 1209 617 1225 q 650 1168 650 1193 q 633 1127 650 1143 q 592 1111 617 1111 z "},"Ẏ":{"ha":821,"x_min":63,"x_max":850,"o":"m 772 963 q 815 986 792 986 q 840 976 831 986 q 850 951 850 967 q 839 922 850 935 l 463 468 l 429 33 q 415 4 428 15 q 386 -7 403 -7 q 355 6 368 -7 q 343 38 342 18 l 378 468 l 72 922 q 63 949 63 936 q 75 975 63 965 q 104 985 88 985 q 139 967 126 985 l 424 542 l 772 963 m 476 1108 q 431 1125 449 1108 q 414 1168 414 1142 q 431 1213 414 1196 q 476 1229 449 1229 q 522 1213 504 1229 q 539 1168 539 1196 q 522 1125 539 1142 q 476 1108 504 1108 z "},"Ỵ":{"ha":821,"x_min":63,"x_max":850,"o":"m 772 963 q 815 986 792 986 q 840 976 831 986 q 850 951 850 967 q 839 922 850 935 l 463 468 l 429 33 q 415 4 428 15 q 386 -7 403 -7 q 355 6 368 -7 q 343 38 342 18 l 378 468 l 72 922 q 63 949 63 936 q 75 975 63 965 q 104 985 88 985 q 139 967 126 985 l 424 542 l 772 963 m 368 -254 q 324 -237 342 -254 q 307 -193 307 -221 q 324 -150 307 -167 q 368 -133 342 -133 q 412 -150 394 -133 q 429 -193 429 -167 q 412 -237 429 -221 q 368 -254 394 -254 z "},"Ỳ":{"ha":821,"x_min":63,"x_max":850,"o":"m 772 963 q 815 986 792 986 q 840 976 831 986 q 850 951 850 967 q 839 922 850 935 l 463 468 l 429 33 q 415 4 428 15 q 386 -7 403 -7 q 355 6 368 -7 q 343 38 342 18 l 378 468 l 72 922 q 63 949 63 936 q 75 975 63 965 q 104 985 88 985 q 139 967 126 985 l 424 542 l 772 963 m 317 1217 q 306 1247 306 1232 q 317 1273 306 1263 q 343 1283 328 1283 q 383 1257 368 1283 l 478 1094 q 482 1079 482 1086 q 475 1063 482 1069 q 457 1056 468 1056 q 432 1068 443 1056 l 317 1217 z "},"Ỷ":{"ha":821,"x_min":63,"x_max":850,"o":"m 772 963 q 815 986 792 986 q 840 976 831 986 q 850 951 850 967 q 839 922 850 935 l 463 468 l 429 33 q 415 4 428 15 q 386 -7 403 -7 q 355 6 368 -7 q 343 38 342 18 l 378 468 l 72 922 q 63 949 63 936 q 75 975 63 965 q 104 985 88 985 q 139 967 126 985 l 424 542 l 772 963 m 504 1079 q 493 1062 503 1068 q 471 1056 483 1056 q 447 1065 457 1056 q 439 1089 438 1074 q 456 1125 440 1111 q 499 1153 472 1139 q 529 1171 519 1163 q 539 1190 539 1179 q 483 1215 539 1215 q 410 1204 447 1215 q 399 1203 406 1203 q 378 1210 386 1203 q 371 1229 371 1218 q 396 1261 371 1251 q 490 1278 439 1278 q 583 1256 549 1278 q 617 1196 617 1233 q 599 1149 617 1165 q 550 1118 582 1133 q 518 1099 529 1107 q 504 1079 507 1092 z "},"Ȳ":{"ha":821,"x_min":63,"x_max":850,"o":"m 772 963 q 815 986 792 986 q 840 976 831 986 q 850 951 850 967 q 839 922 850 935 l 463 468 l 429 33 q 415 4 428 15 q 386 -7 403 -7 q 355 6 368 -7 q 343 38 342 18 l 378 468 l 72 922 q 63 949 63 936 q 75 975 63 965 q 104 985 88 985 q 139 967 126 985 l 424 542 l 772 963 m 306 1132 q 274 1142 285 1132 q 264 1168 264 1151 q 276 1195 264 1186 q 310 1204 289 1204 l 647 1204 q 689 1168 689 1204 q 676 1142 689 1151 q 643 1132 664 1132 l 306 1132 z "},"Ỹ":{"ha":821,"x_min":63,"x_max":850,"o":"m 772 963 q 815 986 792 986 q 840 976 831 986 q 850 951 850 967 q 839 922 850 935 l 463 468 l 429 33 q 415 4 428 15 q 386 -7 403 -7 q 355 6 368 -7 q 343 38 342 18 l 378 468 l 72 922 q 63 949 63 936 q 75 975 63 965 q 104 985 88 985 q 139 967 126 985 l 424 542 l 772 963 m 567 1100 q 460 1136 526 1100 q 417 1156 439 1147 q 381 1164 396 1164 q 340 1153 354 1164 q 310 1124 325 1143 q 283 1104 294 1104 q 266 1113 272 1104 q 260 1133 260 1121 q 276 1180 260 1156 q 322 1221 293 1204 q 386 1238 350 1238 q 493 1201 426 1238 q 535 1182 514 1190 q 572 1174 557 1174 q 613 1184 599 1174 q 643 1214 628 1194 q 655 1228 649 1222 q 668 1235 661 1235 q 686 1226 679 1235 q 693 1206 693 1218 q 676 1158 693 1183 q 631 1117 660 1133 q 567 1100 601 1100 z "},"Z":{"ha":811,"x_min":32,"x_max":799,"o":"m 765 979 q 790 969 781 979 q 799 944 799 958 q 788 913 799 925 l 144 74 l 707 74 q 735 64 725 74 q 744 38 744 54 q 734 10 744 21 q 706 0 724 0 l 68 0 q 42 10 51 0 q 32 38 32 21 q 42 67 32 53 l 686 906 l 139 906 q 112 916 122 906 q 101 942 101 926 q 112 969 101 958 q 140 979 122 979 l 765 979 z "},"Ź":{"ha":811,"x_min":32,"x_max":799,"o":"m 765 979 q 790 969 781 979 q 799 944 799 958 q 788 913 799 925 l 144 74 l 707 74 q 735 64 725 74 q 744 38 744 54 q 734 10 744 21 q 706 0 724 0 l 68 0 q 42 10 51 0 q 32 38 32 21 q 42 67 32 53 l 686 906 l 139 906 q 112 916 122 906 q 101 942 101 926 q 112 969 101 958 q 140 979 122 979 l 765 979 m 497 1068 q 471 1056 485 1056 q 455 1062 461 1056 q 449 1078 449 1068 q 456 1097 449 1086 l 569 1256 q 613 1282 590 1282 q 639 1272 628 1282 q 650 1246 650 1261 q 632 1208 650 1226 l 497 1068 z "},"Ž":{"ha":811,"x_min":32,"x_max":799,"o":"m 765 979 q 790 969 781 979 q 799 944 799 958 q 788 913 799 925 l 144 74 l 707 74 q 735 64 725 74 q 744 38 744 54 q 734 10 744 21 q 706 0 724 0 l 68 0 q 42 10 51 0 q 32 38 32 21 q 42 67 32 53 l 686 906 l 139 906 q 112 916 122 906 q 101 942 101 926 q 112 969 101 958 q 140 979 122 979 l 765 979 m 578 1264 q 608 1281 590 1281 q 635 1269 624 1281 q 646 1244 646 1258 q 636 1221 646 1231 l 508 1076 q 460 1053 488 1053 q 417 1076 433 1053 l 317 1218 q 307 1244 307 1232 q 317 1268 307 1258 q 343 1278 328 1278 q 379 1256 367 1278 l 464 1121 l 578 1264 z "},"Ż":{"ha":811,"x_min":32,"x_max":799,"o":"m 765 979 q 790 969 781 979 q 799 944 799 958 q 788 913 799 925 l 144 74 l 707 74 q 735 64 725 74 q 744 38 744 54 q 734 10 744 21 q 706 0 724 0 l 68 0 q 42 10 51 0 q 32 38 32 21 q 42 67 32 53 l 686 906 l 139 906 q 112 916 122 906 q 101 942 101 926 q 112 969 101 958 q 140 979 122 979 l 765 979 m 471 1108 q 426 1125 443 1108 q 408 1168 408 1142 q 426 1213 408 1196 q 471 1229 443 1229 q 516 1213 499 1229 q 533 1168 533 1196 q 516 1125 533 1142 q 471 1108 499 1108 z "},"Ẓ":{"ha":811,"x_min":32,"x_max":799,"o":"m 765 979 q 790 969 781 979 q 799 944 799 958 q 788 913 799 925 l 144 74 l 707 74 q 735 64 725 74 q 744 38 744 54 q 734 10 744 21 q 706 0 724 0 l 68 0 q 42 10 51 0 q 32 38 32 21 q 42 67 32 53 l 686 906 l 139 906 q 112 916 122 906 q 101 942 101 926 q 112 969 101 958 q 140 979 122 979 l 765 979 m 372 -254 q 328 -237 346 -254 q 311 -193 311 -221 q 328 -150 311 -167 q 372 -133 346 -133 q 416 -150 399 -133 q 433 -193 433 -167 q 416 -237 433 -221 q 372 -254 399 -254 z "},"a":{"ha":731,"x_min":78,"x_max":631,"o":"m 400 690 q 631 468 631 690 q 629 433 631 446 l 599 32 q 586 3 597 14 q 557 -7 575 -7 q 526 6 538 -7 q 515 38 514 18 l 521 115 q 435 23 490 56 q 307 -10 379 -10 q 142 44 206 -10 q 78 183 78 99 q 119 304 78 260 q 250 369 160 349 q 493 389 340 389 l 542 389 l 546 436 q 547 467 547 447 q 510 581 547 544 q 397 617 474 617 q 169 542 289 617 q 151 536 160 536 q 128 547 138 536 q 119 574 119 558 q 140 611 119 597 q 261 669 190 647 q 400 690 332 690 m 321 64 q 467 123 407 64 q 533 276 526 182 l 538 326 l 497 326 q 299 314 369 326 q 197 272 228 301 q 167 189 167 242 q 208 98 167 132 q 321 64 250 64 z "},"á":{"ha":731,"x_min":78,"x_max":678,"o":"m 400 690 q 631 468 631 690 q 629 433 631 446 l 599 32 q 586 3 597 14 q 557 -7 575 -7 q 526 6 538 -7 q 515 38 514 18 l 521 115 q 435 23 490 56 q 307 -10 379 -10 q 142 44 206 -10 q 78 183 78 99 q 119 304 78 260 q 250 369 160 349 q 493 389 340 389 l 542 389 l 546 436 q 547 467 547 447 q 510 581 547 544 q 397 617 474 617 q 169 542 289 617 q 151 536 160 536 q 128 547 138 536 q 119 574 119 558 q 140 611 119 597 q 261 669 190 647 q 400 690 332 690 m 321 64 q 467 123 407 64 q 533 276 526 182 l 538 326 l 497 326 q 299 314 369 326 q 197 272 228 301 q 167 189 167 242 q 208 98 167 132 q 321 64 250 64 m 439 767 q 418 757 429 757 q 401 764 408 757 q 394 782 394 771 q 401 801 394 793 l 593 1031 q 632 1051 610 1051 q 664 1039 650 1051 q 678 1008 678 1026 q 660 974 678 990 l 439 767 z "},"ă":{"ha":731,"x_min":78,"x_max":639,"o":"m 400 690 q 631 468 631 690 q 629 433 631 446 l 599 32 q 586 3 597 14 q 557 -7 575 -7 q 526 6 538 -7 q 515 38 514 18 l 521 115 q 435 23 490 56 q 307 -10 379 -10 q 142 44 206 -10 q 78 183 78 99 q 119 304 78 260 q 250 369 160 349 q 493 389 340 389 l 542 389 l 546 436 q 547 467 547 447 q 510 581 547 544 q 397 617 474 617 q 169 542 289 617 q 151 536 160 536 q 128 547 138 536 q 119 574 119 558 q 140 611 119 597 q 261 669 190 647 q 400 690 332 690 m 321 64 q 467 123 407 64 q 533 276 526 182 l 538 326 l 497 326 q 299 314 369 326 q 197 272 228 301 q 167 189 167 242 q 208 98 167 132 q 321 64 250 64 m 415 810 q 294 844 346 810 q 218 946 243 879 q 214 964 214 957 q 225 991 214 981 q 250 1001 236 1001 q 286 974 274 1001 q 340 902 304 926 q 421 878 375 878 q 569 974 515 878 q 608 1001 585 1001 q 630 992 621 1001 q 639 969 639 983 q 633 946 639 957 q 544 844 601 879 q 415 810 486 810 z "},"ắ":{"ha":731,"x_min":78,"x_max":638,"o":"m 400 690 q 631 468 631 690 q 629 433 631 446 l 599 32 q 586 3 597 14 q 557 -7 575 -7 q 526 6 538 -7 q 515 38 514 18 l 521 115 q 435 23 490 56 q 307 -10 379 -10 q 142 44 206 -10 q 78 183 78 99 q 119 304 78 260 q 250 369 160 349 q 493 389 340 389 l 542 389 l 546 436 q 547 467 547 447 q 510 581 547 544 q 397 617 474 617 q 169 542 289 617 q 151 536 160 536 q 128 547 138 536 q 119 574 119 558 q 140 611 119 597 q 261 669 190 647 q 400 690 332 690 m 321 64 q 467 123 407 64 q 533 276 526 182 l 538 326 l 497 326 q 299 314 369 326 q 197 272 228 301 q 167 189 167 242 q 208 98 167 132 q 321 64 250 64 m 451 907 q 429 896 438 896 q 414 902 419 896 q 408 917 408 908 q 415 936 408 928 l 528 1088 q 571 1114 547 1114 q 600 1101 588 1114 q 613 1074 613 1089 q 599 1044 613 1057 l 451 907 m 413 757 q 291 788 343 757 q 214 879 239 819 q 210 899 210 890 q 219 922 210 913 q 242 931 229 931 q 276 908 264 931 q 334 845 300 865 q 417 825 368 825 q 499 845 463 825 q 567 908 536 865 q 607 932 582 932 q 628 924 619 932 q 638 903 638 915 q 631 879 638 890 q 539 788 596 819 q 413 757 482 757 z "},"ặ":{"ha":731,"x_min":78,"x_max":639,"o":"m 400 690 q 631 468 631 690 q 629 433 631 446 l 599 32 q 586 3 597 14 q 557 -7 575 -7 q 526 6 538 -7 q 515 38 514 18 l 521 115 q 435 23 490 56 q 307 -10 379 -10 q 142 44 206 -10 q 78 183 78 99 q 119 304 78 260 q 250 369 160 349 q 493 389 340 389 l 542 389 l 546 436 q 547 467 547 447 q 510 581 547 544 q 397 617 474 617 q 169 542 289 617 q 151 536 160 536 q 128 547 138 536 q 119 574 119 558 q 140 611 119 597 q 261 669 190 647 q 400 690 332 690 m 321 64 q 467 123 407 64 q 533 276 526 182 l 538 326 l 497 326 q 299 314 369 326 q 197 272 228 301 q 167 189 167 242 q 208 98 167 132 q 321 64 250 64 m 332 -254 q 288 -237 306 -254 q 271 -193 271 -221 q 288 -150 271 -167 q 332 -133 306 -133 q 376 -150 358 -133 q 393 -193 393 -167 q 376 -237 393 -221 q 332 -254 358 -254 m 415 810 q 294 844 346 810 q 218 946 243 879 q 214 964 214 957 q 225 991 214 981 q 250 1001 236 1001 q 286 974 274 1001 q 340 902 304 926 q 421 878 375 878 q 569 974 515 878 q 608 1001 585 1001 q 630 992 621 1001 q 639 969 639 983 q 633 946 639 957 q 544 844 601 879 q 415 810 486 810 z "},"ằ":{"ha":731,"x_min":78,"x_max":638,"o":"m 400 690 q 631 468 631 690 q 629 433 631 446 l 599 32 q 586 3 597 14 q 557 -7 575 -7 q 526 6 538 -7 q 515 38 514 18 l 521 115 q 435 23 490 56 q 307 -10 379 -10 q 142 44 206 -10 q 78 183 78 99 q 119 304 78 260 q 250 369 160 349 q 493 389 340 389 l 542 389 l 546 436 q 547 467 547 447 q 510 581 547 544 q 397 617 474 617 q 169 542 289 617 q 151 536 160 536 q 128 547 138 536 q 119 574 119 558 q 140 611 119 597 q 261 669 190 647 q 400 690 332 690 m 321 64 q 467 123 407 64 q 533 276 526 182 l 538 326 l 497 326 q 299 314 369 326 q 197 272 228 301 q 167 189 167 242 q 208 98 167 132 q 321 64 250 64 m 274 1047 q 260 1079 260 1063 q 270 1104 260 1094 q 296 1114 281 1114 q 338 1088 322 1114 l 429 939 q 435 922 435 928 q 428 906 435 913 q 411 899 421 899 q 385 913 397 899 l 274 1047 m 413 757 q 291 788 343 757 q 214 879 239 819 q 210 899 210 890 q 219 922 210 913 q 242 931 229 931 q 276 908 264 931 q 334 845 300 865 q 417 825 368 825 q 499 845 463 825 q 567 908 536 865 q 607 932 582 932 q 628 924 619 932 q 638 903 638 915 q 631 879 638 890 q 539 788 596 819 q 413 757 482 757 z "},"ẳ":{"ha":731,"x_min":78,"x_max":638,"o":"m 400 690 q 631 468 631 690 q 629 433 631 446 l 599 32 q 586 3 597 14 q 557 -7 575 -7 q 526 6 538 -7 q 515 38 514 18 l 521 115 q 435 23 490 56 q 307 -10 379 -10 q 142 44 206 -10 q 78 183 78 99 q 119 304 78 260 q 250 369 160 349 q 493 389 340 389 l 542 389 l 546 436 q 547 467 547 447 q 510 581 547 544 q 397 617 474 617 q 169 542 289 617 q 151 536 160 536 q 128 547 138 536 q 119 574 119 558 q 140 611 119 597 q 261 669 190 647 q 400 690 332 690 m 321 64 q 467 123 407 64 q 533 276 526 182 l 538 326 l 497 326 q 299 314 369 326 q 197 272 228 301 q 167 189 167 242 q 208 98 167 132 q 321 64 250 64 m 457 922 q 447 905 456 911 q 426 899 438 899 q 406 906 414 899 q 397 929 397 914 q 412 965 397 953 q 456 990 426 976 q 485 1006 475 999 q 494 1022 494 1013 q 479 1040 494 1033 q 438 1047 464 1047 q 364 1036 403 1047 q 353 1035 360 1035 q 333 1042 340 1035 q 326 1061 326 1050 q 350 1093 326 1083 q 444 1110 393 1110 q 538 1088 504 1110 q 572 1031 572 1065 q 555 986 572 1001 q 504 957 538 971 q 471 940 482 947 q 457 922 460 933 m 413 757 q 291 788 343 757 q 214 879 239 819 q 210 899 210 890 q 219 922 210 913 q 242 931 229 931 q 276 908 264 931 q 334 845 300 865 q 417 825 368 825 q 499 845 463 825 q 567 908 536 865 q 607 932 582 932 q 628 924 619 932 q 638 903 638 915 q 631 879 638 890 q 539 788 596 819 q 413 757 482 757 z "},"ẵ":{"ha":731,"x_min":78,"x_max":651,"o":"m 400 690 q 631 468 631 690 q 629 433 631 446 l 599 32 q 586 3 597 14 q 557 -7 575 -7 q 526 6 538 -7 q 515 38 514 18 l 521 115 q 435 23 490 56 q 307 -10 379 -10 q 142 44 206 -10 q 78 183 78 99 q 119 304 78 260 q 250 369 160 349 q 493 389 340 389 l 542 389 l 546 436 q 547 467 547 447 q 510 581 547 544 q 397 617 474 617 q 169 542 289 617 q 151 536 160 536 q 128 547 138 536 q 119 574 119 558 q 140 611 119 597 q 261 669 190 647 q 400 690 332 690 m 321 64 q 467 123 407 64 q 533 276 526 182 l 538 326 l 497 326 q 299 314 369 326 q 197 272 228 301 q 167 189 167 242 q 208 98 167 132 q 321 64 250 64 m 525 976 q 477 985 501 976 q 417 1011 453 994 q 374 1031 396 1022 q 338 1039 353 1039 q 298 1029 313 1039 q 268 1000 283 1019 q 242 979 253 979 q 224 987 231 979 q 218 1007 218 994 q 234 1053 218 1029 q 279 1093 250 1076 q 343 1110 308 1110 q 391 1101 367 1110 q 451 1075 415 1092 q 494 1056 472 1064 q 531 1047 515 1047 q 570 1057 556 1047 q 600 1086 585 1067 q 626 1107 615 1107 q 644 1099 638 1107 q 651 1078 651 1090 q 635 1032 651 1056 q 590 992 618 1008 q 525 976 561 976 m 413 757 q 291 788 343 757 q 214 879 239 819 q 210 899 210 890 q 219 922 210 913 q 242 932 229 932 q 276 908 264 932 q 334 845 300 865 q 417 825 368 825 q 499 845 463 825 q 567 908 536 865 q 607 932 582 932 q 628 924 619 932 q 638 903 638 915 q 631 879 638 890 q 539 788 596 819 q 413 757 482 757 z "},"ǎ":{"ha":731,"x_min":78,"x_max":631,"o":"m 400 690 q 631 468 631 690 q 629 433 631 446 l 599 32 q 586 3 597 14 q 557 -7 575 -7 q 526 6 538 -7 q 515 38 514 18 l 521 115 q 435 23 490 56 q 307 -10 379 -10 q 142 44 206 -10 q 78 183 78 99 q 119 304 78 260 q 250 369 160 349 q 493 389 340 389 l 542 389 l 546 436 q 547 467 547 447 q 510 581 547 544 q 397 617 474 617 q 169 542 289 617 q 151 536 160 536 q 128 547 138 536 q 119 574 119 558 q 140 611 119 597 q 261 669 190 647 q 400 690 332 690 m 321 64 q 467 123 407 64 q 533 276 526 182 l 538 326 l 497 326 q 299 314 369 326 q 197 272 228 301 q 167 189 167 242 q 208 98 167 132 q 321 64 250 64 m 531 1028 q 546 1044 536 1039 q 564 1050 556 1050 q 590 1040 579 1050 q 600 1014 600 1029 q 592 989 600 1001 l 460 788 q 411 757 439 757 q 368 788 382 757 l 268 990 q 264 1010 264 1001 q 276 1039 264 1026 q 304 1051 289 1051 q 335 1028 325 1051 l 417 833 l 531 1028 z "},"â":{"ha":731,"x_min":78,"x_max":631,"o":"m 400 690 q 631 468 631 690 q 629 433 631 446 l 599 32 q 586 3 597 14 q 557 -7 575 -7 q 526 6 538 -7 q 515 38 514 18 l 521 115 q 435 23 490 56 q 307 -10 379 -10 q 142 44 206 -10 q 78 183 78 99 q 119 304 78 260 q 250 369 160 349 q 493 389 340 389 l 542 389 l 546 436 q 547 467 547 447 q 510 581 547 544 q 397 617 474 617 q 169 542 289 617 q 151 536 160 536 q 128 547 138 536 q 119 574 119 558 q 140 611 119 597 q 261 669 190 647 q 400 690 332 690 m 321 64 q 467 123 407 64 q 533 276 526 182 l 538 326 l 497 326 q 299 314 369 326 q 197 272 228 301 q 167 189 167 242 q 208 98 167 132 q 321 64 250 64 m 315 779 q 300 763 310 768 q 282 757 290 757 q 256 767 267 757 q 246 793 246 778 q 254 818 246 806 l 386 1019 q 435 1050 407 1050 q 478 1019 464 1050 l 578 817 q 582 797 582 807 q 569 769 582 781 q 542 757 557 757 q 511 779 521 757 l 429 974 l 315 779 z "},"ấ":{"ha":731,"x_min":78,"x_max":751,"o":"m 400 690 q 631 468 631 690 q 629 433 631 446 l 599 32 q 586 3 597 14 q 557 -7 575 -7 q 526 6 538 -7 q 515 38 514 18 l 521 115 q 435 23 490 56 q 307 -10 379 -10 q 142 44 206 -10 q 78 183 78 99 q 119 304 78 260 q 250 369 160 349 q 493 389 340 389 l 542 389 l 546 436 q 547 467 547 447 q 510 581 547 544 q 397 617 474 617 q 169 542 289 617 q 151 536 160 536 q 128 547 138 536 q 119 574 119 558 q 140 611 119 597 q 261 669 190 647 q 400 690 332 690 m 321 64 q 467 123 407 64 q 533 276 526 182 l 538 326 l 497 326 q 299 314 369 326 q 197 272 228 301 q 167 189 167 242 q 208 98 167 132 q 321 64 250 64 m 596 908 q 575 900 588 900 q 559 906 565 900 q 553 922 553 913 q 560 940 553 929 l 669 1088 q 711 1111 688 1111 q 740 1101 728 1111 q 751 1075 751 1090 q 731 1035 751 1054 l 596 908 m 311 771 q 282 756 300 756 q 257 767 268 756 q 246 793 246 778 q 254 815 246 806 l 382 957 q 431 981 403 981 q 474 957 458 981 l 574 818 q 583 792 583 804 q 573 767 583 778 q 547 757 563 757 q 513 779 526 757 l 426 914 l 311 771 z "},"ậ":{"ha":731,"x_min":78,"x_max":631,"o":"m 400 690 q 631 468 631 690 q 629 433 631 446 l 599 32 q 586 3 597 14 q 557 -7 575 -7 q 526 6 538 -7 q 515 38 514 18 l 521 115 q 435 23 490 56 q 307 -10 379 -10 q 142 44 206 -10 q 78 183 78 99 q 119 304 78 260 q 250 369 160 349 q 493 389 340 389 l 542 389 l 546 436 q 547 467 547 447 q 510 581 547 544 q 397 617 474 617 q 169 542 289 617 q 151 536 160 536 q 128 547 138 536 q 119 574 119 558 q 140 611 119 597 q 261 669 190 647 q 400 690 332 690 m 321 64 q 467 123 407 64 q 533 276 526 182 l 538 326 l 497 326 q 299 314 369 326 q 197 272 228 301 q 167 189 167 242 q 208 98 167 132 q 321 64 250 64 m 332 -254 q 288 -237 306 -254 q 271 -193 271 -221 q 288 -150 271 -167 q 332 -133 306 -133 q 376 -150 358 -133 q 393 -193 393 -167 q 376 -237 393 -221 q 332 -254 358 -254 m 315 779 q 300 763 310 768 q 282 757 290 757 q 256 767 267 757 q 246 793 246 778 q 254 818 246 806 l 386 1019 q 435 1050 407 1050 q 478 1019 464 1050 l 578 817 q 582 797 582 807 q 569 769 582 781 q 542 757 557 757 q 511 779 521 757 l 429 974 l 315 779 z "},"ầ":{"ha":731,"x_min":78,"x_max":642,"o":"m 400 690 q 631 468 631 690 q 629 433 631 446 l 599 32 q 586 3 597 14 q 557 -7 575 -7 q 526 6 538 -7 q 515 38 514 18 l 521 115 q 435 23 490 56 q 307 -10 379 -10 q 142 44 206 -10 q 78 183 78 99 q 119 304 78 260 q 250 369 160 349 q 493 389 340 389 l 542 389 l 546 436 q 547 467 547 447 q 510 581 547 544 q 397 617 474 617 q 169 542 289 617 q 151 536 160 536 q 128 547 138 536 q 119 574 119 558 q 140 611 119 597 q 261 669 190 647 q 400 690 332 690 m 321 64 q 467 123 407 64 q 533 276 526 182 l 538 326 l 497 326 q 299 314 369 326 q 197 272 228 301 q 167 189 167 242 q 208 98 167 132 q 321 64 250 64 m 500 1042 q 489 1074 489 1057 q 503 1103 489 1090 q 533 1115 517 1115 q 576 1083 563 1115 l 639 938 q 642 926 642 929 q 633 908 642 915 q 614 901 625 901 q 594 911 603 901 l 500 1042 m 311 771 q 282 756 300 756 q 257 767 268 756 q 246 793 246 778 q 254 815 246 806 l 382 957 q 431 981 403 981 q 474 957 458 981 l 574 818 q 583 792 583 804 q 573 767 583 778 q 547 757 563 757 q 513 779 526 757 l 426 914 l 311 771 z "},"ẩ":{"ha":731,"x_min":78,"x_max":718,"o":"m 400 690 q 631 468 631 690 q 629 433 631 446 l 599 32 q 586 3 597 14 q 557 -7 575 -7 q 526 6 538 -7 q 515 38 514 18 l 521 115 q 435 23 490 56 q 307 -10 379 -10 q 142 44 206 -10 q 78 183 78 99 q 119 304 78 260 q 250 369 160 349 q 493 389 340 389 l 542 389 l 546 436 q 547 467 547 447 q 510 581 547 544 q 397 617 474 617 q 169 542 289 617 q 151 536 160 536 q 128 547 138 536 q 119 574 119 558 q 140 611 119 597 q 261 669 190 647 q 400 690 332 690 m 321 64 q 467 123 407 64 q 533 276 526 182 l 538 326 l 497 326 q 299 314 369 326 q 197 272 228 301 q 167 189 167 242 q 208 98 167 132 q 321 64 250 64 m 601 924 q 591 906 600 913 q 571 900 582 900 q 550 908 558 900 q 542 931 542 915 q 557 965 542 953 q 601 990 572 978 q 631 1006 622 1000 q 640 1022 640 1013 q 624 1042 640 1035 q 582 1049 608 1049 q 508 1038 547 1049 q 497 1036 504 1036 q 478 1044 485 1036 q 471 1063 471 1051 q 496 1094 471 1085 q 589 1111 538 1111 q 684 1090 650 1111 q 718 1032 718 1068 q 700 986 718 1001 q 647 957 682 971 q 615 940 625 947 q 601 924 604 933 m 311 771 q 282 756 300 756 q 257 767 268 756 q 246 793 246 778 q 254 815 246 806 l 382 957 q 431 981 403 981 q 474 957 458 981 l 574 818 q 583 792 583 804 q 573 767 583 778 q 547 757 563 757 q 513 779 526 757 l 426 914 l 311 771 z "},"ẫ":{"ha":731,"x_min":78,"x_max":653,"o":"m 400 690 q 631 468 631 690 q 629 433 631 446 l 599 32 q 586 3 597 14 q 557 -7 575 -7 q 526 6 538 -7 q 515 38 514 18 l 521 115 q 435 23 490 56 q 307 -10 379 -10 q 142 44 206 -10 q 78 183 78 99 q 119 304 78 260 q 250 369 160 349 q 493 389 340 389 l 542 389 l 546 436 q 547 467 547 447 q 510 581 547 544 q 397 617 474 617 q 169 542 289 617 q 151 536 160 536 q 128 547 138 536 q 119 574 119 558 q 140 611 119 597 q 261 669 190 647 q 400 690 332 690 m 321 64 q 467 123 407 64 q 533 276 526 182 l 538 326 l 497 326 q 299 314 369 326 q 197 272 228 301 q 167 189 167 242 q 208 98 167 132 q 321 64 250 64 m 526 994 q 481 1002 503 994 q 418 1028 458 1010 q 339 1054 363 1054 q 299 1044 314 1054 q 269 1017 285 1035 q 243 997 254 997 q 226 1006 232 997 q 219 1026 219 1014 q 235 1070 219 1047 q 280 1108 251 1093 q 344 1124 308 1124 q 392 1115 368 1124 q 453 1092 417 1107 q 532 1065 508 1065 q 573 1076 558 1065 q 600 1103 588 1086 q 614 1117 607 1111 q 628 1122 621 1122 q 646 1114 639 1122 q 653 1093 653 1106 q 636 1049 653 1072 q 591 1010 619 1025 q 526 994 563 994 m 311 771 q 282 756 300 756 q 257 767 268 756 q 246 793 246 778 q 254 815 246 806 l 382 957 q 431 981 403 981 q 474 957 458 981 l 574 818 q 583 792 583 804 q 573 767 583 778 q 547 757 563 757 q 513 779 526 757 l 426 914 l 311 771 z "},"ȁ":{"ha":731,"x_min":78,"x_max":631,"o":"m 400 690 q 631 468 631 690 q 629 433 631 446 l 599 32 q 586 3 597 14 q 557 -7 575 -7 q 526 6 538 -7 q 515 38 514 18 l 521 115 q 435 23 490 56 q 307 -10 379 -10 q 142 44 206 -10 q 78 183 78 99 q 119 304 78 260 q 250 369 160 349 q 493 389 340 389 l 542 389 l 546 436 q 547 467 547 447 q 510 581 547 544 q 397 617 474 617 q 169 542 289 617 q 151 536 160 536 q 128 547 138 536 q 119 574 119 558 q 140 611 119 597 q 261 669 190 647 q 400 690 332 690 m 321 64 q 467 123 407 64 q 533 276 526 182 l 538 326 l 497 326 q 299 314 369 326 q 197 272 228 301 q 167 189 167 242 q 208 98 167 132 q 321 64 250 64 m 233 994 q 231 1013 231 1001 q 243 1040 231 1029 q 271 1050 256 1050 q 298 1041 286 1050 q 313 1013 310 1032 l 350 785 l 350 781 q 342 765 350 771 q 326 758 335 758 q 307 772 311 758 l 233 994 m 394 993 l 392 1010 q 404 1040 392 1029 q 433 1051 417 1051 q 459 1042 447 1051 q 474 1013 471 1032 l 511 785 l 511 781 q 503 765 511 771 q 488 758 496 758 q 468 772 472 758 l 394 993 z "},"ä":{"ha":731,"x_min":78,"x_max":631,"o":"m 400 690 q 631 468 631 690 q 629 433 631 446 l 599 32 q 586 3 597 14 q 557 -7 575 -7 q 526 6 538 -7 q 515 38 514 18 l 521 115 q 435 23 490 56 q 307 -10 379 -10 q 142 44 206 -10 q 78 183 78 99 q 119 304 78 260 q 250 369 160 349 q 493 389 340 389 l 542 389 l 546 436 q 547 467 547 447 q 510 581 547 544 q 397 617 474 617 q 169 542 289 617 q 151 536 160 536 q 128 547 138 536 q 119 574 119 558 q 140 611 119 597 q 261 669 190 647 q 400 690 332 690 m 321 64 q 467 123 407 64 q 533 276 526 182 l 538 326 l 497 326 q 299 314 369 326 q 197 272 228 301 q 167 189 167 242 q 208 98 167 132 q 321 64 250 64 m 308 847 q 267 863 283 847 q 250 904 250 879 q 267 947 250 931 q 308 963 283 963 q 351 946 333 963 q 368 904 368 929 q 351 863 368 879 q 308 847 333 847 m 539 847 q 497 863 514 847 q 479 904 479 879 q 497 946 479 929 q 539 963 514 963 q 581 946 564 963 q 597 904 597 929 q 581 863 597 879 q 539 847 564 847 z "},"ȧ":{"ha":731,"x_min":78,"x_max":631,"o":"m 400 690 q 631 468 631 690 q 629 433 631 446 l 599 32 q 586 3 597 14 q 557 -7 575 -7 q 526 6 538 -7 q 515 38 514 18 l 521 115 q 435 23 490 56 q 307 -10 379 -10 q 142 44 206 -10 q 78 183 78 99 q 119 304 78 260 q 250 369 160 349 q 493 389 340 389 l 542 389 l 546 436 q 547 467 547 447 q 510 581 547 544 q 397 617 474 617 q 169 542 289 617 q 151 536 160 536 q 128 547 138 536 q 119 574 119 558 q 140 611 119 597 q 261 669 190 647 q 400 690 332 690 m 321 64 q 467 123 407 64 q 533 276 526 182 l 538 326 l 497 326 q 299 314 369 326 q 197 272 228 301 q 167 189 167 242 q 208 98 167 132 q 321 64 250 64 m 424 844 q 378 861 396 844 q 361 904 361 878 q 378 949 361 932 q 424 965 396 965 q 469 949 451 965 q 486 904 486 932 q 469 861 486 878 q 424 844 451 844 z "},"ạ":{"ha":731,"x_min":78,"x_max":631,"o":"m 400 690 q 631 468 631 690 q 629 433 631 446 l 599 32 q 586 3 597 14 q 557 -7 575 -7 q 526 6 538 -7 q 515 38 514 18 l 521 115 q 435 23 490 56 q 307 -10 379 -10 q 142 44 206 -10 q 78 183 78 99 q 119 304 78 260 q 250 369 160 349 q 493 389 340 389 l 542 389 l 546 436 q 547 467 547 447 q 510 581 547 544 q 397 617 474 617 q 169 542 289 617 q 151 536 160 536 q 128 547 138 536 q 119 574 119 558 q 140 611 119 597 q 261 669 190 647 q 400 690 332 690 m 321 64 q 467 123 407 64 q 533 276 526 182 l 538 326 l 497 326 q 299 314 369 326 q 197 272 228 301 q 167 189 167 242 q 208 98 167 132 q 321 64 250 64 m 332 -254 q 288 -237 306 -254 q 271 -193 271 -221 q 288 -150 271 -167 q 332 -133 306 -133 q 376 -150 358 -133 q 393 -193 393 -167 q 376 -237 393 -221 q 332 -254 358 -254 z "},"à":{"ha":731,"x_min":78,"x_max":631,"o":"m 400 690 q 631 468 631 690 q 629 433 631 446 l 599 32 q 586 3 597 14 q 557 -7 575 -7 q 526 6 538 -7 q 515 38 514 18 l 521 115 q 435 23 490 56 q 307 -10 379 -10 q 142 44 206 -10 q 78 183 78 99 q 119 304 78 260 q 250 369 160 349 q 493 389 340 389 l 542 389 l 546 436 q 547 467 547 447 q 510 581 547 544 q 397 617 474 617 q 169 542 289 617 q 151 536 160 536 q 128 547 138 536 q 119 574 119 558 q 140 611 119 597 q 261 669 190 647 q 400 690 332 690 m 321 64 q 467 123 407 64 q 533 276 526 182 l 538 326 l 497 326 q 299 314 369 326 q 197 272 228 301 q 167 189 167 242 q 208 98 167 132 q 321 64 250 64 m 256 985 q 247 1013 247 1000 q 260 1042 247 1031 q 289 1054 272 1054 q 332 1022 318 1054 l 429 794 q 432 781 432 789 q 424 763 432 769 q 406 757 417 757 q 378 772 388 757 l 256 985 z "},"ả":{"ha":731,"x_min":78,"x_max":631,"o":"m 400 690 q 631 468 631 690 q 629 433 631 446 l 599 32 q 586 3 597 14 q 557 -7 575 -7 q 526 6 538 -7 q 515 38 514 18 l 521 115 q 435 23 490 56 q 307 -10 379 -10 q 142 44 206 -10 q 78 183 78 99 q 119 304 78 260 q 250 369 160 349 q 493 389 340 389 l 542 389 l 546 436 q 547 467 547 447 q 510 581 547 544 q 397 617 474 617 q 169 542 289 617 q 151 536 160 536 q 128 547 138 536 q 119 574 119 558 q 140 611 119 597 q 261 669 190 647 q 400 690 332 690 m 321 64 q 467 123 407 64 q 533 276 526 182 l 538 326 l 497 326 q 299 314 369 326 q 197 272 228 301 q 167 189 167 242 q 208 98 167 132 q 321 64 250 64 m 449 793 q 437 768 447 778 q 414 758 426 758 q 394 768 403 758 q 385 794 385 778 q 401 848 385 825 q 447 896 418 871 q 478 928 468 915 q 488 953 488 940 q 431 986 488 986 q 360 974 396 986 q 346 971 349 971 q 326 978 333 971 q 319 996 319 985 q 326 1015 319 1006 q 346 1031 333 1025 q 439 1049 388 1049 q 532 1025 497 1049 q 567 961 567 1001 q 551 909 567 929 q 504 865 535 889 q 465 828 478 843 q 449 793 453 814 z "},"ȃ":{"ha":731,"x_min":78,"x_max":631,"o":"m 400 690 q 631 468 631 690 q 629 433 631 446 l 599 32 q 586 3 597 14 q 557 -7 575 -7 q 526 6 538 -7 q 515 38 514 18 l 521 115 q 435 23 490 56 q 307 -10 379 -10 q 142 44 206 -10 q 78 183 78 99 q 119 304 78 260 q 250 369 160 349 q 493 389 340 389 l 542 389 l 546 436 q 547 467 547 447 q 510 581 547 544 q 397 617 474 617 q 169 542 289 617 q 151 536 160 536 q 128 547 138 536 q 119 574 119 558 q 140 611 119 597 q 261 669 190 647 q 400 690 332 690 m 321 64 q 467 123 407 64 q 533 276 526 182 l 538 326 l 497 326 q 299 314 369 326 q 197 272 228 301 q 167 189 167 242 q 208 98 167 132 q 321 64 250 64 m 429 1001 q 550 967 499 1001 q 626 865 601 932 q 631 847 631 856 q 619 820 631 831 q 594 810 608 810 q 558 838 571 810 q 424 933 521 933 q 275 838 326 933 q 236 810 260 810 q 215 819 224 810 q 206 842 206 828 q 211 865 206 854 q 301 967 244 932 q 429 1001 358 1001 z "},"ā":{"ha":731,"x_min":78,"x_max":636,"o":"m 400 690 q 631 468 631 690 q 629 433 631 446 l 599 32 q 586 3 597 14 q 557 -7 575 -7 q 526 6 538 -7 q 515 38 514 18 l 521 115 q 435 23 490 56 q 307 -10 379 -10 q 142 44 206 -10 q 78 183 78 99 q 119 304 78 260 q 250 369 160 349 q 493 389 340 389 l 542 389 l 546 436 q 547 467 547 447 q 510 581 547 544 q 397 617 474 617 q 169 542 289 617 q 151 536 160 536 q 128 547 138 536 q 119 574 119 558 q 140 611 119 597 q 261 669 190 647 q 400 690 332 690 m 321 64 q 467 123 407 64 q 533 276 526 182 l 538 326 l 497 326 q 299 314 369 326 q 197 272 228 301 q 167 189 167 242 q 208 98 167 132 q 321 64 250 64 m 253 869 q 211 904 211 869 q 224 931 211 922 q 257 940 236 940 l 594 940 q 636 906 636 940 q 624 878 636 888 q 590 869 611 869 l 253 869 z "},"ą":{"ha":731,"x_min":78,"x_max":647,"o":"m 607 -185 q 625 -181 618 -181 q 642 -187 636 -181 q 647 -206 647 -194 q 642 -226 647 -215 q 625 -242 636 -236 q 529 -265 579 -265 q 419 -228 460 -265 q 378 -132 378 -192 q 413 -28 378 -72 q 515 38 449 17 l 521 115 q 433 22 489 53 q 307 -10 378 -10 q 142 44 206 -10 q 78 183 78 99 q 118 303 78 258 q 249 369 158 349 q 493 389 339 389 l 542 389 l 546 436 q 547 467 547 447 q 511 581 547 544 q 397 617 475 617 q 169 542 289 617 q 150 536 160 536 q 128 547 138 536 q 119 574 119 558 q 140 611 119 597 q 263 669 192 647 q 400 690 333 690 q 631 468 631 690 q 629 433 631 446 l 599 33 q 569 0 597 6 q 488 -36 522 -6 q 454 -118 454 -67 q 476 -181 454 -160 q 539 -203 499 -203 q 607 -185 569 -203 m 321 64 q 467 123 407 64 q 533 276 526 182 l 538 326 l 497 326 q 290 313 361 326 q 193 269 219 299 q 167 189 167 240 q 208 98 167 132 q 321 64 250 64 z "},"å":{"ha":731,"x_min":78,"x_max":631,"o":"m 400 690 q 631 468 631 690 q 629 433 631 446 l 599 32 q 586 3 597 14 q 557 -7 575 -7 q 526 6 538 -7 q 515 38 514 18 l 521 115 q 435 23 490 56 q 307 -10 379 -10 q 142 44 206 -10 q 78 183 78 99 q 119 304 78 260 q 250 369 160 349 q 493 389 340 389 l 542 389 l 546 436 q 547 467 547 447 q 510 581 547 544 q 397 617 474 617 q 169 542 289 617 q 151 536 160 536 q 128 547 138 536 q 119 574 119 558 q 140 611 119 597 q 261 669 190 647 q 400 690 332 690 m 321 64 q 467 123 407 64 q 533 276 526 182 l 538 326 l 497 326 q 299 314 369 326 q 197 272 228 301 q 167 189 167 242 q 208 98 167 132 q 321 64 250 64 m 422 769 q 325 808 365 769 q 285 904 285 847 q 325 999 285 960 q 422 1038 365 1038 q 519 999 479 1038 q 560 904 560 960 q 519 808 560 847 q 422 769 479 769 m 422 832 q 472 853 453 832 q 492 904 492 874 q 472 954 492 933 q 422 975 451 975 q 374 954 393 975 q 354 904 354 933 q 374 853 354 874 q 422 832 393 832 z "},"ǻ":{"ha":731,"x_min":78,"x_max":719,"o":"m 629 1165 q 669 1186 646 1186 q 704 1172 689 1186 q 719 1138 719 1157 q 694 1094 719 1111 l 539 978 q 561 904 561 944 q 521 810 561 849 q 424 771 481 771 q 327 810 367 771 q 288 904 288 849 q 327 1000 288 961 q 424 1039 367 1039 q 501 1015 467 1039 l 629 1165 m 424 833 q 473 854 453 833 q 493 904 493 875 q 474 956 493 935 q 424 976 454 976 q 375 956 394 976 q 356 904 356 935 q 375 854 356 875 q 424 833 394 833 m 400 690 q 631 468 631 690 q 629 433 631 446 l 599 32 q 585 3 597 13 q 557 -7 574 -7 q 526 4 539 -7 q 515 38 514 15 l 521 117 q 432 22 488 54 q 307 -10 376 -10 q 142 44 206 -10 q 78 183 78 99 q 118 303 78 258 q 249 369 158 349 q 493 389 339 389 l 542 389 l 546 436 q 547 467 547 447 q 511 581 547 544 q 397 617 475 617 q 169 542 289 617 q 150 536 160 536 q 128 547 138 536 q 119 574 119 558 q 140 611 119 597 q 261 669 190 647 q 400 690 332 690 m 321 64 q 467 123 407 64 q 533 276 526 182 l 538 326 l 497 326 q 290 313 361 326 q 193 269 219 299 q 167 189 167 240 q 208 98 167 132 q 321 64 250 64 z "},"ã":{"ha":731,"x_min":78,"x_max":640,"o":"m 400 690 q 631 468 631 690 q 629 433 631 446 l 599 32 q 586 3 597 14 q 557 -7 575 -7 q 526 6 538 -7 q 515 38 514 18 l 521 115 q 435 23 490 56 q 307 -10 379 -10 q 142 44 206 -10 q 78 183 78 99 q 119 304 78 260 q 250 369 160 349 q 493 389 340 389 l 542 389 l 546 436 q 547 467 547 447 q 510 581 547 544 q 397 617 474 617 q 169 542 289 617 q 151 536 160 536 q 128 547 138 536 q 119 574 119 558 q 140 611 119 597 q 261 669 190 647 q 400 690 332 690 m 321 64 q 467 123 407 64 q 533 276 526 182 l 538 326 l 497 326 q 299 314 369 326 q 197 272 228 301 q 167 189 167 242 q 208 98 167 132 q 321 64 250 64 m 513 824 q 462 837 488 824 q 407 874 436 850 q 359 904 375 896 q 328 913 343 913 q 289 899 304 913 q 260 863 274 886 q 244 840 250 847 q 229 833 238 833 q 213 842 219 833 q 206 863 206 850 q 223 916 206 886 q 269 967 240 946 q 333 988 299 988 q 384 974 358 988 q 439 938 410 961 q 487 907 471 915 q 518 899 503 899 q 556 912 542 899 q 588 949 571 925 q 603 971 597 964 q 618 978 610 978 q 634 969 628 978 q 640 949 640 961 q 623 895 640 925 q 576 844 606 865 q 513 824 547 824 z "},"æ":{"ha":1190,"x_min":78,"x_max":1132,"o":"m 626 326 l 626 313 q 685 131 626 196 q 854 65 743 65 q 956 83 904 65 q 1047 131 1007 100 q 1074 140 1061 140 q 1097 131 1088 140 q 1106 106 1106 121 q 1089 71 1106 86 q 983 13 1051 36 q 853 -10 915 -10 q 674 39 746 -10 q 574 175 603 88 q 471 40 542 89 q 307 -10 400 -10 q 142 44 206 -10 q 78 183 78 99 q 118 303 78 258 q 249 369 158 349 q 493 389 339 389 l 546 389 l 550 436 q 551 469 551 449 q 515 581 551 546 q 400 617 478 617 q 169 542 286 617 q 150 536 160 536 q 128 547 136 536 q 119 572 119 557 q 140 611 119 597 q 262 669 190 647 q 403 690 333 690 q 619 567 575 690 q 724 658 661 626 q 865 690 786 690 q 1063 612 994 690 q 1132 379 1132 533 q 1119 340 1132 353 q 1085 326 1106 326 l 626 326 m 869 621 q 708 560 769 621 q 632 389 647 500 l 1054 389 q 1008 562 1058 503 q 869 621 958 621 m 317 64 q 469 126 407 64 q 539 289 531 189 l 542 326 l 497 326 q 290 313 361 326 q 193 269 219 299 q 167 189 167 240 q 208 98 167 132 q 317 64 249 64 z "},"ǽ":{"ha":1190,"x_min":78,"x_max":1132,"o":"m 626 326 l 626 313 q 685 131 626 196 q 854 65 743 65 q 956 83 904 65 q 1047 131 1007 100 q 1074 140 1061 140 q 1097 131 1088 140 q 1106 106 1106 121 q 1089 71 1106 86 q 983 13 1051 36 q 853 -10 915 -10 q 674 39 746 -10 q 574 175 603 88 q 471 40 542 89 q 307 -10 400 -10 q 142 44 206 -10 q 78 183 78 99 q 118 303 78 258 q 249 369 158 349 q 493 389 339 389 l 546 389 l 550 436 q 551 469 551 449 q 515 581 551 546 q 400 617 478 617 q 169 542 286 617 q 150 536 160 536 q 128 547 136 536 q 119 572 119 557 q 140 611 119 597 q 262 669 190 647 q 403 690 333 690 q 619 567 575 690 q 724 658 661 626 q 865 690 786 690 q 1063 612 994 690 q 1132 379 1132 533 q 1119 340 1132 353 q 1085 326 1106 326 l 626 326 m 869 621 q 708 560 769 621 q 632 389 647 500 l 1054 389 q 1008 562 1058 503 q 869 621 958 621 m 317 64 q 469 126 407 64 q 539 289 531 189 l 542 326 l 497 326 q 290 313 361 326 q 193 269 219 299 q 167 189 167 240 q 208 98 167 132 q 317 64 249 64 m 647 767 q 626 757 638 757 q 610 764 617 757 q 603 782 603 771 q 610 801 603 793 l 801 1031 q 840 1051 818 1051 q 872 1039 858 1051 q 886 1008 886 1026 q 868 974 886 990 l 647 767 z "},"b":{"ha":796,"x_min":85,"x_max":729,"o":"m 442 690 q 592 650 526 690 q 693 536 657 610 q 729 364 729 463 q 690 168 729 253 q 578 37 650 83 q 414 -10 507 -10 q 269 27 331 -10 q 179 132 207 64 l 171 36 q 157 3 169 14 q 126 -7 144 -7 q 96 3 107 -7 q 88 36 85 14 l 160 949 q 175 977 161 967 q 206 988 189 988 q 235 978 224 988 q 244 949 246 968 l 214 567 q 308 658 247 625 q 442 690 369 690 m 411 65 q 580 146 518 65 q 642 367 642 226 q 585 551 642 485 q 425 617 528 617 q 256 535 318 617 q 194 313 194 454 q 251 128 194 192 q 411 65 307 65 z "},"c":{"ha":660,"x_min":68,"x_max":643,"o":"m 369 -10 q 210 31 279 -10 q 105 144 142 71 q 68 315 68 218 q 108 513 68 428 q 224 644 149 597 q 401 690 300 690 q 531 669 471 690 q 626 617 592 649 q 643 581 643 601 q 633 551 643 564 q 608 539 622 539 q 588 547 599 539 q 400 617 500 617 q 221 536 285 617 q 157 313 157 456 q 215 131 157 197 q 378 65 272 65 q 472 83 429 65 q 556 133 514 100 q 578 142 568 142 q 602 131 592 142 q 613 106 613 119 q 600 78 613 90 q 497 13 558 36 q 369 -10 436 -10 z "},"ć":{"ha":660,"x_min":68,"x_max":683,"o":"m 369 -10 q 210 31 279 -10 q 105 144 142 71 q 68 315 68 218 q 108 513 68 428 q 224 644 149 597 q 401 690 300 690 q 531 669 471 690 q 626 617 592 649 q 643 581 643 601 q 633 551 643 564 q 608 539 622 539 q 588 547 599 539 q 400 617 500 617 q 221 536 285 617 q 157 313 157 456 q 215 131 157 197 q 378 65 272 65 q 472 83 429 65 q 556 133 514 100 q 578 142 568 142 q 602 131 592 142 q 613 106 613 119 q 600 78 613 90 q 497 13 558 36 q 369 -10 436 -10 m 444 767 q 424 757 435 757 q 407 764 414 757 q 400 782 400 771 q 407 801 400 793 l 599 1031 q 638 1051 615 1051 q 669 1039 656 1051 q 683 1008 683 1026 q 665 974 683 990 l 444 767 z "},"č":{"ha":660,"x_min":68,"x_max":643,"o":"m 369 -10 q 210 31 279 -10 q 105 144 142 71 q 68 315 68 218 q 108 513 68 428 q 224 644 149 597 q 401 690 300 690 q 531 669 471 690 q 626 617 592 649 q 643 581 643 601 q 633 551 643 564 q 608 539 622 539 q 588 547 599 539 q 400 617 500 617 q 221 536 285 617 q 157 313 157 456 q 215 131 157 197 q 378 65 272 65 q 472 83 429 65 q 556 133 514 100 q 578 142 568 142 q 602 131 592 142 q 613 106 613 119 q 600 78 613 90 q 497 13 558 36 q 369 -10 436 -10 m 536 1028 q 551 1044 542 1039 q 569 1050 561 1050 q 595 1040 585 1050 q 606 1014 606 1029 q 597 989 606 1001 l 465 788 q 417 757 444 757 q 374 788 388 757 l 274 990 q 269 1010 269 1001 q 282 1039 269 1026 q 310 1051 294 1051 q 340 1028 331 1051 l 422 833 l 536 1028 z "},"ç":{"ha":660,"x_min":68,"x_max":643,"o":"m 400 617 q 221 536 285 617 q 157 313 157 456 q 215 131 157 197 q 378 65 272 65 q 472 83 429 65 q 556 133 514 100 q 578 142 568 142 q 602 131 592 142 q 613 106 613 119 q 600 78 613 90 q 500 15 560 38 q 375 -10 440 -8 l 364 -61 q 399 -57 381 -57 q 470 -82 443 -57 q 497 -150 497 -107 q 455 -234 497 -203 q 340 -265 413 -265 q 240 -249 285 -265 q 219 -221 219 -242 q 228 -200 219 -208 q 251 -192 238 -192 q 263 -193 258 -192 q 342 -206 304 -206 q 405 -192 383 -206 q 426 -153 426 -178 q 414 -123 426 -133 q 378 -112 401 -112 q 338 -119 357 -112 q 313 -126 318 -126 q 294 -118 301 -126 q 288 -100 286 -110 l 306 -4 q 132 101 196 15 q 68 315 68 186 q 108 513 68 428 q 224 644 149 597 q 401 690 300 690 q 531 669 471 690 q 626 617 592 649 q 643 581 643 601 q 633 551 643 564 q 608 539 622 539 q 588 547 599 539 q 400 617 500 617 z "},"ḉ":{"ha":660,"x_min":68,"x_max":683,"o":"m 599 1031 q 638 1051 615 1051 q 669 1039 656 1051 q 683 1008 683 1026 q 665 974 683 990 l 444 767 q 424 757 435 757 q 407 764 414 757 q 400 782 400 771 q 407 801 400 793 l 599 1031 m 626 617 q 643 581 643 601 q 633 551 643 564 q 608 539 622 539 q 588 547 599 539 q 400 617 500 617 q 221 536 285 617 q 157 313 157 456 q 215 131 157 197 q 378 65 272 65 q 472 83 429 65 q 556 133 514 100 q 578 142 568 142 q 602 131 592 142 q 613 106 613 119 q 600 78 613 90 q 500 15 560 38 q 375 -10 440 -8 l 364 -61 q 399 -57 381 -57 q 470 -82 443 -57 q 497 -150 497 -107 q 455 -234 497 -203 q 340 -265 413 -265 q 240 -249 285 -265 q 219 -221 219 -242 q 228 -200 219 -208 q 251 -192 238 -192 q 263 -193 258 -192 q 342 -206 304 -206 q 405 -192 383 -206 q 426 -153 426 -178 q 414 -123 426 -133 q 378 -112 401 -112 q 338 -119 357 -112 q 313 -126 318 -126 q 294 -118 301 -126 q 288 -100 286 -110 l 306 -4 q 132 101 196 15 q 68 315 68 186 q 108 513 68 428 q 224 644 149 597 q 401 690 300 690 q 531 669 471 690 q 626 617 592 649 z "},"ĉ":{"ha":660,"x_min":68,"x_max":643,"o":"m 369 -10 q 210 31 279 -10 q 105 144 142 71 q 68 315 68 218 q 108 513 68 428 q 224 644 149 597 q 401 690 300 690 q 531 669 471 690 q 626 617 592 649 q 643 581 643 601 q 633 551 643 564 q 608 539 622 539 q 588 547 599 539 q 400 617 500 617 q 221 536 285 617 q 157 313 157 456 q 215 131 157 197 q 378 65 272 65 q 472 83 429 65 q 556 133 514 100 q 578 142 568 142 q 602 131 592 142 q 613 106 613 119 q 600 78 613 90 q 497 13 558 36 q 369 -10 436 -10 m 321 779 q 306 763 315 768 q 288 757 296 757 q 262 767 272 757 q 251 793 251 778 q 260 818 251 806 l 392 1019 q 440 1050 413 1050 q 483 1019 469 1050 l 583 817 q 588 797 588 807 q 575 769 588 781 q 547 757 563 757 q 517 779 526 757 l 435 974 l 321 779 z "}}}
